<?xml version="1.0" encoding="utf-8"?>
<!-- Generator: Adobe Illustrator 16.0.3, SVG Export Plug-In . SVG Version: 6.00 Build 0)  -->
<!DOCTYPE svg PUBLIC "-//W3C//DTD SVG 1.1//EN" "http://www.w3.org/Graphics/SVG/1.1/DTD/svg11.dtd">
<svg version="1.1" id="Layer_1" xmlns="http://www.w3.org/2000/svg" xmlns:xlink="http://www.w3.org/1999/xlink" x="0px" y="0px"
	 width="91.008px" height="150px" viewBox="0 0 91.008 150" enable-background="new 0 0 91.008 150" xml:space="preserve">
<path class="right-side" fill="#AA0B4B" d="M91.005,45.492C91.005,20.369,70.637,0,45.513,0C20.39,0,0.021,20.369,0.021,45.492
	c0,0-2.459,56.558,45.492,104.508C92.234,102.049,91.005,45.492,91.005,45.492z"/>
<path class="left-side" fill="#E80A60" d="M45.521,0c-25,0-45.492,20.369-45.492,45.492c0,0-2.732,56.558,45.268,104.508
	C45.297,89.833,45.521,23.417,45.521,0z"/>
<path class="circle" fill="#E80A60" d="M45.504,81.147c-18.983,0-34.426-15.443-34.426-34.426s15.443-34.426,34.426-34.426
	S79.93,27.738,79.93,46.721S64.487,81.147,45.504,81.147z"/>
<path class="circle-border" fill="#AA0B4B" d="M45.504,12.295c18.983,0,34.426,15.443,34.426,34.426S64.487,81.147,45.504,81.147
	S11.078,65.704,11.078,46.721S26.521,12.295,45.504,12.295L45.504,12.295z M45.504,7.377C23.776,7.377,6.16,24.994,6.16,46.721
	c0,21.728,17.617,39.344,39.344,39.344s39.344-17.616,39.344-39.344C84.848,24.994,67.231,7.377,45.504,7.377L45.504,7.377z"/>
</svg>