<?xml version="1.0" encoding="utf-8"?>
<!-- Generator: Adobe Illustrator 16.0.3, SVG Export Plug-In . SVG Version: 6.00 Build 0)  -->
<!DOCTYPE svg PUBLIC "-//W3C//DTD SVG 1.1//EN" "http://www.w3.org/Graphics/SVG/1.1/DTD/svg11.dtd">
<svg version="1.1" id="Layer_1" xmlns="http://www.w3.org/2000/svg" xmlns:xlink="http://www.w3.org/1999/xlink" x="0px" y="0px"
	 width="128px" height="111.985px" viewBox="0 0 128 111.985" enable-background="new 0 0 128 111.985" xml:space="preserve">
<g>
	<g>
		<path fill-rule="evenodd" clip-rule="evenodd" d="M128,97.752c-0.219,0.886-0.404,1.776-0.656,2.651
			c-2.023,7.005-8.213,11.576-15.693,11.576c-30.119,0.006-60.238,0.017-90.357-0.016c-3.03-0.006-6.136,0.076-9.066-0.525
			c-7.07-1.454-12.178-7.929-12.194-15.142c-0.043-18.832-0.043-37.665,0-56.492c0.022-8.607,7.065-15.628,15.683-15.765
			c2.871-0.044,5.747-0.077,8.618,0.005c2.86,0.082,4.856-1.159,6.212-3.598c1.925-3.45,3.872-6.89,5.802-10.346
			c1.711-3.062,3.866-5.714,6.917-7.557c2.854-1.728,5.993-2.488,9.291-2.504c7.584-0.044,15.164-0.06,22.742-0.005
			C82.821,0.089,88.147,3.77,91.669,10.26c0.902,1.662,0.351,3.795-1.159,4.932c-1.574,1.181-3.729,1.05-5.14-0.333
			c-0.328-0.323-0.597-0.7-0.875-1.061c-2.893-3.806-6.786-5.714-11.517-5.78c-6.124-0.087-12.249-0.093-18.373,0
			c-5.408,0.082-9.613,2.499-12.391,7.152c-2.412,4.036-4.714,8.137-6.989,12.254c-1.64,2.969-4.057,4.55-7.458,4.561
			c-3.166,0.011-6.332-0.011-9.498,0.011c-5.922,0.027-10.275,4.348-10.28,10.248c-0.017,17.252-0.011,34.5,0.005,51.746
			c0,5.589,4.407,10.018,9.979,10.023c30.66,0.011,61.326,0.011,91.986,0c5.649,0,10.046-4.418,10.051-10.095
			c0.017-17.077-0.017-34.16,0.022-51.242c0.005-2.937-1.132-5.244-3.248-7.136c-2.511-2.242-5.452-3.456-8.843-3.554
			c-2.209-0.071-3.894-1.771-3.926-3.899c-0.038-2.078,1.536-3.91,3.663-4.03c7.087-0.405,12.971,2.018,17.422,7.655
			c1.521,1.93,2.264,4.21,2.898,6.54C128,58.085,128,77.918,128,97.752z"/>
		<path fill-rule="evenodd" clip-rule="evenodd" d="M96.137,64.051c-0.181,16.351-12.609,30.108-28.813,31.732
			c-0.995,0.099-1.99,0.181-2.985,0.191c-2.472,0.032-4.276-1.607-4.325-3.877c-0.049-2.318,1.733-4.014,4.26-4.091
			c8.476-0.251,15.19-3.871,19.839-10.925c9.777-14.835,0.432-34.718-17.252-36.895c-14.12-1.739-26.614,9.154-26.877,23.432
			c-0.043,2.297-1.236,3.888-3.226,4.304c-1.783,0.366-3.696-0.602-4.385-2.33c-0.252-0.634-0.339-1.378-0.339-2.067
			c0.099-15.081,11.363-28.38,26.204-30.977c17.34-3.03,33.564,7.967,37.091,25.192C95.754,59.813,95.874,61.946,96.137,64.051z"/>
		<path fill-rule="evenodd" clip-rule="evenodd" d="M95.983,20.032c2.171-0.011,3.986,1.788,3.997,3.97
			c0.006,2.182-1.782,3.975-3.97,3.986c-2.188,0.005-3.991-1.777-3.991-3.959C92.02,21.836,93.791,20.048,95.983,20.032z"/>
		<path fill-rule="evenodd" clip-rule="evenodd" d="M45.977,79.975c0.033,2.165-1.777,4.003-3.948,4.008
			c-2.198,0.011-3.981-1.75-4.014-3.942c-0.022-2.171,1.771-4.003,3.948-4.014C44.15,76.021,45.949,77.787,45.977,79.975z"/>
	</g>
</g>
</svg>
