<?xml version="1.0" encoding="utf-8"?>
<!-- Generator: Adobe Illustrator 16.0.3, SVG Export Plug-In . SVG Version: 6.00 Build 0)  -->
<!DOCTYPE svg PUBLIC "-//W3C//DTD SVG 1.1//EN" "http://www.w3.org/Graphics/SVG/1.1/DTD/svg11.dtd">
<svg version="1.1" id="Layer_1" xmlns="http://www.w3.org/2000/svg" xmlns:xlink="http://www.w3.org/1999/xlink" x="0px" y="0px"
	 width="110px" height="126px" viewBox="0 0 110 126" enable-background="new 0 0 110 126" xml:space="preserve">
<g>
	<path fill-rule="evenodd" clip-rule="evenodd" d="M96.024,0c0.792,0.194,1.585,0.366,2.366,0.584
		c11.049,3.113,15.269,16.485,7.988,25.378C93.675,41.491,80.962,57.008,68.234,72.518c-6.844,8.339-19.485,8.337-26.358,0.006
		c-3.855-4.673-7.657-9.395-11.533-14.052c-1.812-2.175-4.114-3.424-7.042-3.356c-2.37,0.053-4.742-0.015-7.113,0.016
		c-3.417,0.046-5.999,1.575-7.451,4.683c-1.432,3.063-0.961,5.982,1.176,8.613c12.539,15.451,25.074,30.906,37.626,46.345
		c3.615,4.448,10.903,4.563,14.872,0.071c3.329-3.771,6.408-7.768,9.582-11.678c9.188-11.313,18.379-22.625,27.534-33.97
		c0.91-1.129,1.656-2.421,2.305-3.725c1.018-2.037,3.079-2.99,5.078-2.19c2.051,0.824,3.078,3.082,2.109,5.177
		c-0.834,1.803-1.761,3.633-3.005,5.162c-12.456,15.304-25.003,30.537-37.486,45.822c-2.852,3.492-6.411,5.63-10.839,6.353
		c-0.147,0.024-0.282,0.135-0.423,0.206c-1.389,0-2.778,0-4.168,0c-0.988-0.24-1.987-0.437-2.958-0.732
		c-3.25-0.978-5.999-2.729-8.169-5.377C29.206,104.307,16.394,88.763,3.688,73.13c-4.078-5.018-4.782-10.745-2.073-16.611
		c2.705-5.857,7.509-8.967,13.949-9.226c3.461-0.139,6.957-0.117,10.404,0.206c3.99,0.372,7.24,2.418,9.783,5.521
		c3.813,4.654,7.589,9.343,11.388,14.009c4.047,4.972,11.159,5.189,15.44,0.41c1.827-2.043,3.496-4.228,5.225-6.356
		c10.736-13.224,21.455-26.461,32.209-39.667c2.236-2.744,2.852-5.715,1.328-8.915c-1.524-3.193-4.226-4.629-7.739-4.629
		c-25.791,0.006-51.583,0-77.373,0.012c-3.42,0-6.008,1.547-7.476,4.642c-1.447,3.051-1.001,5.979,1.142,8.616
		c3.151,3.876,6.303,7.752,9.46,11.622c1.546,1.895,1.357,4.355-0.463,5.78c-1.779,1.39-4.122,0.999-5.625-0.865
		c-3.162-3.922-6.361-7.811-9.54-11.717c-7.693-9.456-2.446-23.591,9.549-25.729C13.554,0.185,13.822,0.08,14.094,0
		C41.404,0,68.716,0,96.024,0z"/>
	<path fill-rule="evenodd" clip-rule="evenodd" d="M96.27,53.162c-0.006-2.144,1.724-3.906,3.861-3.94
		c2.189-0.03,3.989,1.741,3.989,3.938c0,2.145-1.733,3.907-3.864,3.938C98.06,57.125,96.272,55.358,96.27,53.162z"/>
</g>
</svg>
