<?xml version="1.0" encoding="utf-8"?>
<!-- Generator: Adobe Illustrator 16.0.3, SVG Export Plug-In . SVG Version: 6.00 Build 0)  -->
<!DOCTYPE svg PUBLIC "-//W3C//DTD SVG 1.1//EN" "http://www.w3.org/Graphics/SVG/1.1/DTD/svg11.dtd">
<svg version="1.1" id="Слой_1" xmlns="http://www.w3.org/2000/svg" xmlns:xlink="http://www.w3.org/1999/xlink" x="0px" y="0px"
	 width="182.593px" height="256px" viewBox="0.5 256.5 182.593 256" enable-background="new 0.5 256.5 182.593 256"
	 xml:space="preserve">
<path d="M164.961,474.383c0.211,7.62-3.457,14.393-10.936,17.851c-7.268,3.387-14.041,2.046-20.179-2.964
	c-35.629-29.068-71.33-58.136-107.03-87.204c-5.361-4.373-8.043-10.936-7.972-17.568c-0.071-6.631,2.61-13.192,7.972-17.567
	c35.63-28.997,71.33-58.064,106.96-87.133c6.209-5.01,12.981-6.351,20.178-2.964c7.479,3.458,11.147,10.23,10.937,17.851
	c0,10.019,18.202,9.454,18.202-1.553c0-13.193-7.619-26.457-21.307-32.808c-13.688-6.42-27.022-4.727-38.734,4.869
	C92.149,290.38,17.715,351.056,11.93,356.842C4.239,364.461,0.5,374.55,0.5,384.569c0,10.018,3.739,20.036,11.43,27.728
	c5.785,5.645,80.291,66.39,111.122,91.577c11.782,9.525,25.117,11.219,38.805,4.798c13.616-6.35,21.236-19.613,21.236-32.807
	C183.093,464.93,164.961,464.294,164.961,474.383z"/>
</svg>
