<?xml version="1.0" encoding="utf-8"?>
<!-- Generator: Adobe Illustrator 16.0.3, SVG Export Plug-In . SVG Version: 6.00 Build 0)  -->
<!DOCTYPE svg PUBLIC "-//W3C//DTD SVG 1.1//EN" "http://www.w3.org/Graphics/SVG/1.1/DTD/svg11.dtd">
<svg version="1.1" id="Слой_1" xmlns="http://www.w3.org/2000/svg" xmlns:xlink="http://www.w3.org/1999/xlink" x="0px" y="0px"
	 width="182.593px" height="256px" viewBox="0.5 256.5 182.593 256" enable-background="new 0.5 256.5 182.593 256"
	 xml:space="preserve">
<path d="M18.632,294.617c-0.211-7.62,3.458-14.393,10.936-17.851c7.267-3.387,14.04-2.046,20.178,2.964
	c35.629,29.068,71.33,58.136,107.03,87.204c5.361,4.373,8.043,10.936,7.972,17.568c0.071,6.631-2.61,13.192-7.972,17.567
	c-35.63,28.997-71.33,58.064-106.959,87.133c-6.209,5.01-12.982,6.351-20.178,2.964c-7.479-3.458-11.147-10.23-10.936-17.851
	c0-10.019-18.203-9.454-18.203,1.553c0,13.193,7.62,26.457,21.307,32.808c13.688,6.42,27.022,4.727,38.734-4.869
	c30.902-25.188,105.337-85.863,111.122-91.649c7.69-7.619,11.43-17.708,11.43-27.728c0-10.018-3.739-20.036-11.43-27.728
	c-5.785-5.645-80.291-66.39-111.122-91.577c-11.783-9.525-25.117-11.219-38.805-4.798C8.12,266.678,0.5,279.941,0.5,293.135
	C0.5,304.07,18.632,304.706,18.632,294.617z"/>
</svg>
