<?xml version="1.0" encoding="utf-8"?>
<!-- Generator: Adobe Illustrator 16.0.3, SVG Export Plug-In . SVG Version: 6.00 Build 0)  -->
<!DOCTYPE svg PUBLIC "-//W3C//DTD SVG 1.1//EN" "http://www.w3.org/Graphics/SVG/1.1/DTD/svg11.dtd">
<svg version="1.1" id="Слой_1" xmlns="http://www.w3.org/2000/svg" xmlns:xlink="http://www.w3.org/1999/xlink" x="0px" y="0px"
	 width="256px" height="256px" viewBox="0 0 256 256" enable-background="new 0 0 256 256" xml:space="preserve">
<g>
	<path fill-rule="evenodd" clip-rule="evenodd" d="M256,78.986c-0.175,0.375-0.4,0.725-0.487,1.112
		c-2.351,9.762-9.926,15.837-20.025,15.837c-42.662,0.038-85.312,0.012-127.961,0.025c-24.912,0-49.812,0.013-74.724,0.013
		c-9.987,0-16.837,6.8-16.837,16.75c0,36.738-0.013,73.488,0.012,110.226c0,10.362,6.675,17.075,16.987,17.075
		c63.487,0.013,126.961,0.013,190.448,0c9.737,0,16.612-6.938,16.612-16.725c0.012-23.589,0.012-47.163,0-70.739
		c0-3.388,1.3-5.987,4.3-7.6c2.837-1.513,5.75-1.35,8.225,0.612c1.412,1.138,2.313,2.925,3.45,4.425c0,25.826,0,51.664,0,77.501
		c-0.175,0.55-0.375,1.101-0.5,1.663c-2.525,12.999-10.138,21.5-22.725,25.538c-1.726,0.55-3.525,0.862-5.275,1.3
		c-66.324,0-132.673,0-199.01,0c-0.55-0.175-1.088-0.388-1.65-0.487C11.653,253.1,0.103,239.949,0.065,224.562
		c-0.087-37.65-0.087-75.313,0-112.976C0.103,94.161,14.44,80.048,31.89,80.036c40.074-0.025,80.149-0.013,120.236-0.013
		c26.399,0,52.812,0,79.224,0c5.4,0,8.65-3.313,8.676-8.75c0-2.338,0.024-4.675,0-7c-0.063-9.326-7-16.275-16.288-16.313
		c-4.074-0.025-8.162,0.063-12.237-0.025c-9.375-0.2-17.374-6.9-18.999-16.1c-0.476-2.675-0.325-5.475-0.476-8.212
		c-0.25-4.313-3.737-7.65-8-7.65c-4.337,0-7.8,3.287-8.037,7.612c-0.088,1.675,0,3.35-0.037,5
		c-0.301,10.45-8.763,19.212-19.175,19.3c-19.15,0.188-38.325,0.175-57.487,0c-9.412-0.088-17.162-6.962-18.825-16.275
		c-0.425-2.35-0.35-4.8-0.425-7.2c-0.113-4.887-3.425-8.4-8.013-8.437c-4.55-0.05-8,3.537-8.062,8.35
		c-0.013,1.413,0.012,2.837-0.025,4.263c-0.313,9.5-7.012,17.55-16.462,18.888c-5.063,0.725-10.288,0.387-15.45,0.487
		c-8.887,0.175-15.65,6.712-16.05,15.525c-0.225,5.112-3.65,8.637-8.237,8.475c-4.625-0.163-7.8-3.875-7.7-8.988
		c0.262-13.337,9.462-25.4,22.362-29.488c5.275-1.675,10.687-1.45,16.087-1.45c6.413-0.025,9.288-2.762,9.563-9.162
		C48.577,10.609,58.715,0.522,70.964,0.06c13.475-0.5,24.438,9.8,25,23.5c0.2,5.15,3.3,8.45,8.212,8.45
		c15.925,0.05,31.824,0.05,47.749,0c4.65-0.025,7.9-3.375,8.125-8.075c0.088-1.813,0.226-3.663,0.625-5.425
		c2.7-11.575,13.763-19.55,25.45-18.4c12.199,1.175,21.475,11.1,21.824,23.325c0.15,5.475,3.362,8.587,8.862,8.6
		c2.5,0,5-0.025,7.5,0c14.213,0.15,26.688,9.701,30.475,23.388c0.463,1.676,0.813,3.375,1.213,5.063
		C256,66.66,256,72.823,256,78.986z"/>
	<path fill-rule="evenodd" clip-rule="evenodd" d="M256,121.998c-0.288,0.475-0.601,0.95-0.862,1.438
		c-1.788,3.438-5.388,5.175-8.913,4.3c-3.675-0.9-6.199-4.062-6.199-7.75c0-3.688,2.524-6.837,6.199-7.75
		c3.513-0.863,7.125,0.887,8.913,4.3c0.262,0.5,0.574,0.987,0.862,1.462C256,119.323,256,120.661,256,121.998z"/>
	<path fill-rule="evenodd" clip-rule="evenodd" d="M127.826,147.398c0.225-2.476,0.213-5.013,0.775-7.412
		c1.575-6.801,7.887-11.788,14.837-11.95c2.838-0.063,5.662-0.063,8.487,0c4.55,0.087,7.976,3.513,8.025,7.875
		s-3.351,7.85-7.862,8.037c-1,0.038-2-0.037-2.988,0.025c-2.874,0.199-4.949,2.262-5.124,5.137c-0.075,1.163,0.05,2.338-0.051,3.488
		c-0.35,4.237-3.85,7.413-8.037,7.351c-4.162-0.05-7.587-3.313-7.837-7.538c-0.1-1.663-0.012-3.338-0.012-5
		C127.977,147.411,127.889,147.398,127.826,147.398z"/>
	<path fill-rule="evenodd" clip-rule="evenodd" d="M143.839,195.549c0.212-2.4,0.2-4.838,0.688-7.175
		c1.462-6.987,7.649-12.075,14.774-12.325c2.9-0.087,5.825-0.075,8.725,0c4.513,0.125,7.95,3.625,7.95,7.963
		c-0.024,4.35-3.475,7.787-8,7.949c-0.899,0.038-1.825-0.037-2.737,0.013c-3.013,0.15-5.112,2.237-5.263,5.237
		c-0.05,1.101,0.051,2.188-0.037,3.25c-0.313,4.326-3.912,7.613-8.162,7.501c-4.138-0.1-7.5-3.412-7.726-7.65
		c-0.074-1.588-0.012-3.163-0.012-4.75C143.977,195.562,143.901,195.549,143.839,195.549z"/>
	<path fill-rule="evenodd" clip-rule="evenodd" d="M79.777,147.373c0.3-2.625,0.288-5.35,0.95-7.875
		c1.7-6.563,7.925-11.274,14.737-11.45c2.813-0.075,5.65-0.075,8.475,0c4.675,0.125,8.1,3.637,8.013,8.125
		c-0.087,4.337-3.563,7.675-8.125,7.774c-0.913,0.025-1.825-0.037-2.75,0.025c-2.862,0.199-4.913,2.262-5.1,5.149
		c-0.063,1.075,0.038,2.163-0.037,3.25c-0.238,4.213-3.663,7.526-7.8,7.576c-4.275,0.063-7.825-3.201-8.075-7.551
		c-0.1-1.663-0.025-3.325-0.025-5C79.964,147.398,79.877,147.386,79.777,147.373z"/>
	<path fill-rule="evenodd" clip-rule="evenodd" d="M175.851,147.548c0.2-2.3,0.175-4.662,0.625-6.925
		c1.463-7.225,7.7-12.387,15.05-12.587c2.825-0.063,5.65-0.063,8.487,0.012c4.513,0.113,7.938,3.587,7.938,7.95
		c0,4.351-3.425,7.788-7.95,7.95c-0.75,0.025-1.5,0-2.237,0.013c-3.637,0.088-5.688,2.138-5.813,5.75
		c-0.074,1.563-0.037,3.188-0.475,4.675c-1.05,3.688-4.7,5.988-8.425,5.526c-3.775-0.488-6.725-3.563-6.975-7.352
		c-0.101-1.662-0.025-3.325-0.025-4.987C175.988,147.573,175.926,147.561,175.851,147.548z"/>
	<path fill-rule="evenodd" clip-rule="evenodd" d="M47.865,195.611c0.188-2.313,0.15-4.688,0.6-6.938
		c1.487-7.35,7.762-12.487,15.275-12.638c2.737-0.063,5.487-0.063,8.237,0.013c4.512,0.101,7.95,3.55,7.987,7.912
		c0.013,4.351-3.4,7.813-7.913,8c-0.737,0.013-1.487-0.012-2.237,0c-3.762,0.101-5.75,2.15-5.862,5.95
		c-0.038,1.4-0.025,2.862-0.375,4.201c-1,3.85-4.675,6.262-8.487,5.8c-3.863-0.463-6.837-3.638-7.025-7.551
		c-0.087-1.588-0.025-3.163-0.025-4.75C47.978,195.611,47.927,195.611,47.865,195.611z"/>
	<path fill-rule="evenodd" clip-rule="evenodd" d="M95.839,195.361c0.225-2.3,0.2-4.662,0.675-6.925
		c1.475-7.088,7.725-12.188,14.95-12.388c2.837-0.075,5.675-0.075,8.513,0c4.512,0.101,7.962,3.55,7.975,7.9
		c0.025,4.362-3.375,7.813-7.9,8.012c-0.912,0.038-1.825-0.024-2.75,0.013c-3.15,0.15-5.2,2.237-5.337,5.438
		c-0.025,1,0.038,2-0.025,2.987c-0.288,4.326-3.825,7.613-8.075,7.563c-4.15-0.063-7.575-3.35-7.8-7.601
		c-0.1-1.65-0.025-3.313-0.025-4.987C95.977,195.361,95.914,195.361,95.839,195.361z"/>
	<path fill-rule="evenodd" clip-rule="evenodd" d="M207.95,200.086c-0.024,4.326-3.675,7.914-7.987,7.876
		c-4.462-0.05-8.037-3.712-7.938-8.188c0.101-4.313,3.787-7.824,8.1-7.737C204.5,192.124,207.988,195.724,207.95,200.086z"/>
</g>
</svg>
