<?xml version="1.0" encoding="utf-8"?>
<!-- Generator: Adobe Illustrator 16.0.3, SVG Export Plug-In . SVG Version: 6.00 Build 0)  -->
<!DOCTYPE svg PUBLIC "-//W3C//DTD SVG 1.1//EN" "http://www.w3.org/Graphics/SVG/1.1/DTD/svg11.dtd">
<svg version="1.1" id="Слой_1" xmlns="http://www.w3.org/2000/svg" xmlns:xlink="http://www.w3.org/1999/xlink" x="0px" y="0px"
	 width="256px" height="256px" viewBox="0 0 256 256" enable-background="new 0 0 256 256" xml:space="preserve">
<g>
	<path fill-rule="evenodd" clip-rule="evenodd" d="M117.975,256c-0.275-0.188-0.525-0.4-0.788-0.537
		c-3.9-1.863-5.85-5.362-5.05-9.038c0.85-3.949,4.038-6.324,8.388-6.412c5.5-0.112,11.014-0.037,16.476-0.462
		c22.04-1.65,41.854-9.288,59.256-22.825c23.752-18.462,37.941-42.736,42.591-72.46c7.601-48.636-19.389-98.123-64.343-118.247
		C127.775,5.119,74.821,17.144,41.768,56.417c-13.901,16.512-22.452,35.612-24.84,57.124c-4.688,42.111,9.938,76.423,42.716,103.085
		c2.825,2.287,4.838,4.938,4.125,8.774c-1.1,5.987-7.901,8.663-12.789,4.688c-5.863-4.774-11.738-9.687-16.839-15.237
		c-23.977-26.086-35.278-57.035-34.053-92.41C2.127,64.405,45.193,13.957,102.198,2.557C164.305-9.855,225.409,23.894,247.85,83.08
		c4.3,11.35,6.875,23.112,7.675,35.236c0.075,0.9,0.326,1.775,0.476,2.65c0,4.837,0,9.675,0,14.5
		c-0.149,0.725-0.389,1.45-0.438,2.175c-1.487,20.112-7.25,38.924-17.839,56.049c-20.427,33.111-49.829,53.373-88.22,60.373
		c-4.639,0.85-9.351,1.3-14.026,1.938C129.638,256,123.8,256,117.975,256z"/>
	<path fill-rule="evenodd" clip-rule="evenodd" d="M85.947,256c-0.413-0.25-0.801-0.525-1.226-0.725
		c-3.588-1.825-5.4-5.438-4.525-9.05c0.888-3.675,4.038-6.175,7.751-6.2c3.688,0,6.838,2.513,7.738,6.188
		c0.9,3.612-0.913,7.237-4.5,9.05c-0.438,0.212-0.813,0.487-1.238,0.737C88.622,256,87.285,256,85.947,256z"/>
	<path fill-rule="evenodd" clip-rule="evenodd" d="M112,95.979c0-13.237-0.013-26.487,0-39.736c0-3.387,1.487-5.95,4.538-7.45
		c2.888-1.4,5.701-1.05,8.238,0.862c2.4,1.788,3.175,4.313,3.163,7.237c-0.013,18.675,0,37.324,0,55.986
		c0,5.337,0.1,10.662-0.063,15.987c-0.051,1.975,0.675,2.937,2.313,3.874c13.951,7.963,27.853,16.013,41.753,24.05
		c3.276,1.9,4.926,5.037,4.426,8.25c-0.512,3.35-2.875,6.175-6.263,6.612c-1.851,0.237-4.112-0.038-5.7-0.938
		c-16.089-9.112-32.053-18.399-48.055-27.649c-3.013-1.725-4.375-4.362-4.363-7.85C112.024,122.141,112,109.066,112,95.979z"/>
</g>
</svg>
