<?xml version="1.0" encoding="utf-8"?>
<!-- Generator: Adobe Illustrator 16.0.3, SVG Export Plug-In . SVG Version: 6.00 Build 0)  -->
<!DOCTYPE svg PUBLIC "-//W3C//DTD SVG 1.1//EN" "http://www.w3.org/Graphics/SVG/1.1/DTD/svg11.dtd">
<svg version="1.1" id="Слой_1" xmlns="http://www.w3.org/2000/svg" xmlns:xlink="http://www.w3.org/1999/xlink" x="0px" y="0px"
	 width="256px" height="256px" viewBox="0 0 256 256" enable-background="new 0 0 256 256" xml:space="preserve">
<path d="M250.421,226.849c-26.228-23.401-76.934-75.629-99.292-98.866c22.358-23.217,73.054-75.412,99.292-98.824
	c6.881-6.135,7.479-16.689,1.337-23.57c-6.119-6.875-16.694-7.505-23.575-1.342C201.15,28.365,151.053,79.912,128,103.855
	C104.948,79.912,54.846,28.365,27.81,4.246C20.924-1.895,10.38-1.292,4.239,5.588s-5.538,17.435,1.342,23.57
	c26.228,23.407,76.923,75.607,99.287,98.824C82.51,151.22,31.81,203.447,5.582,226.849c-6.88,6.142-7.483,16.696-1.342,23.575
	C7.538,254.12,12.109,256,16.701,256c3.956,0,7.923-1.402,11.108-4.239c27.036-24.118,77.137-75.692,100.189-99.652
	c23.052,23.96,73.152,75.534,100.184,99.652c3.185,2.837,7.163,4.239,11.108,4.239c4.598,0,9.174-1.88,12.467-5.576
	C257.899,243.545,257.302,232.99,250.421,226.849z"/>
</svg>
