<?xml version="1.0" encoding="utf-8"?>
<!-- Generator: Adobe Illustrator 16.0.3, SVG Export Plug-In . SVG Version: 6.00 Build 0)  -->
<!DOCTYPE svg PUBLIC "-//W3C//DTD SVG 1.1//EN" "http://www.w3.org/Graphics/SVG/1.1/DTD/svg11.dtd">
<svg version="1.1" id="Слой_1" xmlns="http://www.w3.org/2000/svg" xmlns:xlink="http://www.w3.org/1999/xlink" x="0px" y="0px"
	 width="256px" height="256px" viewBox="0 0 256 256" enable-background="new 0 0 256 256" xml:space="preserve">
<g>
	<path d="M255.93,135.442c-0.636,4.938-1.13,9.876-2.046,14.813c-5.291,29.064-18.905,53.613-40.845,73.436
		c-3.527,3.175-8.324,3.033-11.428-0.282c-3.104-3.386-2.963-8.183,0.705-11.569c9.101-8.324,16.931-17.706,22.927-28.499
		c12.557-22.573,17.635-46.771,13.191-72.236c-7.759-44.23-32.873-74.775-75.41-89.166C124.226,8.818,88.108,16.295,56.364,42.044
		c-23.279,18.976-36.188,44.16-39.715,74c-6.702,56.222,32.167,109.906,87.614,121.404c19.258,3.951,38.234,3.104,56.999-2.54
		c2.045-0.635,4.444-0.916,6.561-0.564c3.81,0.636,6.137,3.951,6.137,7.761c0,3.739-2.539,6.771-6.208,7.759
		c-10.298,2.752-20.598,5.291-31.32,5.785c-0.353,0-0.636,0.212-0.916,0.353c-5.009,0-10.018,0-15.026,0
		c-0.706-0.141-1.482-0.282-2.187-0.424c-5.996-0.846-12.063-1.41-17.988-2.68C50.226,242.315,10.37,200.695,1.975,150.256
		c-0.776-4.726-1.34-9.522-1.975-14.32c0-5.148,0-10.299,0-15.519c0.141-0.776,0.353-1.623,0.423-2.398
		c0.847-10.723,2.821-21.304,6.56-31.392c16.79-45.641,49.098-73.646,96.503-84.157C109.059,1.2,114.844,0.776,120.487,0
		c5.008,0,10.018,0,15.026,0c0.845,0.142,1.621,0.283,2.469,0.424c6.489,0.987,13.05,1.622,19.399,3.104
		c50.227,11.851,87.896,52.061,96.714,102.851c0.775,4.656,1.27,9.382,1.904,14.039C255.93,125.425,255.93,130.434,255.93,135.442z"
		/>
	<path d="M150.68,152.091c-7.267-0.071-12.627-2.61-17.142-7.055c-7.267-7.337-14.603-14.603-21.869-21.938
		c-4.656-4.656-9.453-3.951-12.486,1.834c-8.677,16.507-17.283,33.014-25.889,49.521c-1.764,3.315-1.623,5.713,0.423,7.829
		c2.046,2.117,4.656,2.328,7.972,0.564c13.755-7.266,27.511-14.462,41.338-21.727c4.091-2.187,8.888-0.706,10.863,3.316
		c1.976,3.879,0.425,8.534-3.668,10.581c-15.308,7.688-30.615,15.377-45.994,22.926c-13.544,6.631-28.922-3.387-28.076-18.412
		c0.141-2.821,1.128-5.713,2.398-8.323c8.959-18.2,18.059-36.33,27.159-54.53c6.984-13.968,25.043-17.072,36.259-6.137
		c7.547,7.336,14.884,14.813,22.292,22.221c4.938,4.867,9.593,4.232,12.768-1.905c8.677-16.577,17.354-33.154,26.03-49.732
		c2.116-4.021,0.423-8.253-3.668-8.958c-1.411-0.282-3.174,0.141-4.515,0.846c-13.756,7.125-27.44,14.32-41.127,21.516
		c-4.655,2.469-9.382,1.27-11.569-2.963c-2.117-4.163-0.282-8.606,4.374-10.864c15.025-7.478,30.051-15.026,45.077-22.503
		c11.145-5.573,23.984-0.071,27.582,11.64c1.482,4.726,1.199,9.382-1.058,13.826c-9.382,18.906-18.624,37.952-28.358,56.716
		C165.705,148.141,158.58,151.88,150.68,152.091z"/>
	<path d="M135.936,47.969c-4.373,0-7.899-3.527-7.971-7.9c0-4.444,3.598-8.113,8.042-8.113c4.303,0,7.899,3.598,7.971,7.901
		C144.048,44.372,140.38,47.969,135.936,47.969z"/>
	<path d="M40.139,127.965c-4.515,0.07-8.112-3.457-8.112-7.972c0-4.303,3.527-7.971,7.83-8.042c4.444-0.071,8.112,3.527,8.112,8.042
		C48.04,124.367,44.513,127.965,40.139,127.965z"/>
	<path d="M216.072,144.048c-4.374,0.071-7.971-3.386-8.041-7.759c-0.071-4.515,3.456-8.183,7.899-8.254
		c4.375-0.07,8.113,3.669,8.113,8.042C223.974,140.451,220.446,143.978,216.072,144.048z"/>
	<path d="M120.063,224.044c-4.374,0-7.971-3.386-8.042-7.76c-0.071-4.444,3.457-8.183,7.9-8.183c4.374-0.07,8.114,3.668,8.042,8.112
		C127.965,220.517,124.438,224.044,120.063,224.044z"/>
</g>
</svg>
