<?xml version="1.0" encoding="utf-8"?>
<!-- Generator: Adobe Illustrator 16.0.3, SVG Export Plug-In . SVG Version: 6.00 Build 0)  -->
<!DOCTYPE svg PUBLIC "-//W3C//DTD SVG 1.1//EN" "http://www.w3.org/Graphics/SVG/1.1/DTD/svg11.dtd">
<svg version="1.1" id="Слой_1" xmlns="http://www.w3.org/2000/svg" xmlns:xlink="http://www.w3.org/1999/xlink" x="0px" y="0px"
	 width="256px" height="256px" viewBox="0 0 256 256" enable-background="new 0 0 256 256" xml:space="preserve">
<g>
	<path fill-rule="evenodd" clip-rule="evenodd" d="M247.763,106.453c-6.213-6.163-12.364-12.388-18.577-18.538
		c-3.488-3.463-5.251-7.55-5.227-12.513c0.063-12.987,0.025-25.987,0.013-38.987c-0.013-11.463-8.775-20.275-20.24-20.325
		c-7.825-0.025-15.652,0-23.479,0.012c-5.426,0.013-10.076,1.925-14.002,5.65c-0.524,0.488-1.063,0.95-1.699,1.525
		c-4.727-4.725-9.277-9.35-13.903-13.913C138.222-2.909,118.1-3.209,105.811,9.016c-32.367,32.2-64.653,64.462-96.839,96.825
		c-13.002,13.075-11.627,34.85,2.544,46.649c3.919,3.274,8.47,5.149,13.233,6.774c5.238,1.8,7.301,4.9,7.301,10.313
		c0.012,18.162-0.05,36.313,0.038,54.476c0.063,14.387,9.401,26.675,23.116,30.637c1.744,0.513,3.526,0.875,5.295,1.313
		c10.17,0,20.334,0,30.498,0c1.119-0.313,2.232-0.612,3.351-0.925c10.345-2.838,17.565-12.1,17.608-22.813
		c0.063-15.324,0.219-30.663-0.069-45.987c-0.131-6.65,3.413-10.851,10.496-10.338c4.226,0.3,8.489,0.05,12.74,0.05
		c5.738,0,8.926,3.213,8.926,9c0,15.25,0,30.501,0,45.738c0,13.063,7.301,22.1,20.054,24.887c0.3,0.075,0.6,0.25,0.899,0.388
		c10.164,0,20.328,0,30.505,0c0.55-0.162,1.088-0.388,1.65-0.487c14.727-2.35,26.378-14.85,26.678-29.688
		c0.4-19.324,0.138-38.662,0.101-57.987c0-3.45-2.25-6.287-5.426-7.35c-5.427-1.801-10.451,2.125-10.464,8.225
		c-0.024,18.25-0.013,36.488-0.013,54.737c0,9.613-6.926,16.575-16.502,16.588c-7.501,0-15.002,0-22.504,0
		c-5.901,0-9.051-3.175-9.051-9.125c0-16.825,0-33.663,0-50.488c-0.013-11.612-8.802-20.362-20.428-20.374
		c-7.502-0.013-15.003,0-22.498,0.012c-12.489,0-20.984,8.525-20.997,21.05c-0.019,16.675,0.006,33.326-0.006,50.001
		c-0.006,5.75-3.207,8.912-9.008,8.925c-7.332,0.013-14.665,0.013-21.997,0c-10.301-0.013-17.071-6.8-17.064-17.05
		c0.012-18.25,0.006-36.488-0.006-54.738c-0.006-7.287-2.769-13.462-7.795-18.624c-3.219-3.301-6.989-5.438-11.839-5.726
		c-2.013-0.112-4.188-1.237-5.864-2.462c-7.838-5.788-8.813-17.8-1.95-24.675c32.011-32.1,64.065-64.137,96.151-96.15
		c6.419-6.425,16.146-6.35,22.672-0.013c3.1,3.013,6.151,6.113,9.201,9.175c5.476,5.476,10.989,10.938,16.428,16.463
		c2.125,2.15,4.487,3.25,7.4,2c2.788-1.188,3.775-3.575,3.601-6.512c-0.025-0.337-0.013-0.663-0.013-1
		c0.05-5.413,3.301-8.675,8.739-8.701c4.838-0.025,9.676-0.012,14.502-0.012c5.563,0.025,8.826,3.3,8.826,8.875
		c0,7.087,0,14.175,0,21.25c0,4.575-0.037,9.163,0.013,13.75c0.101,8.887,3.088,16.675,9.551,22.837
		c5.964,5.688,12.202,11.088,18.328,16.601c2.1,1.887,3.838,3.787,4.551,6.837c1.412,6.063,9.051,7.862,13.239,3.35
		c0.938-1.012,1.537-2.325,2.287-3.487c0-1.5,0-3,0-4.5C254.264,113.078,251.063,109.741,247.763,106.453z"/>
	<path fill-rule="evenodd" clip-rule="evenodd" d="M231.961,144.077c-4.363,0.013-7.939,3.613-7.927,7.988
		c0.025,4.362,3.639,7.949,8.002,7.912c4.375-0.038,7.938-3.612,7.926-7.987C239.938,147.64,236.323,144.053,231.961,144.077z"/>
</g>
</svg>
