<?xml version="1.0" encoding="utf-8"?>
<!-- Generator: Adobe Illustrator 16.0.3, SVG Export Plug-In . SVG Version: 6.00 Build 0)  -->
<!DOCTYPE svg PUBLIC "-//W3C//DTD SVG 1.1//EN" "http://www.w3.org/Graphics/SVG/1.1/DTD/svg11.dtd">
<svg version="1.1" id="Слой_1" xmlns="http://www.w3.org/2000/svg" xmlns:xlink="http://www.w3.org/1999/xlink" x="0px" y="0px"
	 width="256px" height="30.976px" viewBox="0 0 256 30.976" enable-background="new 0 0 256 30.976" xml:space="preserve">
<g id="Logo" display="none">
	<path display="inline" d="M15.33,137.997c-0.397,0.099-0.744,0.148-1.042,0.148c-0.943,0-1.588-0.248-1.935-0.694
		s-0.546-1.092-0.595-1.885c1.339-0.547,2.431-1.488,3.225-2.779c0.794-1.339,1.191-2.977,1.191-4.911
		c0-1.29-0.149-2.48-0.496-3.522c-0.348-1.042-0.844-1.885-1.489-2.629c-0.645-0.695-1.389-1.24-2.332-1.588
		c-0.893-0.396-1.935-0.545-3.076-0.545c-1.091,0-2.133,0.198-3.026,0.545c-0.942,0.348-1.687,0.893-2.332,1.588
		c-0.645,0.744-1.141,1.637-1.488,2.629c-0.348,1.042-0.496,2.183-0.496,3.473c0,1.34,0.148,2.48,0.496,3.522
		c0.347,1.042,0.843,1.886,1.488,2.58s1.438,1.24,2.332,1.638c0.893,0.347,1.935,0.545,3.076,0.545c0.149,0,0.298,0,0.446,0
		c0.149,0,0.348-0.049,0.496-0.049c0.05,1.289,0.496,2.232,1.241,2.927c0.744,0.694,1.736,1.042,2.977,1.042
		c0.446,0,0.843,0,1.29-0.05c0.397-0.05,0.843-0.099,1.29-0.248v-1.935h-0.297C16.025,137.799,15.727,137.897,15.33,137.997z
		 M8.781,134.275c-1.587,0-2.828-0.545-3.771-1.686c-0.942-1.092-1.389-2.729-1.389-4.813c0-2.084,0.447-3.671,1.389-4.763
		c0.943-1.141,2.183-1.687,3.82-1.687c1.587,0,2.877,0.546,3.771,1.687c0.943,1.141,1.389,2.729,1.389,4.763
		c0,2.083-0.446,3.671-1.389,4.813C11.609,133.73,10.369,134.275,8.781,134.275z M27.237,132.738
		c-0.546,0.396-1.092,0.744-1.736,1.041c-0.596,0.248-1.191,0.397-1.687,0.397c-0.595,0-1.042-0.05-1.339-0.198
		c-0.298-0.148-0.546-0.348-0.745-0.695c-0.198-0.297-0.297-0.693-0.347-1.091c-0.049-0.446-0.099-0.942-0.099-1.538v-6.797H19.25
		v7.739c0,1.489,0.347,2.63,1.042,3.374c0.694,0.744,1.687,1.141,2.927,1.141c0.744,0,1.438-0.148,2.034-0.446
		c0.645-0.298,1.29-0.694,1.935-1.24v1.339h2.084v-11.906h-2.034V132.738z M41.129,124.453c-0.447-0.347-0.993-0.595-1.637-0.694
		c-0.645-0.149-1.34-0.199-2.183-0.199c-0.744,0-1.439,0.05-2.183,0.199s-1.29,0.248-1.687,0.347v2.034h0.099
		c0.694-0.248,1.339-0.447,2.034-0.596c0.645-0.148,1.24-0.198,1.786-0.198c0.447,0,0.844,0.05,1.241,0.099
		c0.396,0.05,0.744,0.149,1.042,0.347c0.298,0.149,0.546,0.397,0.695,0.695s0.248,0.695,0.248,1.141v0.298
		c-1.191,0.049-2.282,0.148-3.274,0.248c-1.042,0.099-1.885,0.348-2.629,0.645c-0.744,0.298-1.29,0.744-1.687,1.34
		c-0.397,0.546-0.595,1.29-0.595,2.183c0,1.092,0.397,2.034,1.141,2.729c0.694,0.693,1.587,1.041,2.679,1.041
		c0.595,0,1.091-0.049,1.538-0.148c0.447-0.1,0.844-0.248,1.141-0.396c0.298-0.149,0.596-0.299,0.893-0.496
		c0.298-0.199,0.546-0.397,0.744-0.496v1.289h1.985v-8.186c0-0.794-0.1-1.439-0.348-1.935S41.575,124.8,41.129,124.453z
		 M40.484,132.838c-0.496,0.396-1.042,0.693-1.637,0.992c-0.596,0.297-1.241,0.396-1.935,0.396c-0.843,0-1.488-0.148-1.885-0.496
		s-0.645-0.844-0.645-1.538c0-0.596,0.198-1.092,0.546-1.438c0.347-0.348,0.843-0.596,1.389-0.744
		c0.496-0.149,1.141-0.248,1.984-0.299c0.843-0.049,1.538-0.148,2.183-0.148V132.838z M46.388,135.764h2.034v-16.62h-2.034V135.764z
		 M52.292,121.823h2.282v-2.083h-2.282V121.823z M52.391,135.764h2.034v-11.906h-2.034V135.764z M60.428,120.434h-2.034v3.423h-1.34
		v1.687h1.34v6.351c0,1.439,0.297,2.48,0.942,3.176c0.645,0.645,1.538,0.992,2.778,0.992c0.347,0,0.744-0.051,1.19-0.1
		c0.447-0.05,0.844-0.148,1.241-0.248v-1.786h-0.05c-0.149,0.05-0.397,0.149-0.794,0.248c-0.347,0.099-0.694,0.149-1.042,0.149
		c-0.546,0-0.992-0.051-1.241-0.199c-0.297-0.148-0.496-0.348-0.645-0.645c-0.149-0.298-0.248-0.645-0.298-0.992
		s-0.05-0.844-0.05-1.488v-5.458h4.167v-1.687h-4.167V120.434z M71.541,132.688l-3.671-8.831h-2.183l4.763,11.361l-2.232,4.961
		h2.133l6.945-16.322h-2.083L71.541,132.688z M84.093,119.888l-5.805,15.926h2.133l1.538-4.416h6.896l1.538,4.416h2.232
		l-5.805-15.926H84.093z M82.604,129.514l2.778-7.839l2.778,7.839H82.604z M100.564,129.166c-0.298-0.05-0.695-0.148-1.141-0.248
		c-0.447-0.1-0.893-0.148-1.24-0.248c-0.645-0.148-1.141-0.348-1.439-0.596s-0.446-0.645-0.446-1.091
		c0-0.546,0.248-0.992,0.744-1.24c0.496-0.298,1.141-0.447,1.835-0.447c0.695,0,1.439,0.149,2.183,0.397s1.339,0.596,1.885,0.943
		h0.099v-2.133c-0.496-0.248-1.091-0.447-1.835-0.645c-0.744-0.149-1.439-0.248-2.183-0.248s-1.439,0.099-2.083,0.298
		c-0.596,0.198-1.141,0.446-1.538,0.793s-0.744,0.744-0.943,1.141c-0.198,0.447-0.297,0.893-0.297,1.389
		c0,0.794,0.198,1.439,0.645,1.984c0.447,0.547,1.191,0.943,2.233,1.241c0.397,0.099,0.793,0.198,1.24,0.298
		c0.446,0.099,0.843,0.148,1.141,0.248c0.744,0.148,1.29,0.396,1.538,0.645s0.396,0.596,0.396,1.092c0,0.596-0.248,1.041-0.744,1.34
		c-0.496,0.297-1.19,0.445-2.083,0.445c-0.695,0-1.439-0.148-2.232-0.445c-0.794-0.299-1.489-0.646-2.133-1.142h-0.1v2.232
		c0.496,0.248,1.141,0.496,1.836,0.694c0.744,0.199,1.538,0.298,2.431,0.298c1.538,0,2.778-0.347,3.671-1.042
		c0.893-0.694,1.34-1.588,1.34-2.679c0-0.894-0.248-1.588-0.744-2.084C102.202,129.711,101.507,129.364,100.564,129.166z
		 M111.975,129.166c-0.297-0.05-0.694-0.148-1.141-0.248c-0.446-0.1-0.893-0.148-1.24-0.248c-0.645-0.148-1.141-0.348-1.438-0.596
		c-0.298-0.248-0.447-0.645-0.447-1.091c0-0.546,0.248-0.992,0.744-1.24c0.496-0.298,1.141-0.447,1.836-0.447
		c0.694,0,1.438,0.149,2.183,0.397s1.34,0.596,1.885,0.943h0.099v-2.133c-0.496-0.248-1.091-0.447-1.835-0.645
		c-0.744-0.149-1.439-0.248-2.183-0.248s-1.438,0.099-2.083,0.298c-0.595,0.198-1.141,0.446-1.538,0.793s-0.744,0.744-0.942,1.141
		c-0.199,0.447-0.298,0.893-0.298,1.389c0,0.794,0.198,1.439,0.645,1.984c0.446,0.547,1.19,0.943,2.232,1.241
		c0.397,0.099,0.794,0.198,1.24,0.298c0.447,0.099,0.844,0.148,1.141,0.248c0.744,0.148,1.29,0.396,1.538,0.645
		s0.397,0.596,0.397,1.092c0,0.596-0.248,1.041-0.744,1.34c-0.496,0.297-1.191,0.445-2.084,0.445c-0.694,0-1.438-0.148-2.232-0.445
		c-0.794-0.299-1.488-0.646-2.133-1.142h-0.099v2.232c0.496,0.248,1.141,0.496,1.835,0.694c0.744,0.199,1.538,0.298,2.431,0.298
		c1.538,0,2.778-0.347,3.671-1.042c0.893-0.694,1.339-1.588,1.339-2.679c0-0.894-0.248-1.588-0.744-2.084
		C113.612,129.711,112.918,129.364,111.975,129.166z M125.668,132.738c-0.546,0.396-1.092,0.744-1.737,1.041
		c-0.595,0.248-1.19,0.397-1.687,0.397c-0.596,0-1.042-0.05-1.34-0.198c-0.297-0.148-0.545-0.348-0.744-0.695
		c-0.198-0.297-0.297-0.693-0.347-1.091c-0.05-0.446-0.099-0.942-0.099-1.538v-6.797h-1.984v7.739c0,1.489,0.347,2.63,1.042,3.374
		c0.695,0.744,1.687,1.141,2.927,1.141c0.744,0,1.439-0.148,2.034-0.446c0.645-0.298,1.29-0.694,1.935-1.24v1.339h2.034v-11.906
		h-2.034V132.738z M137.575,123.857c-0.646,0-1.24,0.149-1.886,0.397c-0.595,0.248-1.289,0.744-2.133,1.339v-1.786h-2.034v11.956
		h2.034v-8.483c0.546-0.447,1.092-0.794,1.688-1.042c0.595-0.298,1.189-0.397,1.785-0.397c0.396,0,0.695,0,0.992,0.05
		c0.298,0.049,0.596,0.099,0.893,0.149h0.1v-2.084c-0.297-0.049-0.545-0.099-0.694-0.099
		C138.221,123.857,137.922,123.857,137.575,123.857z M148.838,124.453c-0.447-0.347-0.993-0.595-1.638-0.694
		c-0.646-0.149-1.34-0.199-2.183-0.199c-0.744,0-1.439,0.05-2.184,0.199s-1.289,0.248-1.687,0.347v2.034h0.099
		c0.695-0.248,1.34-0.447,2.035-0.596c0.645-0.148,1.24-0.198,1.785-0.198c0.447,0,0.844,0.05,1.24,0.099
		c0.397,0.05,0.744,0.149,1.042,0.347c0.298,0.149,0.546,0.397,0.694,0.695c0.149,0.298,0.248,0.695,0.248,1.141v0.298
		c-1.19,0.049-2.281,0.148-3.273,0.248c-1.043,0.099-1.886,0.348-2.63,0.645c-0.744,0.298-1.29,0.744-1.638,1.34
		c-0.396,0.546-0.595,1.29-0.595,2.183c0,1.092,0.396,2.034,1.142,2.729c0.744,0.693,1.637,1.091,2.729,1.091
		c0.595,0,1.091-0.05,1.537-0.149c0.447-0.099,0.844-0.248,1.142-0.396s0.595-0.297,0.893-0.496
		c0.298-0.198,0.546-0.396,0.745-0.496v1.29h1.984v-8.235c0-0.794-0.1-1.439-0.348-1.935
		C149.631,125.247,149.283,124.8,148.838,124.453z M148.242,132.838c-0.496,0.396-1.042,0.693-1.638,0.992
		c-0.595,0.297-1.24,0.396-1.935,0.396c-0.844,0-1.488-0.148-1.885-0.496c-0.397-0.348-0.646-0.844-0.646-1.538
		c0-0.596,0.198-1.092,0.546-1.438c0.348-0.348,0.844-0.596,1.389-0.744c0.496-0.149,1.141-0.248,1.984-0.299
		c0.844-0.049,1.538-0.148,2.184-0.148V132.838L148.242,132.838z M160.1,123.51c-0.695,0-1.39,0.148-2.084,0.446
		c-0.695,0.298-1.34,0.695-1.936,1.24v-1.339h-1.984v11.957h1.984v-8.931c0.547-0.397,1.142-0.744,1.736-1.042
		c0.596-0.248,1.191-0.397,1.737-0.397s0.992,0.05,1.29,0.199c0.348,0.148,0.596,0.347,0.793,0.645
		c0.149,0.248,0.299,0.645,0.348,1.141c0.05,0.496,0.1,0.992,0.1,1.537v6.797h2.033v-7.739c0-1.439-0.347-2.58-0.992-3.374
		C162.381,123.907,161.389,123.51,160.1,123.51z M172.949,123.56c-1.736,0-3.176,0.546-4.268,1.687
		c-1.091,1.091-1.587,2.629-1.587,4.614c0,1.042,0.148,1.984,0.446,2.729c0.298,0.793,0.695,1.438,1.191,1.934
		s1.141,0.894,1.835,1.142c0.744,0.248,1.488,0.397,2.382,0.397c0.694,0,1.34-0.1,1.935-0.248c0.595-0.199,1.24-0.447,1.886-0.744
		v-2.232h-0.1c-0.148,0.099-0.348,0.248-0.596,0.445c-0.248,0.149-0.545,0.348-0.844,0.496c-0.347,0.149-0.693,0.299-1.141,0.397
		c-0.396,0.099-0.844,0.149-1.24,0.149c-1.191,0-2.084-0.397-2.729-1.142c-0.645-0.794-0.992-1.886-0.992-3.324
		c0-1.488,0.348-2.629,0.992-3.374s1.537-1.141,2.679-1.141c0.646,0,1.24,0.149,1.886,0.397c0.645,0.248,1.289,0.645,1.885,1.091
		h0.1v-2.232c-0.546-0.298-1.141-0.496-1.836-0.694C174.338,123.659,173.644,123.56,172.949,123.56z M189.371,128.918
		c0-1.736-0.447-3.076-1.291-4.019c-0.893-0.943-2.133-1.389-3.721-1.389c-1.736,0-3.125,0.595-4.217,1.736
		c-1.042,1.141-1.588,2.679-1.588,4.664s0.546,3.522,1.688,4.564c1.092,1.092,2.679,1.588,4.663,1.588
		c0.794,0,1.538-0.1,2.233-0.299c0.693-0.197,1.389-0.445,2.083-0.693v-2.184h-0.198c-0.348,0.298-0.943,0.645-1.736,0.943
		c-0.844,0.347-1.638,0.496-2.432,0.496c-0.596,0-1.19-0.1-1.687-0.248c-0.496-0.149-0.942-0.447-1.339-0.795
		c-0.397-0.347-0.695-0.793-0.894-1.339s-0.347-1.19-0.347-1.935h8.781V128.918z M180.539,128.471
		c0.1-0.942,0.447-1.736,1.092-2.381s1.488-0.942,2.58-0.942s1.885,0.297,2.381,0.843c0.547,0.595,0.795,1.389,0.795,2.431h-6.848
		V128.471z"/>
	<path display="inline" d="M194.53,124.205c0.099-0.347,0.198-0.645,0.298-0.942c0.1-0.298,0.198-0.546,0.248-0.794
		c0.049-0.199,0.1-0.347,0.1-0.496c0.049-0.099,0.049-0.199,0.099-0.248c0.149-0.199,0.248-0.447,0.347-0.645
		c0.1-0.248,0.199-0.496,0.299-0.794c0.248-0.347,0.396-0.595,0.595-0.893c0.149-0.248,0.298-0.496,0.397-0.645
		c0.099-0.148,0.197-0.297,0.297-0.396c0.05-0.1,0.149-0.199,0.199-0.248c0.347-0.447,0.645-0.794,0.893-1.042
		c0.248-0.298,0.446-0.496,0.596-0.595c0.297-0.249,0.596-0.447,0.942-0.546c0.347-0.149,0.694-0.199,1.091-0.199
		c0.744,0,1.34,0.298,1.836,0.893c0.496,0.596,0.894,1.489,1.191,2.679c0.049,0.298,0.148,0.695,0.248,1.141
		c0,0.248,0.049,0.447,0.148,0.595c0.1,0.149,0.248,0.199,0.496,0.199c0.348,0,0.794-0.298,1.389-0.844
		c0.596-0.545,0.894-1.042,0.894-1.438c0-0.199-0.099-0.546-0.298-1.042c-0.198-0.496-0.348-0.794-0.446-0.992
		c-0.149-0.496-0.298-0.794-0.347-0.943c-0.149-0.198-0.348-0.446-0.646-0.843c-0.298-0.347-0.496-0.645-0.694-0.843
		c-0.199-0.199-0.298-0.298-0.397-0.347c-0.248-0.1-0.496-0.199-0.744-0.298s-0.496-0.198-0.744-0.248l-0.248,0.099l-0.496-0.149
		l-1.488,0.199c-0.298,0.099-0.546,0.198-0.794,0.297c-0.198,0.1-0.396,0.199-0.596,0.298c-0.347,0.199-0.645,0.347-0.942,0.546
		c-0.298,0.198-0.546,0.347-0.794,0.545c-0.1,0.1-0.248,0.248-0.545,0.496c-0.299,0.248-0.646,0.596-1.043,0.993
		c-1.24,1.19-2.232,2.58-2.977,4.167c-0.744,1.587-1.289,3.374-1.537,5.408l-0.348,2.43c0.049,0.348,0.049,0.695,0.049,0.992
		c0,0.299-0.099,0.596-0.197,0.844c0.148,0.596,0.297,1.092,0.396,1.488c0.1,0.397,0.198,0.646,0.248,0.795
		c0.148,0.396,0.396,0.793,0.596,1.091c0.248,0.298,0.496,0.546,0.744,0.794c0.297,0.248,0.596,0.396,0.893,0.496
		c0.248,0.1,0.546,0.198,0.744,0.198c0.148-0.05,0.348-0.05,0.546-0.099l0.694,0.148c0.447-0.05,0.943-0.199,1.34-0.396
		c0.446-0.199,0.893-0.397,1.34-0.695c0.198-0.148,0.496-0.348,0.893-0.645c0.396-0.298,0.844-0.695,1.389-1.191
		c0.248-0.248,0.547-0.496,0.943-0.744c0.1,0,0.148,0,0.148,0.05c0.05,0.05,0.05,0.1,0.05,0.149c-0.05,0.148-0.05,0.297-0.099,0.446
		l0.197,1.042c-0.148,0.694-0.297,1.24-0.396,1.736c-0.1,0.446-0.148,0.793-0.148,1.041c0,0.397-0.05,0.795-0.05,1.092
		c-0.05,0.298-0.05,0.546-0.099,0.695c-0.1,0.347-0.149,0.645-0.199,0.893c-0.049,0.248-0.049,0.396-0.049,0.496
		c0,0.298,0.049,0.496,0.099,0.645c0.099,0.149,0.198,0.199,0.347,0.199c0.199,0,0.348-0.05,0.447-0.199
		c0.1-0.148,0.198-0.297,0.248-0.545c0.248-0.1,0.496-0.148,0.645-0.248s0.248-0.148,0.348-0.199c0.1-0.099,0.198-0.248,0.248-0.396
		c0.049-0.148,0.1-0.348,0.148-0.596c0.05-0.347,0.1-0.645,0.199-0.893c0.049-0.248,0.099-0.396,0.197-0.496
		c0.199-0.396,0.348-0.992,0.447-1.786c0.148-0.794,0.298-1.39,0.446-1.786c0.149-0.297,0.248-0.596,0.348-0.992
		c0.099-0.396,0.148-0.794,0.148-1.29c0.05-0.396,0.1-0.744,0.149-0.992c0.049-0.298,0.099-0.546,0.099-0.744
		c0-0.149,0.05-0.298,0.149-0.546c0.099-0.248,0.099-0.396,0.099-0.545c0-0.397-0.099-0.695-0.347-0.893
		c-0.199-0.199-0.546-0.298-0.992-0.298c-0.348,0-0.646,0.05-0.894,0.199c-0.298,0.149-0.546,0.347-0.744,0.645
		c-0.198,0.248-0.347,0.545-0.546,0.793c-0.198,0.298-0.348,0.546-0.596,0.843c-0.197,0.199-0.347,0.348-0.496,0.546
		c-0.148,0.149-0.297,0.298-0.396,0.347c-0.496,0.547-0.893,0.943-1.19,1.241s-0.496,0.496-0.596,0.595
		c-0.347,0.248-0.694,0.496-1.091,0.646c-0.397,0.149-0.795,0.248-1.24,0.248c-0.299,0-0.596-0.05-0.844-0.149
		c-0.248-0.099-0.447-0.197-0.596-0.396c-0.1-0.1-0.198-0.298-0.348-0.496c-0.099-0.248-0.248-0.546-0.396-0.844
		c-0.198-0.446-0.297-0.942-0.396-1.389c-0.1-0.447-0.1-0.943-0.1-1.389c0-0.199,0.05-0.645,0.1-1.34
		C194.232,126.289,194.332,125.396,194.53,124.205z M242.108,131.051c-0.099,0.05-0.198,0.05-0.298,0.05
		c-0.297,0-0.496-0.099-0.645-0.298c-0.148-0.198-0.199-0.496-0.199-0.893c0-0.1-0.049-0.298-0.049-0.496
		c-0.05-0.248-0.05-0.396-0.05-0.496c0-0.298,0-0.546-0.05-0.744c0-0.199-0.049-0.298-0.1-0.397
		c-0.049-0.149-0.197-0.248-0.347-0.298c-0.149-0.049-0.397-0.099-0.694-0.099c-0.298,0-0.596,0.149-0.844,0.397
		s-0.496,0.645-0.694,1.141c-0.099,0.1-0.198,0.248-0.298,0.348c-0.1,0.099-0.198,0.197-0.248,0.297
		c-0.198,0.298-0.396,0.596-0.596,0.894c-0.347,0.396-0.645,0.744-0.893,1.091c-0.248,0.298-0.447,0.546-0.645,0.744
		c-0.199,0.1-0.397,0.248-0.547,0.299c-0.148,0.099-0.297,0.148-0.396,0.248c-0.1,0.049-0.198-0.1-0.248-0.397
		c-0.049-0.298-0.1-0.744-0.1-1.34c0-0.347,0.051-0.694,0.1-1.091c0.05-0.397,0.148-0.795,0.248-1.291
		c0.1-0.347,0.199-0.744,0.348-1.141c0.1-0.396,0.198-0.744,0.297-1.141c0.1-0.248,0.199-0.446,0.248-0.645
		c0.051-0.148,0.1-0.248,0.1-0.396c0.05-0.1,0.05-0.199,0.05-0.298c0-0.198-0.05-0.347-0.149-0.446
		c-0.099-0.1-0.197-0.149-0.396-0.149c-0.1,0-0.248,0.049-0.496,0.149c-0.248,0.099-0.596,0.248-0.992,0.446
		c-0.248,0.347-0.496,0.694-0.744,1.042c-0.248,0.347-0.446,0.694-0.694,0.992c-0.298,0.347-0.546,0.645-0.843,0.992
		c-0.248,0.347-0.497,0.646-0.745,0.992c-0.298,0.347-0.546,0.646-0.794,0.942c-0.248,0.298-0.446,0.496-0.645,0.646
		c0,0.05,0,0.099-0.05,0.148s-0.05,0.1-0.099,0.1l0,0c-0.1,0.099-0.248,0.198-0.299,0.248c-0.099,0.05-0.197,0.099-0.248,0.099
		c-0.099,0-0.148-0.049-0.197-0.099c-0.051-0.05-0.1-0.149-0.149-0.298c0.099-0.1,0.248-0.248,0.347-0.446
		c0.149-0.198,0.248-0.497,0.348-0.794c0.1-0.298,0.148-0.546,0.199-0.794c0.049-0.248,0.049-0.446,0.049-0.645
		c0-0.992-0.198-1.687-0.596-2.183c-0.396-0.497-0.992-0.745-1.785-0.745c-0.1,0-0.248,0.05-0.496,0.149s-0.645,0.199-1.141,0.397
		l-0.1-0.149c0.1-0.248,0.248-0.496,0.348-0.744c0-0.099-0.1-0.198-0.199-0.248c-0.148-0.049-0.297-0.099-0.545-0.099
		c-0.199,0-0.397,0.05-0.596,0.149c-0.199,0.099-0.348,0.198-0.546,0.347c-0.149,0.149-0.298,0.298-0.446,0.496
		c-0.149,0.149-0.299,0.347-0.447,0.496c-0.148,0.099-0.248,0.248-0.446,0.347c-0.149,0.149-0.298,0.248-0.446,0.397
		c-0.199,0.149-0.348,0.298-0.447,0.447c-0.148,0.149-0.197,0.297-0.248,0.397c-0.445,0.396-0.843,0.744-1.189,1.041
		c-0.299,0.299-0.547,0.547-0.695,0.695l-1.24,0.844c-0.1,0.148-0.198,0.297-0.298,0.396c-0.099,0.148-0.148,0.248-0.248,0.298l0,0
		c-0.148,0.148-0.298,0.248-0.446,0.298c-0.1,0.049-0.446,0.347-1.042,0.942c-0.248,0.198-0.446,0.397-0.646,0.496
		c-0.197,0.149-0.347,0.198-0.496,0.198c-0.049,0-0.099,0-0.148-0.049c-0.049-0.051-0.049-0.1-0.049-0.149
		c0-0.397,0.148-1.042,0.496-1.836c0.347-0.794,0.496-1.438,0.496-1.835c0-0.844-0.1-1.539-0.348-2.084
		c-0.199-0.595-0.546-1.042-0.992-1.339c-0.05-0.05-0.148-0.099-0.248-0.198c-0.248-0.248-0.496-0.447-0.744-0.695
		c-0.248-0.198-0.546-0.347-0.943-0.347c-0.347,0-0.793,0.198-1.339,0.546c-0.546,0.347-0.894,0.694-1.042,0.942l0.148,0.794
		c-0.248,0.496-0.596,1.091-1.092,1.687c-0.496,0.596-1.141,1.24-1.934,1.885c-0.149,0.249-0.348,0.497-0.496,0.695
		c0.148,0.248,0.248,0.496,0.347,0.744s0.198,0.496,0.298,0.744c0.1-0.1,0.148-0.198,0.198-0.298
		c0.05-0.099,0.099-0.148,0.099-0.198c0.348-0.248,0.646-0.446,0.844-0.645c0.199-0.199,0.396-0.397,0.447-0.546
		c0.148-0.1,0.347-0.248,0.595-0.496c0.248-0.249,0.546-0.546,0.844-0.942c0.298-0.348,0.595-0.646,0.843-0.894
		c0.299-0.248,0.547-0.446,0.795-0.546c0.347,0.05,0.645,0.199,0.793,0.496c0.199,0.298,0.248,0.744,0.248,1.34
		c0,0.446-0.049,0.992-0.198,1.588c-0.099,0.595-0.298,1.24-0.546,1.885c-0.049,0.148-0.1,0.298-0.198,0.447
		c-0.099,0.148-0.149,0.297-0.198,0.445c-0.1,0.199-0.148,0.348-0.199,0.496c-0.049,0.149-0.049,0.299-0.049,0.397
		c0,0.298,0.1,0.546,0.348,0.646c0.248,0.148,0.545,0.197,1.041,0.197c0.298-0.099,0.546-0.197,0.744-0.347
		c0.844-0.496,1.538-0.942,2.133-1.339c0.596-0.397,1.092-0.695,1.439-0.992c0.148-0.149,0.298-0.299,0.447-0.397
		c0.148-0.099,0.248-0.198,0.347-0.298l0,0c0.099-0.1,0.149-0.198,0.198-0.298c0.05-0.099,0.1-0.148,0.1-0.198
		c0.396-0.298,0.694-0.546,0.893-0.694c0.199-0.149,0.348-0.248,0.396-0.248c0.1,0,0.149,0,0.199,0.05
		c0.049,0.049,0.049,0.099,0.049,0.198c0,0.099-0.049,0.347-0.197,0.744c-0.149,0.397-0.199,0.794-0.199,1.042
		c0,0.645,0.248,1.24,0.744,1.736s1.042,0.793,1.688,0.793c0.099,0,0.248,0,0.396-0.049c0.148-0.05,0.248-0.05,0.298-0.05
		c0.198,0,0.396-0.05,0.595-0.099c0.199-0.051,0.447-0.149,0.744-0.299c0.447-0.197,0.894-0.445,1.291-0.744
		c0.396-0.297,0.693-0.645,0.992-0.992c0.099,0.199,0.248,0.397,0.396,0.496c0.148,0.1,0.348,0.199,0.596,0.199
		c0.197,0,0.445-0.05,0.645-0.148c0.248-0.1,0.446-0.248,0.694-0.447c0.198-0.148,0.397-0.297,0.596-0.446s0.396-0.347,0.546-0.496
		l0,0c0.148-0.149,0.248-0.298,0.297-0.397c0.1-0.099,0.149-0.198,0.149-0.297l0.942-0.943l0.1-0.049c0.1,0,0.148,0.099,0.148,0.248
		c0.05,0.148,0.05,0.396,0.1,0.694c0,0.05,0,0.248,0,0.546c0.049,0.297,0.1,0.744,0.198,1.34c0.099,0.595,0.298,1.041,0.595,1.339
		c0.299,0.298,0.695,0.446,1.191,0.446c0.348,0,0.694-0.1,1.092-0.297c0.396-0.199,0.744-0.547,1.141-0.992
		c0.298-0.348,0.596-0.695,0.893-0.992c0.299-0.348,0.596-0.695,0.894-1.043c0.149-0.148,0.298-0.297,0.397-0.446
		c0.099-0.148,0.248-0.298,0.347-0.396c0.099,0.148,0.198,0.248,0.248,0.396c0.05,0.149,0.099,0.248,0.149,0.397
		c0.148,0.545,0.396,0.992,0.744,1.24c0.347,0.297,0.793,0.446,1.339,0.446c0.198,0,0.496-0.099,0.942-0.298
		c0.397-0.198,0.943-0.496,1.588-0.893l-0.645-1.488C242.356,131.002,242.258,131.002,242.108,131.051z M217.551,131.646
		c-0.05-0.1-0.1-0.198-0.149-0.298C217.451,131.448,217.551,131.547,217.551,131.646c0.099,0.148,0.148,0.298,0.198,0.396
		C217.649,131.895,217.6,131.746,217.551,131.646z M226.432,130.258c-0.051,0.198-0.1,0.396-0.149,0.545
		c-0.05,0.149-0.149,0.248-0.198,0.298c-0.148,0.198-0.298,0.397-0.496,0.596c-0.348,0.546-0.744,0.942-1.191,1.24
		c-0.396,0.298-0.893,0.397-1.389,0.397c-0.298,0-0.546-0.1-0.695-0.248c-0.148-0.149-0.248-0.397-0.248-0.695
		c0-0.148,0.051-0.348,0.1-0.596c0.05-0.248,0.148-0.545,0.248-0.843c0.1-0.397,0.248-0.646,0.348-0.894
		c0.1-0.198,0.248-0.297,0.348-0.297c0.148-0.051,0.347-0.1,0.446-0.149c0.148-0.05,0.248-0.149,0.396-0.298
		c0.198-0.297,0.348-0.545,0.497-0.793c0.099-0.149,0.197-0.298,0.297-0.397s0.199-0.149,0.248-0.149
		c0.348,0.05,0.596,0.099,0.794,0.099c0.198,0.05,0.298,0.05,0.347,0.1c0.1,0.049,0.149,0.148,0.248,0.348
		c0.1,0.197,0.199,0.445,0.299,0.793L226.432,130.258z M253.867,130.952c-0.149,0-0.299-0.1-0.447-0.298s-0.297-0.447-0.446-0.744
		c-0.248-0.546-0.446-0.943-0.595-1.24c-0.149-0.298-0.248-0.496-0.299-0.596c-0.197-0.297-0.445-0.545-0.693-0.694
		s-0.547-0.248-0.844-0.248c-0.148,0-0.298,0.05-0.496,0.149c-0.199,0.099-0.447,0.297-0.695,0.545
		c-0.248,0.596-0.496,1.141-0.694,1.588c-0.198,0.446-0.397,0.844-0.595,1.141c-0.447,1.29-0.795,2.432-1.142,3.424
		s-0.595,1.785-0.843,2.431c0,0.149,0,0.298,0,0.496c-0.051,0.198-0.1,0.446-0.149,0.744c-0.05,0.348-0.099,0.596-0.198,0.744
		c-0.05,0.149-0.148,0.298-0.199,0.298l-0.049-0.148c0-0.1,0-0.397,0.1-0.794c0.099-0.397,0.197-0.942,0.396-1.638
		c0.049-0.348,0.148-0.694,0.148-0.942c0.05-0.248,0.05-0.496,0.1-0.694c0.297-1.389,0.596-2.58,0.844-3.522
		s0.445-1.687,0.645-2.183c0.744-2.134,1.29-3.821,1.687-5.011c0.397-1.191,0.546-1.885,0.546-2.084c0-0.397-0.05-0.694-0.148-0.843
		c-0.1-0.199-0.248-0.298-0.496-0.298c-0.149,0-0.298,0.05-0.447,0.199c-0.148,0.149-0.297,0.347-0.446,0.595
		c-0.149,0.347-0.298,0.645-0.446,0.942c-0.1,0.298-0.199,0.496-0.298,0.695c-0.347,0.744-0.694,1.538-1.19,2.332
		c-0.447,0.794-0.992,1.637-1.538,2.481c-0.099,0.198-0.198,0.397-0.248,0.496c-0.05,0.149-0.099,0.249-0.149,0.347
		c-0.496,0.496-0.893,0.942-1.24,1.339c-0.347,0.397-0.645,0.745-0.843,0.993c0.148,0.347,0.595,1.339,0.645,1.488
		c0.397-0.496,0.694-0.844,0.942-1.092s0.447-0.396,0.547-0.396c0,0.298,0,0.645,0,1.042c-0.051,0.396-0.1,0.793-0.199,1.24
		c-0.1,0.396-0.148,0.793-0.248,1.141c-0.1,0.396-0.148,0.744-0.198,1.141c-0.198,1.291-0.397,2.481-0.496,3.572
		c-0.1,1.092-0.149,2.134-0.149,3.076c0,0.596,0.1,1.092,0.248,1.39c0.149,0.298,0.397,0.446,0.744,0.446
		c0.149,0,0.299-0.1,0.496-0.348c0.199-0.198,0.447-0.545,0.695-0.992c0.148-0.348,0.248-0.645,0.297-0.893
		c0.051-0.248,0.1-0.447,0.149-0.596c0.05-0.248,0.198-0.596,0.397-1.092c0.248-0.496,0.347-0.843,0.396-1.091
		c0.198-0.694,0.348-1.29,0.496-1.786s0.297-0.943,0.446-1.24c0.099-0.396,0.149-0.794,0.248-1.191
		c0.099-0.248,0.198-0.496,0.298-0.693c0.1-0.199,0.198-0.397,0.248-0.547c0.248-0.744,0.546-1.389,0.794-1.835
		c0.248-0.496,0.496-0.794,0.744-0.942c0.248,0.099,0.546,0.347,0.942,0.793c0.396,0.447,0.695,0.744,0.992,0.794l1.092,0.397
		c0.446-0.1,0.744-0.148,0.992-0.199c0.248-0.049,0.396-0.099,0.446-0.099L253.867,130.952z"/>
</g>
<g>
	<path d="M14.113,24.883c-0.408,0.09-0.758,0.135-1.053,0.135c-0.952,0-1.608-0.227-1.968-0.68
		c-0.361-0.456-0.555-1.092-0.584-1.914c1.354-0.541,2.434-1.485,3.238-2.833c0.803-1.348,1.206-3.006,1.206-4.973
		c0-1.326-0.175-2.512-0.524-3.556c-0.351-1.045-0.853-1.929-1.508-2.65c-0.642-0.699-1.422-1.237-2.34-1.616
		C9.659,6.417,8.623,6.228,7.47,6.228c-1.109,0-2.136,0.188-3.075,0.563C3.453,7.165,2.666,7.706,2.032,8.412
		c-0.663,0.743-1.167,1.633-1.514,2.676C0.172,12.129,0,13.306,0,14.618c0,1.334,0.173,2.518,0.524,3.557
		c0.349,1.038,0.848,1.914,1.496,2.627c0.649,0.713,1.436,1.258,2.363,1.633c0.927,0.374,1.955,0.562,3.086,0.562
		c0.151,0,0.309-0.006,0.471-0.016c0.163-0.011,0.329-0.031,0.502-0.06c0.065,1.283,0.477,2.269,1.238,2.958
		c0.759,0.688,1.768,1.031,3.022,1.031c0.439,0,0.869-0.023,1.292-0.069c0.42-0.047,0.848-0.124,1.281-0.233V24.64h-0.292
		C14.811,24.712,14.521,24.792,14.113,24.883z M7.481,21.147c-1.599,0-2.876-0.56-3.828-1.681c-0.951-1.12-1.427-2.736-1.427-4.848
		c0-2.09,0.467-3.703,1.399-4.839C4.56,8.645,5.845,8.077,7.481,8.077c1.621,0,2.901,0.568,3.837,1.702
		c0.937,1.136,1.406,2.749,1.406,4.839c0,2.112-0.475,3.728-1.422,4.848C10.354,20.587,9.081,21.147,7.481,21.147z M26.162,19.601
		c-0.542,0.425-1.123,0.775-1.746,1.05c-0.624,0.274-1.198,0.41-1.725,0.41c-0.59,0-1.041-0.072-1.351-0.217
		c-0.31-0.143-0.563-0.374-0.756-0.692c-0.188-0.31-0.311-0.683-0.368-1.119c-0.058-0.436-0.087-0.96-0.087-1.572v-6.876h-2.032
		v7.838c0,1.5,0.353,2.636,1.06,3.411c0.706,0.774,1.693,1.162,2.961,1.162c0.757,0,1.449-0.144,2.075-0.432
		c0.628-0.29,1.285-0.704,1.968-1.244v1.341h2.033V10.585h-2.033V19.601z M40.184,11.223c-0.461-0.338-1.007-0.579-1.638-0.719
		c-0.631-0.14-1.371-0.211-2.221-0.211c-0.729,0-1.467,0.064-2.217,0.195c-0.749,0.13-1.322,0.248-1.718,0.358v2.063h0.107
		c0.701-0.266,1.377-0.47,2.033-0.61c0.657-0.14,1.251-0.211,1.785-0.211c0.439,0,0.861,0.028,1.266,0.087
		c0.403,0.057,0.749,0.169,1.038,0.334c0.303,0.172,0.535,0.412,0.698,0.714c0.161,0.303,0.242,0.685,0.242,1.146v0.313
		c-1.182,0.058-2.288,0.145-3.318,0.259c-1.031,0.115-1.914,0.335-2.649,0.661c-0.728,0.324-1.289,0.768-1.681,1.334
		c-0.393,0.566-0.59,1.307-0.59,2.222c0,1.117,0.379,2.036,1.135,2.757c0.757,0.72,1.679,1.081,2.767,1.081
		c0.592,0,1.107-0.056,1.547-0.167c0.439-0.113,0.829-0.251,1.167-0.417c0.289-0.129,0.586-0.303,0.892-0.523
		c0.306-0.22,0.55-0.391,0.73-0.514v1.288h2.021v-8.194c0-0.78-0.119-1.431-0.356-1.958C40.985,11.983,40.639,11.554,40.184,11.223z
		 M39.557,19.688c-0.504,0.389-1.053,0.723-1.644,1c-0.59,0.277-1.243,0.417-1.957,0.417c-0.857,0-1.495-0.175-1.914-0.524
		c-0.417-0.35-0.627-0.87-0.627-1.562c0-0.612,0.181-1.094,0.541-1.444c0.361-0.35,0.833-0.607,1.417-0.773
		c0.49-0.136,1.154-0.241,1.995-0.313c0.839-0.072,1.568-0.126,2.188-0.163V19.688z M45.513,22.661h2.033V5.839h-2.033V22.661z
		 M51.46,8.563h2.292V6.455H51.46V8.563z M51.59,22.661h2.033V10.585H51.59V22.661z M59.721,7.115h-2.032v3.471h-1.375v1.707h1.375
		v6.422c0,1.464,0.319,2.526,0.961,3.189c0.642,0.663,1.578,0.995,2.81,0.995c0.354,0,0.756-0.032,1.206-0.099
		c0.45-0.063,0.867-0.146,1.25-0.248v-1.827h-0.109c-0.159,0.067-0.418,0.146-0.78,0.244c-0.359,0.097-0.705,0.146-1.037,0.146
		c-0.568,0-0.993-0.066-1.271-0.2c-0.277-0.133-0.495-0.343-0.653-0.632c-0.173-0.31-0.274-0.644-0.302-1
		c-0.03-0.358-0.043-0.853-0.043-1.487v-5.503h4.195v-1.707h-4.195V7.115z M70.941,19.538l-3.708-8.952h-2.206l4.812,11.492
		l-2.25,5.038h2.174l7.049-16.53h-2.131L70.941,19.538z M83.612,6.563l-5.86,16.098h2.173l1.578-4.487h6.962l1.579,4.487h2.281
		L86.467,6.563H83.612z M82.151,16.337l2.835-7.903l2.82,7.903H82.151z M100.283,15.948c-0.31-0.073-0.697-0.152-1.163-0.239
		c-0.465-0.086-0.884-0.172-1.259-0.259c-0.677-0.157-1.167-0.363-1.47-0.616c-0.309-0.252-0.465-0.627-0.465-1.124
		c0-0.563,0.255-0.986,0.768-1.271c0.512-0.285,1.139-0.427,1.881-0.427c0.714,0,1.442,0.132,2.184,0.395
		c0.742,0.263,1.373,0.585,1.892,0.968h0.109v-2.174c-0.491-0.252-1.105-0.466-1.844-0.644c-0.739-0.175-1.469-0.264-2.189-0.264
		c-0.772,0-1.469,0.099-2.092,0.297c-0.623,0.199-1.136,0.467-1.541,0.806c-0.417,0.346-0.729,0.739-0.935,1.178
		c-0.206,0.44-0.308,0.91-0.308,1.406c0,0.793,0.221,1.461,0.665,2.006c0.444,0.543,1.194,0.957,2.253,1.237
		c0.383,0.103,0.807,0.196,1.271,0.283c0.466,0.086,0.843,0.161,1.131,0.226c0.778,0.173,1.305,0.383,1.578,0.627
		c0.273,0.245,0.412,0.606,0.412,1.082c0,0.62-0.253,1.074-0.757,1.362c-0.505,0.289-1.204,0.432-2.097,0.432
		c-0.721,0-1.474-0.141-2.259-0.426c-0.787-0.286-1.5-0.668-2.142-1.152h-0.108v2.281c0.503,0.253,1.13,0.485,1.875,0.698
		c0.745,0.211,1.566,0.319,2.46,0.319c1.577,0,2.822-0.353,3.734-1.061c0.911-0.706,1.368-1.61,1.368-2.713
		c0-0.879-0.255-1.585-0.768-2.119C101.955,16.535,101.227,16.164,100.283,15.948z M111.818,15.948
		c-0.309-0.073-0.696-0.152-1.162-0.239c-0.465-0.086-0.885-0.172-1.259-0.259c-0.677-0.157-1.168-0.363-1.47-0.616
		c-0.31-0.252-0.465-0.627-0.465-1.124c0-0.563,0.255-0.986,0.767-1.271c0.511-0.285,1.14-0.427,1.881-0.427
		c0.714,0,1.442,0.132,2.184,0.395c0.742,0.263,1.373,0.585,1.892,0.968h0.109v-2.174c-0.49-0.252-1.105-0.466-1.844-0.644
		c-0.739-0.175-1.467-0.264-2.189-0.264c-0.771,0-1.468,0.099-2.091,0.297c-0.623,0.199-1.136,0.467-1.541,0.806
		c-0.417,0.346-0.73,0.739-0.935,1.178c-0.206,0.44-0.308,0.91-0.308,1.406c0,0.793,0.22,1.461,0.664,2.006
		c0.443,0.543,1.195,0.957,2.253,1.237c0.382,0.103,0.806,0.196,1.271,0.283c0.466,0.086,0.842,0.161,1.131,0.226
		c0.777,0.173,1.304,0.383,1.578,0.627c0.273,0.245,0.411,0.606,0.411,1.082c0,0.62-0.253,1.074-0.758,1.362
		c-0.504,0.289-1.203,0.432-2.096,0.432c-0.721,0-1.475-0.141-2.26-0.426c-0.785-0.286-1.498-0.668-2.142-1.152h-0.107v2.281
		c0.503,0.253,1.129,0.485,1.875,0.698c0.745,0.211,1.565,0.319,2.459,0.319c1.578,0,2.823-0.353,3.736-1.061
		c0.91-0.706,1.367-1.61,1.367-2.713c0-0.879-0.256-1.585-0.768-2.119C113.49,16.535,112.763,16.164,111.818,15.948z
		 M125.658,19.601c-0.542,0.425-1.124,0.775-1.746,1.05c-0.624,0.274-1.2,0.41-1.724,0.41c-0.592,0-1.042-0.072-1.353-0.217
		c-0.31-0.143-0.563-0.374-0.756-0.692c-0.188-0.31-0.31-0.683-0.368-1.119c-0.057-0.436-0.087-0.96-0.087-1.572v-6.876h-2.032
		v7.838c0,1.5,0.354,2.636,1.06,3.411c0.706,0.774,1.693,1.162,2.961,1.162c0.758,0,1.45-0.144,2.076-0.432
		c0.628-0.29,1.284-0.704,1.968-1.244v1.341h2.032V10.585h-2.032V19.601z M137.743,10.585c-0.64,0-1.27,0.135-1.886,0.405
		c-0.615,0.271-1.327,0.729-2.136,1.377v-1.783h-2.033v12.076h2.033v-8.573c0.542-0.439,1.104-0.798,1.687-1.076
		c0.586-0.278,1.19-0.417,1.816-0.417c0.389,0,0.726,0.017,1.011,0.049s0.579,0.084,0.882,0.156h0.108v-2.086
		c-0.317-0.049-0.556-0.084-0.714-0.103S138.098,10.585,137.743,10.585z M149.128,11.223c-0.461-0.338-1.009-0.579-1.639-0.719
		c-0.629-0.14-1.371-0.211-2.221-0.211c-0.729,0-1.468,0.064-2.217,0.195c-0.75,0.13-1.322,0.248-1.72,0.358v2.063h0.108
		c0.7-0.266,1.377-0.47,2.032-0.61c0.656-0.14,1.252-0.211,1.784-0.211c0.439,0,0.861,0.028,1.266,0.087
		c0.404,0.057,0.749,0.169,1.037,0.334c0.304,0.172,0.535,0.412,0.698,0.714c0.161,0.303,0.242,0.685,0.242,1.146v0.313
		c-1.183,0.058-2.287,0.145-3.318,0.259c-1.031,0.115-1.913,0.335-2.649,0.661c-0.729,0.324-1.289,0.768-1.68,1.334
		c-0.394,0.566-0.591,1.307-0.591,2.222c0,1.117,0.38,2.036,1.135,2.757c0.759,0.72,1.68,1.081,2.769,1.081
		c0.592,0,1.105-0.056,1.546-0.167c0.439-0.113,0.829-0.251,1.168-0.417c0.287-0.129,0.586-0.303,0.891-0.523
		c0.308-0.22,0.551-0.391,0.73-0.514v1.288h2.021v-8.194c0-0.78-0.118-1.431-0.356-1.958
		C149.928,11.983,149.582,11.554,149.128,11.223z M148.5,19.688c-0.504,0.389-1.053,0.723-1.644,1
		c-0.59,0.277-1.242,0.417-1.957,0.417c-0.856,0-1.494-0.175-1.912-0.524c-0.419-0.35-0.628-0.87-0.628-1.562
		c0-0.612,0.181-1.094,0.54-1.444c0.361-0.35,0.833-0.607,1.417-0.773c0.49-0.136,1.155-0.241,1.995-0.313
		c0.839-0.072,1.568-0.126,2.188-0.163V19.688z M160.522,10.25c-0.714,0-1.408,0.148-2.085,0.443
		c-0.68,0.296-1.334,0.708-1.969,1.234v-1.341h-2.032v12.076h2.032v-9.016c0.555-0.425,1.136-0.774,1.741-1.05
		c0.604-0.273,1.186-0.41,1.74-0.41c0.54,0,0.98,0.074,1.318,0.221c0.339,0.147,0.599,0.373,0.779,0.675
		c0.173,0.274,0.292,0.653,0.356,1.142c0.064,0.486,0.097,1.006,0.097,1.562v6.875h2.033v-7.837c0-1.478-0.341-2.61-1.026-3.396
		C162.822,10.642,161.827,10.25,160.522,10.25z M173.506,10.303c-1.779,0-3.211,0.563-4.296,1.687
		c-1.084,1.124-1.628,2.674-1.628,4.649c0,1.059,0.146,1.986,0.433,2.778c0.288,0.793,0.697,1.449,1.223,1.967
		c0.518,0.52,1.142,0.908,1.871,1.163c0.727,0.255,1.526,0.383,2.397,0.383c0.686,0,1.333-0.09,1.942-0.27
		c0.609-0.18,1.252-0.433,1.93-0.757v-2.238h-0.108c-0.151,0.123-0.357,0.268-0.616,0.438c-0.26,0.169-0.536,0.33-0.832,0.481
		c-0.339,0.174-0.721,0.314-1.147,0.423c-0.424,0.107-0.842,0.161-1.253,0.161c-1.182,0-2.1-0.391-2.752-1.173
		c-0.651-0.782-0.979-1.9-0.979-3.356c0-1.5,0.334-2.636,1-3.411c0.667-0.775,1.577-1.163,2.73-1.163c0.628,0,1.271,0.13,1.93,0.389
		c0.659,0.26,1.3,0.631,1.919,1.114h0.108v-2.26c-0.556-0.281-1.167-0.52-1.833-0.714C174.879,10.401,174.2,10.303,173.506,10.303z
		 M190.091,15.732c0-1.752-0.441-3.104-1.323-4.055c-0.883-0.951-2.139-1.427-3.768-1.427c-1.76,0-3.177,0.581-4.254,1.741
		c-1.079,1.161-1.617,2.729-1.617,4.703c0,1.997,0.563,3.537,1.686,4.622c1.125,1.084,2.689,1.626,4.693,1.626
		c0.785,0,1.534-0.097,2.248-0.291c0.714-0.195,1.413-0.436,2.098-0.724V19.71h-0.109c-0.352,0.316-0.944,0.639-1.777,0.967
		c-0.832,0.329-1.66,0.492-2.481,0.492c-0.619,0-1.187-0.087-1.702-0.259c-0.517-0.172-0.961-0.433-1.335-0.779
		c-0.39-0.352-0.696-0.805-0.92-1.356c-0.224-0.551-0.335-1.198-0.335-1.941h8.897V15.732z M181.193,15.276
		c0.087-0.951,0.452-1.747,1.098-2.389c0.646-0.642,1.512-0.961,2.6-0.961c1.08,0,1.888,0.29,2.416,0.874
		c0.531,0.584,0.798,1.411,0.807,2.476H181.193z"/>
	<path fill="#318EBA" d="M195.297,10.944c0.109-0.351,0.211-0.673,0.304-0.97c0.093-0.295,0.178-0.569,0.254-0.821
		c0.045-0.208,0.083-0.376,0.115-0.502c0.034-0.125,0.066-0.209,0.1-0.254c0.142-0.208,0.263-0.433,0.361-0.674
		c0.1-0.242,0.197-0.504,0.296-0.788c0.229-0.33,0.425-0.624,0.584-0.88c0.158-0.257,0.287-0.479,0.386-0.665
		c0.108-0.166,0.202-0.296,0.28-0.396c0.074-0.099,0.135-0.186,0.18-0.262c0.351-0.427,0.651-0.783,0.904-1.069
		c0.251-0.284,0.453-0.488,0.607-0.608c0.296-0.251,0.621-0.44,0.978-0.565c0.355-0.127,0.72-0.19,1.094-0.19
		c0.733,0,1.355,0.302,1.864,0.904c0.51,0.603,0.917,1.501,1.224,2.695c0.056,0.317,0.132,0.695,0.23,1.133
		c0,0.263,0.053,0.463,0.156,0.6c0.104,0.137,0.266,0.206,0.484,0.206c0.339,0,0.806-0.282,1.397-0.846
		c0.592-0.563,0.888-1.043,0.888-1.439c0-0.219-0.096-0.57-0.288-1.059c-0.191-0.488-0.348-0.825-0.469-1.011
		c-0.175-0.493-0.292-0.802-0.353-0.929c-0.061-0.125-0.25-0.379-0.566-0.764c-0.286-0.361-0.519-0.641-0.7-0.837
		c-0.18-0.198-0.314-0.319-0.401-0.362c-0.253-0.099-0.509-0.194-0.772-0.288c-0.262-0.093-0.521-0.178-0.772-0.254l-0.229,0.082
		L202.921,0l-1.526,0.181c-0.308,0.11-0.573,0.217-0.798,0.319c-0.225,0.105-0.424,0.207-0.6,0.305
		c-0.34,0.188-0.655,0.373-0.943,0.559c-0.292,0.188-0.558,0.373-0.799,0.56c-0.077,0.098-0.259,0.274-0.543,0.525
		c-0.285,0.252-0.635,0.587-1.052,1.002c-1.237,1.195-2.241,2.591-3.015,4.19c-0.772,1.6-1.29,3.429-1.554,5.489l-0.328,2.464
		c0.044,0.351,0.055,0.68,0.033,0.986s-0.082,0.591-0.181,0.854c0.165,0.614,0.294,1.118,0.393,1.512
		c0.099,0.395,0.182,0.657,0.246,0.79c0.176,0.426,0.382,0.793,0.617,1.101c0.235,0.306,0.49,0.569,0.763,0.789
		c0.318,0.229,0.615,0.406,0.887,0.525c0.274,0.121,0.532,0.182,0.772,0.182c0.153-0.033,0.339-0.066,0.559-0.099l0.723,0.147
		c0.471-0.064,0.931-0.19,1.379-0.377c0.448-0.186,0.893-0.422,1.33-0.707c0.209-0.142,0.503-0.366,0.887-0.673
		c0.383-0.307,0.854-0.701,1.412-1.183c0.251-0.241,0.569-0.494,0.952-0.756c0.076,0,0.134,0.018,0.174,0.056
		c0.037,0.04,0.056,0.097,0.056,0.174c-0.032,0.164-0.069,0.313-0.114,0.443l0.215,1.068c-0.176,0.691-0.311,1.271-0.403,1.743
		c-0.093,0.471-0.151,0.815-0.173,1.035c-0.011,0.427-0.033,0.789-0.065,1.084c-0.034,0.295-0.071,0.532-0.115,0.707
		c-0.099,0.361-0.167,0.659-0.205,0.896c-0.039,0.236-0.057,0.407-0.057,0.517c0,0.296,0.04,0.51,0.123,0.641
		c0.08,0.132,0.199,0.197,0.352,0.197c0.188,0,0.335-0.063,0.444-0.188c0.111-0.126,0.188-0.315,0.232-0.567
		c0.273-0.088,0.488-0.17,0.642-0.247c0.153-0.076,0.273-0.147,0.362-0.213c0.109-0.098,0.194-0.23,0.254-0.394
		c0.061-0.165,0.113-0.362,0.158-0.593c0.064-0.361,0.125-0.659,0.18-0.895c0.056-0.236,0.116-0.409,0.182-0.518
		c0.186-0.384,0.342-0.986,0.469-1.808c0.126-0.821,0.277-1.417,0.453-1.791c0.144-0.285,0.255-0.619,0.338-1.002
		c0.082-0.383,0.134-0.822,0.156-1.315c0.055-0.394,0.104-0.736,0.147-1.026s0.077-0.535,0.099-0.732
		c0.023-0.131,0.071-0.315,0.149-0.55c0.075-0.235,0.114-0.419,0.114-0.551c0-0.394-0.109-0.69-0.327-0.888
		c-0.221-0.196-0.555-0.295-1.004-0.295c-0.328,0-0.632,0.072-0.912,0.214c-0.278,0.142-0.533,0.362-0.764,0.657
		c-0.188,0.263-0.37,0.538-0.551,0.822c-0.18,0.285-0.376,0.569-0.583,0.854c-0.187,0.196-0.359,0.376-0.518,0.534
		c-0.158,0.159-0.293,0.282-0.403,0.37c-0.504,0.537-0.903,0.96-1.199,1.273c-0.296,0.312-0.493,0.511-0.593,0.599
		c-0.339,0.275-0.706,0.489-1.1,0.641c-0.395,0.154-0.812,0.23-1.249,0.23c-0.307,0-0.586-0.043-0.839-0.131
		c-0.251-0.088-0.459-0.214-0.624-0.378c-0.109-0.11-0.225-0.284-0.345-0.526c-0.121-0.241-0.247-0.53-0.377-0.87
		c-0.177-0.471-0.305-0.942-0.388-1.414c-0.082-0.471-0.123-0.942-0.123-1.413c0-0.208,0.039-0.661,0.115-1.357
		C194.995,13.083,195.122,12.138,195.297,10.944z M243.461,17.879c-0.12,0.033-0.224,0.049-0.312,0.049
		c-0.296,0-0.516-0.101-0.657-0.305c-0.143-0.202-0.214-0.506-0.214-0.912c0-0.109-0.025-0.279-0.073-0.509
		c-0.051-0.23-0.074-0.406-0.074-0.525c0-0.308-0.012-0.554-0.033-0.74c-0.021-0.186-0.049-0.316-0.082-0.395
		c-0.065-0.142-0.183-0.249-0.354-0.319c-0.169-0.072-0.396-0.108-0.681-0.108c-0.319,0-0.605,0.129-0.863,0.386
		c-0.257,0.258-0.49,0.649-0.698,1.176c-0.089,0.12-0.184,0.241-0.288,0.361c-0.104,0.12-0.194,0.225-0.271,0.313
		c-0.208,0.295-0.41,0.597-0.608,0.903c-0.351,0.416-0.648,0.778-0.896,1.085c-0.245,0.307-0.468,0.565-0.665,0.772
		c-0.219,0.121-0.41,0.227-0.575,0.32c-0.164,0.094-0.302,0.172-0.411,0.239c-0.109,0.032-0.194-0.099-0.255-0.395
		c-0.06-0.295-0.09-0.75-0.09-1.363c0-0.329,0.03-0.69,0.09-1.085c0.061-0.395,0.146-0.827,0.255-1.298
		c0.109-0.372,0.224-0.751,0.345-1.134s0.226-0.767,0.313-1.149c0.099-0.231,0.186-0.455,0.263-0.675
		c0.042-0.142,0.083-0.273,0.115-0.394c0.032-0.12,0.048-0.214,0.048-0.279c0-0.197-0.043-0.348-0.131-0.453
		c-0.088-0.103-0.214-0.155-0.377-0.155c-0.089,0-0.253,0.044-0.493,0.131c-0.241,0.089-0.582,0.236-1.02,0.444
		c-0.263,0.341-0.513,0.688-0.746,1.044c-0.236,0.356-0.476,0.698-0.716,1.026c-0.297,0.329-0.573,0.658-0.83,0.986
		s-0.507,0.657-0.747,0.986c-0.297,0.361-0.562,0.676-0.798,0.945c-0.235,0.268-0.446,0.479-0.632,0.632
		c0,0.066-0.015,0.12-0.043,0.165c-0.025,0.044-0.063,0.082-0.105,0.115c0.003,0.007,0.005,0.011,0.009,0.018
		c-0.119,0.098-0.227,0.179-0.313,0.229c-0.094,0.055-0.186,0.082-0.271,0.082c-0.089,0-0.159-0.029-0.213-0.09
		c-0.056-0.061-0.106-0.162-0.148-0.305c0.108-0.099,0.228-0.258,0.353-0.476c0.126-0.22,0.244-0.494,0.354-0.823
		c0.098-0.295,0.169-0.568,0.212-0.821c0.045-0.252,0.067-0.472,0.067-0.657c0-0.986-0.2-1.722-0.601-2.21
		c-0.4-0.488-0.999-0.731-1.8-0.731c-0.076,0-0.252,0.043-0.525,0.131c-0.275,0.087-0.652,0.225-1.134,0.41l-0.099-0.147
		c0.12-0.252,0.235-0.504,0.346-0.756c-0.012-0.109-0.08-0.194-0.206-0.254s-0.31-0.091-0.551-0.091
		c-0.219,0-0.422,0.044-0.607,0.131c-0.187,0.087-0.367,0.208-0.543,0.362c-0.153,0.152-0.305,0.312-0.452,0.477
		c-0.146,0.164-0.303,0.328-0.468,0.492c-0.132,0.121-0.273,0.244-0.427,0.371c-0.153,0.126-0.307,0.259-0.46,0.401
		c-0.177,0.153-0.327,0.31-0.452,0.468c-0.126,0.159-0.217,0.299-0.271,0.419c-0.471,0.417-0.866,0.771-1.184,1.06
		c-0.317,0.291-0.554,0.529-0.707,0.715l-1.265,0.872c-0.109,0.154-0.206,0.293-0.287,0.418c-0.082,0.126-0.162,0.229-0.238,0.304
		c0.002,0.003,0.003,0.006,0.004,0.009c-0.17,0.137-0.313,0.237-0.432,0.295c-0.121,0.061-0.471,0.376-1.051,0.945
		c-0.229,0.22-0.444,0.391-0.642,0.517s-0.368,0.188-0.51,0.188c-0.064,0-0.117-0.016-0.155-0.048
		c-0.038-0.033-0.059-0.077-0.059-0.131c0-0.417,0.169-1.034,0.51-1.85c0.339-0.816,0.511-1.443,0.511-1.881
		c0-0.833-0.111-1.539-0.33-2.12c-0.22-0.581-0.547-1.037-0.986-1.364c-0.055-0.044-0.142-0.104-0.262-0.18
		c-0.242-0.241-0.491-0.471-0.749-0.691c-0.257-0.219-0.572-0.329-0.944-0.329c-0.351,0-0.808,0.187-1.371,0.559
		c-0.565,0.373-0.919,0.696-1.061,0.969l0.163,0.79c-0.229,0.525-0.599,1.092-1.108,1.701c-0.509,0.607-1.164,1.24-1.964,1.898
		c-0.175,0.252-0.35,0.493-0.525,0.723c0.131,0.263,0.252,0.518,0.361,0.766c0.109,0.245,0.209,0.495,0.296,0.746
		c0.099-0.109,0.17-0.208,0.214-0.295c0.042-0.088,0.076-0.153,0.099-0.197c0.361-0.241,0.65-0.466,0.871-0.673
		c0.218-0.21,0.378-0.396,0.477-0.56c0.164-0.088,0.372-0.257,0.625-0.509c0.25-0.252,0.534-0.575,0.854-0.97
		c0.296-0.361,0.586-0.662,0.871-0.903c0.285-0.24,0.547-0.428,0.788-0.559c0.362,0.044,0.633,0.22,0.814,0.526
		c0.18,0.306,0.271,0.75,0.271,1.331c0,0.471-0.063,1.002-0.189,1.593c-0.125,0.592-0.31,1.233-0.551,1.923
		c-0.055,0.153-0.121,0.304-0.195,0.453c-0.078,0.147-0.149,0.292-0.215,0.436c-0.088,0.186-0.156,0.358-0.205,0.517
		c-0.05,0.159-0.074,0.298-0.074,0.418c0,0.308,0.115,0.529,0.345,0.666c0.229,0.137,0.575,0.206,1.035,0.206
		c0.286-0.087,0.537-0.203,0.756-0.345c0.833-0.504,1.548-0.95,2.146-1.339c0.597-0.389,1.081-0.72,1.454-0.994
		c0.175-0.153,0.325-0.291,0.453-0.412c0.126-0.12,0.236-0.224,0.335-0.313c-0.002-0.004-0.004-0.009-0.006-0.013
		c0.091-0.104,0.161-0.199,0.204-0.282c0.042-0.088,0.082-0.153,0.114-0.197c0.384-0.307,0.679-0.542,0.888-0.707
		c0.208-0.164,0.339-0.247,0.395-0.247c0.088,0,0.156,0.024,0.205,0.074c0.049,0.048,0.074,0.113,0.074,0.189
		c0,0.078-0.061,0.332-0.182,0.764s-0.18,0.78-0.18,1.043c0,0.647,0.251,1.232,0.756,1.759c0.503,0.525,1.068,0.789,1.692,0.789
		c0.099,0,0.229-0.022,0.386-0.067c0.159-0.043,0.266-0.064,0.321-0.064c0.187,0,0.393-0.036,0.616-0.107
		c0.224-0.07,0.473-0.173,0.747-0.304c0.471-0.198,0.9-0.447,1.292-0.748c0.387-0.301,0.719-0.633,0.993-0.995
		c0.098,0.22,0.229,0.389,0.394,0.51c0.164,0.12,0.371,0.181,0.624,0.181c0.22,0,0.441-0.046,0.665-0.14
		c0.226-0.093,0.464-0.243,0.716-0.452c0.208-0.153,0.404-0.313,0.591-0.476c0.187-0.165,0.379-0.334,0.575-0.51
		c-0.001-0.004-0.002-0.009-0.006-0.013c0.126-0.158,0.229-0.294,0.302-0.405c0.077-0.116,0.133-0.211,0.165-0.288l0.937-0.97
		l0.099-0.049c0.075,0,0.135,0.082,0.173,0.247c0.038,0.165,0.067,0.406,0.09,0.723c-0.022,0.065-0.017,0.257,0.018,0.575
		c0.032,0.318,0.098,0.762,0.195,1.331c0.089,0.592,0.284,1.038,0.592,1.339c0.308,0.301,0.713,0.453,1.217,0.453
		c0.34,0,0.704-0.101,1.094-0.304c0.388-0.203,0.774-0.529,1.157-0.979c0.307-0.339,0.609-0.682,0.903-1.026
		c0.297-0.345,0.593-0.699,0.888-1.061c0.144-0.152,0.277-0.305,0.403-0.459c0.125-0.152,0.238-0.285,0.337-0.395
		c0.108,0.132,0.199,0.263,0.271,0.395c0.071,0.132,0.119,0.263,0.14,0.395c0.165,0.559,0.422,0.98,0.772,1.265
		c0.351,0.284,0.8,0.427,1.349,0.427c0.206,0,0.521-0.101,0.944-0.303c0.422-0.203,0.961-0.501,1.618-0.896l-0.657-1.512
		C243.702,17.808,243.582,17.846,243.461,17.879z M218.599,18.471c-0.053-0.113-0.093-0.21-0.139-0.314
		c0.058,0.119,0.12,0.234,0.172,0.355c0.054,0.125,0.096,0.246,0.145,0.37C218.717,18.745,218.66,18.6,218.599,18.471z
		 M227.587,17.057c-0.054,0.22-0.109,0.402-0.164,0.55c-0.055,0.147-0.126,0.255-0.213,0.321c-0.155,0.188-0.318,0.384-0.494,0.592
		c-0.371,0.559-0.77,0.977-1.191,1.257c-0.42,0.278-0.885,0.418-1.388,0.418c-0.318,0-0.554-0.076-0.707-0.23
		c-0.153-0.153-0.229-0.383-0.229-0.69c0-0.164,0.027-0.367,0.082-0.607c0.055-0.242,0.142-0.532,0.263-0.872
		c0.121-0.383,0.241-0.676,0.361-0.879c0.121-0.202,0.236-0.31,0.346-0.321c0.175-0.032,0.331-0.084,0.469-0.157
		c0.137-0.071,0.264-0.171,0.386-0.303c0.198-0.296,0.371-0.57,0.525-0.822c0.098-0.153,0.2-0.282,0.304-0.386
		c0.104-0.104,0.184-0.161,0.24-0.172c0.349,0.043,0.617,0.086,0.805,0.124c0.186,0.038,0.306,0.073,0.36,0.106
		c0.088,0.043,0.175,0.162,0.264,0.354c0.088,0.191,0.181,0.452,0.279,0.78L227.587,17.057z M255.311,17.764
		c-0.144-0.01-0.291-0.108-0.444-0.287c-0.153-0.182-0.302-0.436-0.443-0.765c-0.253-0.536-0.451-0.962-0.601-1.272
		c-0.147-0.313-0.249-0.507-0.304-0.584c-0.22-0.317-0.461-0.559-0.723-0.722c-0.263-0.166-0.549-0.247-0.854-0.247
		c-0.144,0-0.315,0.058-0.519,0.172c-0.202,0.115-0.43,0.292-0.682,0.535c-0.252,0.624-0.491,1.164-0.715,1.617
		c-0.224,0.456-0.424,0.843-0.6,1.16c-0.438,1.315-0.822,2.468-1.149,3.459c-0.329,0.991-0.614,1.804-0.854,2.44
		c0.021,0.131,0.016,0.297-0.017,0.5c-0.033,0.204-0.083,0.453-0.148,0.749c-0.056,0.328-0.118,0.579-0.188,0.755
		c-0.071,0.174-0.136,0.279-0.189,0.312l-0.065-0.131c-0.013-0.121,0.021-0.39,0.099-0.805c0.075-0.417,0.208-0.976,0.396-1.676
		c0.074-0.363,0.133-0.68,0.171-0.954s0.075-0.514,0.107-0.723c0.316-1.413,0.597-2.594,0.838-3.542
		c0.24-0.946,0.46-1.684,0.657-2.209c0.745-2.18,1.307-3.871,1.684-5.069c0.379-1.201,0.567-1.91,0.567-2.128
		c0-0.395-0.052-0.685-0.156-0.872c-0.104-0.185-0.266-0.279-0.484-0.279c-0.143,0-0.289,0.073-0.436,0.214
		c-0.147,0.143-0.299,0.345-0.452,0.608c-0.176,0.35-0.32,0.665-0.435,0.945c-0.116,0.278-0.223,0.513-0.321,0.699
		c-0.329,0.755-0.724,1.534-1.183,2.333c-0.46,0.8-0.98,1.632-1.562,2.498c-0.109,0.209-0.192,0.381-0.247,0.519
		c-0.056,0.136-0.098,0.254-0.131,0.353c-0.493,0.515-0.911,0.972-1.257,1.371c-0.346,0.401-0.627,0.743-0.847,1.027
		c0.176,0.362,0.613,1.348,0.657,1.512c0.396-0.492,0.721-0.863,0.979-1.108c0.257-0.247,0.44-0.386,0.55-0.419
		c0.022,0.308,0.014,0.652-0.024,1.036c-0.037,0.383-0.107,0.805-0.206,1.265c-0.077,0.395-0.153,0.784-0.229,1.167
		c-0.078,0.383-0.148,0.76-0.213,1.133c-0.22,1.293-0.385,2.503-0.494,3.632c-0.11,1.127-0.164,2.163-0.164,3.105
		c0,0.624,0.083,1.095,0.247,1.414c0.164,0.317,0.411,0.476,0.739,0.476c0.142,0,0.317-0.113,0.525-0.337
		c0.207-0.224,0.438-0.557,0.69-0.994c0.142-0.34,0.249-0.635,0.32-0.887s0.117-0.455,0.141-0.608
		c0.042-0.253,0.177-0.62,0.401-1.102c0.226-0.483,0.364-0.844,0.42-1.083c0.186-0.702,0.362-1.307,0.525-1.816
		c0.164-0.51,0.316-0.929,0.46-1.257c0.087-0.383,0.164-0.783,0.23-1.2c0.109-0.263,0.216-0.496,0.321-0.698
		c0.104-0.202,0.188-0.392,0.254-0.568c0.273-0.765,0.542-1.391,0.805-1.873s0.509-0.806,0.739-0.97
		c0.24,0.077,0.557,0.345,0.944,0.805c0.391,0.459,0.721,0.728,0.995,0.806l1.117,0.41c0.438-0.076,0.774-0.147,1.011-0.214
		c0.236-0.064,0.38-0.103,0.436-0.115L255.311,17.764z"/>
</g>
</svg>
