<?xml version="1.0" encoding="utf-8"?>
<!-- Generator: Adobe Illustrator 16.0.3, SVG Export Plug-In . SVG Version: 6.00 Build 0)  -->
<!DOCTYPE svg PUBLIC "-//W3C//DTD SVG 1.1//EN" "http://www.w3.org/Graphics/SVG/1.1/DTD/svg11.dtd">
<svg version="1.1" id="Слой_1" xmlns="http://www.w3.org/2000/svg" xmlns:xlink="http://www.w3.org/1999/xlink" x="0px" y="0px"
	 width="256px" height="207.934px" viewBox="0 0 256 207.934" enable-background="new 0 0 256 207.934" xml:space="preserve">
<g>
	<path d="M256,27.112c-0.424,1.833-0.706,3.738-1.199,5.571c-1.552,5.854-4.513,10.86-9.026,14.951
		c-32.088,29.409-64.178,58.888-96.335,88.296c-12.412,11.353-31.524,11.071-43.725-0.848
		c-15.797-15.514-31.383-31.312-47.039-46.968C49.014,78.453,39.352,68.862,29.69,59.13c-2.539-2.539-5.219-3.949-8.674-2.398
		c-3.526,1.551-5.007,4.373-4.937,8.181c0,28.492,0,56.983,0,85.474c0,8.322,0,16.644,0,24.965c0,9.803,6.84,16.644,16.643,16.644
		c63.542,0,127.082,0,190.625,0c9.662,0,16.502-6.91,16.573-16.573c0-31.594,0-63.117,0-94.712c0-6.7,6.275-10.931,11.706-7.616
		c1.763,1.058,2.893,3.244,4.302,4.937c0,33.993,0,67.984,0,101.976c-0.142,0.425-0.424,0.917-0.492,1.341
		c-2.682,15.445-15.798,26.587-31.596,26.587c-64.036,0-128,0-192.035,0c-14.246,0-26.658-9.521-30.607-23.202
		c-0.423-1.551-0.846-3.174-1.199-4.795c0-39.846,0-79.621,0-119.466c0.423-1.411,0.846-2.821,1.34-4.231
		c4.655-14.246,24.683-23.696,40.057-8.11c24.754,24.965,49.649,49.719,74.543,74.543c7.193,7.194,16.221,7.333,23.767,0.494
		c31.171-28.562,62.343-57.194,93.585-85.756c4.23-3.878,7.051-8.11,6.699-14.104c-0.281-4.161-1.976-6.206-6.207-6.911
		c-2.044-0.353-4.16-0.423-6.205-0.423c-56.771,0-113.613,0-170.385,0c-5.289,0-8.886-2.962-9.097-7.546
		c-0.211-4.725,3.314-8.393,8.181-8.393c10.649-0.07,21.297,0,31.947,0c45.275,0,90.623,0,135.898,0
		c5.923,0,11.777,0.635,17.42,2.821c7.968,3.173,13.116,8.604,13.962,17.49c0.071,0.564,0.282,1.128,0.424,1.622
		C256,23.727,256,25.42,256,27.112z"/>
	<path d="M24.19,0.102c4.372,0.07,7.898,3.597,7.898,7.969c0,4.443-3.596,8.04-8.039,8.04c-4.443-0.07-8.04-3.738-7.899-8.181
		C16.221,3.558,19.817,0.031,24.19,0.102z"/>
	<path d="M208.396,169.499c-1.059-0.494-3.032-0.988-4.303-2.258c-7.898-7.616-15.655-15.373-23.272-23.272
		c-2.961-3.032-2.679-7.827,0.282-10.86c2.962-2.961,7.828-3.385,10.789-0.423c7.899,7.687,15.729,15.515,23.485,23.484
		c2.327,2.397,2.68,5.431,1.271,8.534C215.167,167.876,212.557,169.217,208.396,169.499z"/>
	<path d="M77.364,139.88c-0.493,0.986-1.128,3.172-2.539,4.583c-7.334,7.617-14.81,15.021-22.356,22.427
		c-3.385,3.314-8.181,3.384-11.425,0.212c-3.173-3.175-3.244-8.041,0.071-11.426c7.475-7.546,15.021-15.093,22.567-22.567
		c2.468-2.469,5.5-2.961,8.745-1.621C75.601,132.756,77.082,135.295,77.364,139.88z"/>
</g>
</svg>
