<?xml version="1.0" encoding="utf-8"?>
<!-- Generator: Adobe Illustrator 16.0.3, SVG Export Plug-In . SVG Version: 6.00 Build 0)  -->
<!DOCTYPE svg PUBLIC "-//W3C//DTD SVG 1.1//EN" "http://www.w3.org/Graphics/SVG/1.1/DTD/svg11.dtd">
<svg version="1.1" id="Слой_1" xmlns="http://www.w3.org/2000/svg" xmlns:xlink="http://www.w3.org/1999/xlink" x="0px" y="0px"
	 width="191.969px" height="256px" viewBox="0 0 191.969 256" enable-background="new 0 0 191.969 256" xml:space="preserve">
<g>
	<path d="M101.913,0c4.998,0.814,10.093,1.24,14.979,2.479c38.157,9.718,62.732,33.654,72.269,71.821
		c6.696,26.854,1.147,52.025-13.758,75.374c-17.738,27.779-35.028,55.846-52.488,83.787c-3.672,5.887-7.587,11.551-12.766,16.234
		c-3.408,3.087-7.364,5.044-11.736,6.305c-1.655,0-3.327,0-4.998,0c-10.973-3.027-17.309-11.359-22.944-20.332
		c-16.743-26.643-33.268-53.439-50.085-80.035c-4.985-7.887-10.269-15.535-13.671-24.311c-4.299-11.073-6.514-22.52-6.71-34.38
		c-0.089-5.111,3.168-8.747,7.826-8.824c4.479-0.101,7.99,3.386,8.085,8.353c0.348,17.068,5.905,32.196,15.078,46.593
		c17.54,27.52,34.282,55.539,51.422,83.297c2.229,3.594,4.628,7.168,7.436,10.3c4.235,4.707,8.007,4.672,12.242-0.111
		c2.738-3.104,5.103-6.586,7.285-10.118c16.956-27.482,33.686-55.111,50.821-82.504c5.793-9.25,10.878-18.631,13.484-29.294
		c10.829-44.243-18.605-89.543-63.329-97.197c-26.648-4.561-49.935,2.557-69.771,20.911c-2.146,1.976-4.333,3.722-7.443,3.415
		c-3.143-0.31-5.532-1.85-6.727-4.835c-1.265-3.125-0.9-6.218,1.542-8.557c3.545-3.386,7.164-6.742,11.1-9.664
		C53.541,8.046,69.79,1.918,87.74,0.432C88.469,0.368,89.188,0.146,89.912,0C93.913,0,97.913,0,101.913,0z"/>
	<path d="M63.977,98.196c-0.199-18.85,13.042-32.871,30.157-34.064c16.261-1.121,31.129,11.09,33.35,27.426
		c0.181,1.311,0.343,2.631,0.364,3.964c0.057,4.786-3.188,8.332-7.644,8.464c-4.625,0.147-8.062-3.232-8.271-8.118
		c-0.271-6.564-3.316-11.485-9.242-14.272c-5.844-2.771-11.528-2.014-16.672,1.907c-5.329,4.072-7.425,11.129-5.366,17.471
		c2.054,6.379,7.825,10.771,14.532,11.076c5.34,0.232,8.857,3.582,8.692,8.282c-0.172,4.722-3.871,8.079-9.208,7.529
		c-4.066-0.435-8.328-1.193-12.006-2.886C70.484,119.354,64.606,109.339,63.977,98.196z"/>
	<path d="M12.031,76.006c-4.386,0.055-7.992-3.461-8.053-7.846c-0.059-4.339,3.508-7.993,7.864-8.043
		c4.319-0.064,8.001,3.529,8.048,7.865C19.927,72.361,16.413,75.954,12.031,76.006z"/>
</g>
</svg>
