<?xml version="1.0" encoding="utf-8"?>
<!-- Generator: Adobe Illustrator 16.0.3, SVG Export Plug-In . SVG Version: 6.00 Build 0)  -->
<!DOCTYPE svg PUBLIC "-//W3C//DTD SVG 1.1//EN" "http://www.w3.org/Graphics/SVG/1.1/DTD/svg11.dtd">
<svg version="1.1" id="Слой_1" xmlns="http://www.w3.org/2000/svg" xmlns:xlink="http://www.w3.org/1999/xlink" x="0px" y="0px"
	 width="256px" height="207.718px" viewBox="0 0 256 207.718" enable-background="new 0 0 256 207.718" xml:space="preserve">
<g>
	<path d="M0.212,153.43c1.974-9.94,8.46-16.497,16.357-21.997c3.596-2.538,8.038-2.044,10.435,1.199
		c2.538,3.314,1.903,7.543-1.481,10.435c-0.987,0.775-1.974,1.48-2.961,2.256c-4.372,3.454-6.91,7.614-6.486,13.536
		c0.353,5.642,0.07,11.352,0.07,16.992c0.07,9.024,6.98,16.074,15.934,16.074c42.726,0.071,85.451,0.071,128.106,0
		c8.672,0,15.723-7.05,15.864-15.722c0.069-6.628,0-13.325,0-19.953c0-3.665-1.622-6.557-4.09-9.094
		c-4.795-4.937-10.929-7.826-17.274-10.224c-14.101-5.287-28.765-7.474-43.712-8.46c-8.108-0.564-16.357-0.283-24.395-1.622
		c-19.882-3.313-36.027-20.729-38.002-40.751c-0.775-8.108-0.493-16.287-0.564-24.465c-0.07-8.178-0.07-16.357,0-24.465
		c0.282-20.587,16.639-37.72,37.438-37.155c7.263,0.211,14.454,0.07,21.716,0c19.953-0.07,36.311,15.511,36.733,35.534
		c0.353,15.511,0.142,30.951,0,46.462c-0.071,6.205-1.691,12.197-4.372,17.837c-1.832,4.019-6.063,5.641-10.011,4.16
		c-3.878-1.481-6.205-5.711-4.724-9.519c2.468-6.416,3.243-12.832,2.961-19.741c-0.493-12.197,0.212-24.465,0.212-36.662
		c0-11.21-7.403-20.094-18.402-21.786c-3.666-0.564-7.474-0.283-11.21-0.283c-5.64,0.071-11.351-0.282-16.921,0.494
		c-9.871,1.481-17.273,10.293-17.414,20.235c-0.141,11.492-0.141,22.984,0,34.476c0.07,5.429-0.141,11.069,0.987,16.287
		c3.102,14.382,16.075,24.324,30.81,24.394c20.235,0.141,40.189,2.539,59.365,9.448c8.813,3.173,17.203,7.19,24.465,13.184
		c6.135,5.006,10.999,10.999,11.916,19.178c0.423,4.018,0.353,8.178,0.211,12.196c-0.142,5.57,0.212,11.28-0.847,16.64
		c-3.031,15.017-16.003,25.169-31.375,25.169c-30.387,0-60.773,0-91.161,0c-11.986,0-23.972,0-35.957,0
		c-16.146-0.07-29.048-10.857-31.938-26.791c-0.071-0.564-0.353-1.129-0.494-1.622C0.212,170.703,0.212,162.102,0.212,153.43z"/>
	<path d="M256,139.399c-0.353,1.48-0.703,2.892-1.057,4.372c-3.384,13.748-15.936,23.761-30.177,24.112
		c-2.89,0.07-5.851,0.07-8.741,0c-4.514-0.071-7.968-3.524-8.037-7.897c0-4.441,3.454-7.896,8.107-8.037
		c3.736-0.141,7.543,0.142,11.21-0.492c7.401-1.341,12.55-7.757,12.619-15.23c0.072-7.896,0.072-15.792,0-23.759
		c0-4.09-2.184-7.191-5.498-8.954c-3.948-2.115-8.32-3.877-12.691-4.935c-15.934-3.948-31.797-3.667-47.52,1.198
		c-3.947,1.199-7.614,2.68-10.999,5.077c-3.242,2.327-7.685,1.269-9.94-1.974c-2.328-3.384-1.622-7.896,1.903-10.082
		c5.147-3.173,10.505-5.993,16.005-9.024c-0.211-0.212-0.705-0.846-1.199-1.41c-6.627-7.544-9.941-16.428-10.082-26.439
		c-0.07-7.896,0-15.793,0-23.76c0.071-17.908,14.102-32.08,32.01-32.08c6.91,0,13.889-0.353,20.657,0.494
		c15.017,1.763,26.721,14.876,27.144,29.964c0.211,8.46,0.142,16.992,0.071,25.453c0,4.512-3.597,7.966-7.968,7.896
		c-4.37,0-7.826-3.385-7.896-7.967c-0.072-7.685-0.072-15.299,0-22.985c0-10.152-6.769-16.991-16.851-16.991
		c-5.078,0-10.153-0.071-15.229,0c-9.024,0.07-15.934,6.98-15.934,16.075c-0.07,7.967-0.07,16.004,0,23.972
		c0.069,13.184,10.505,23.759,23.76,23.971c13.324,0.141,26.157,2.327,38.073,8.531c5.851,3.032,11.138,6.839,14.594,12.549
		c1.551,2.609,2.397,5.57,3.525,8.391C256,119.447,256,129.459,256,139.399z"/>
	<path d="M44.135,115.993c4.442,0,8.038,3.667,7.967,8.108c-0.071,4.301-3.737,7.896-8.037,7.756
		c-4.372-0.071-7.826-3.667-7.826-8.038C36.239,119.588,39.834,115.993,44.135,115.993z"/>
</g>
</svg>
