<?xml version="1.0" encoding="utf-8"?>
<!-- Generator: Adobe Illustrator 16.0.3, SVG Export Plug-In . SVG Version: 6.00 Build 0)  -->
<!DOCTYPE svg PUBLIC "-//W3C//DTD SVG 1.1//EN" "http://www.w3.org/Graphics/SVG/1.1/DTD/svg11.dtd">
<svg version="1.1" id="Слой_1" xmlns="http://www.w3.org/2000/svg" xmlns:xlink="http://www.w3.org/1999/xlink" x="0px" y="0px"
	 width="256px" height="256px" viewBox="0 0 256 256" enable-background="new 0 0 256 256" xml:space="preserve">
<g>
	<path d="M0,194.325c0.564-3.523,1.059-7.048,1.764-10.502c3.458-17.479,10.584-33.551,19.405-48.916
		c18.346-31.929,42.478-59.066,70.35-82.96c18.558-15.859,38.528-29.533,60.825-39.683c13.054-5.921,26.602-10.502,40.996-11.841
		c0.424,0,0.776-0.282,1.129-0.423c3.811,0,7.691,0,11.503,0c0.775,0.141,1.623,0.352,2.397,0.493
		c7.974,1.057,15.595,3.383,21.594,8.881c6.35,5.78,12.348,11.912,18.274,18.115c3.458,3.595,5.504,8.035,6.774,12.898
		c0.353,1.339,0.635,2.75,0.988,4.088c0,2.467,0,5.004,0,7.472c-0.212,0.986-0.494,1.903-0.707,2.89
		c-1.41,6.273-4.304,11.63-8.891,16.211c-7.408,7.401-14.816,14.872-22.297,22.203c-12.56,12.405-31.26,12.405-44.807,1.198
		c-12.984-10.784-31.188-9.938-43.185,1.903c-9.949,9.797-19.828,19.735-29.707,29.674c-0.564,0.563-1.129,1.198-1.764,1.762
		c-3.387,2.96-7.974,2.819-11.078-0.282c-2.964-2.96-3.246-7.965-0.212-11.066c11.29-11.348,22.227-23.049,34.082-33.691
		c17.499-15.789,44.101-15.577,62.095-0.494c7.973,6.696,16.582,6.344,24.062-1.057c6.844-6.837,13.689-13.674,20.533-20.511
		c7.833-7.824,7.903-17.057,0.07-24.74c-3.951-3.948-7.761-8.036-12.136-11.489c-8.397-6.625-18.276-7.965-28.577-7.119
		c-18.277,1.551-34.576,8.67-50.312,17.48c-22.369,12.617-42.055,28.687-60.189,46.731c-18.628,18.538-35.211,38.626-48.194,61.534
		c-7.55,13.321-13.689,27.207-16.511,42.291c-1.835,10.148-2.258,20.298,2.258,29.885c1.764,3.735,4.446,7.188,7.126,10.432
		c2.682,3.243,5.928,6.062,8.962,9.093c6.774,6.696,16.44,6.837,23.215,0.141c7.409-7.329,14.748-14.661,22.086-22.062
		c6.491-6.555,6.774-15.718,0.706-22.696c-3.528-4.017-3.458-8.811,0.07-11.911c3.528-3.102,8.397-2.537,11.925,1.409
		c11.431,12.476,11.149,31.788-0.917,44.123c-7.55,7.754-15.241,15.365-23.003,22.979c-4.869,4.793-10.726,7.753-17.57,8.811
		c-0.423,0.07-0.776,0.281-1.129,0.423c-2.47,0-5.009,0-7.479,0c-0.282-0.142-0.635-0.353-0.917-0.353
		c-7.479-1.058-13.619-4.511-18.91-9.868c-4.164-4.229-8.327-8.388-12.561-12.546c-5.292-5.215-8.749-11.488-10.513-18.607
		c-0.706-2.82-1.129-5.71-1.624-8.53C0,201.938,0,198.132,0,194.325z"/>
	<path d="M82.346,152.388c-4.446,0-7.974-3.384-8.044-7.754c-0.071-4.44,3.528-8.176,7.973-8.176
		c4.375-0.07,8.114,3.735,8.044,8.105C90.249,148.934,86.721,152.388,82.346,152.388z"/>
</g>
</svg>
