<?xml version="1.0" encoding="utf-8"?>
<!-- Generator: Adobe Illustrator 16.0.3, SVG Export Plug-In . SVG Version: 6.00 Build 0)  -->
<!DOCTYPE svg PUBLIC "-//W3C//DTD SVG 1.1//EN" "http://www.w3.org/Graphics/SVG/1.1/DTD/svg11.dtd">
<svg version="1.1" id="Слой_1" xmlns="http://www.w3.org/2000/svg" xmlns:xlink="http://www.w3.org/1999/xlink" x="0px" y="0px"
	 width="247.809px" height="256px" viewBox="0 0 247.809 256" enable-background="new 0 0 247.809 256" xml:space="preserve">
<g>
	<path d="M135.409,126.448l-33.517,22.58c-1.412-0.493-2.894-0.705-4.446-0.705c-2.963,0-5.574,0.917-7.832,2.47l-37.328-28.155
		c-1.764-1.34-4.304-0.987-5.645,0.776c-1.341,1.764-0.988,4.305,0.776,5.645l37.328,28.155c-0.494,1.41-0.776,2.893-0.776,4.516
		c0,7.408,5.998,13.477,13.477,13.477c7.198,0,13.054-5.715,13.478-12.771l33.517-22.65c3.74-2.47,4.658-7.479,2.188-11.22
		C144.089,124.896,139.078,123.907,135.409,126.448z"/>
	<path d="M96.953,62.166C43.396,62.166,0,105.562,0,159.048C0,212.605,43.396,256,96.953,256c53.556,0,96.953-43.395,96.953-96.952
		C193.905,105.562,150.509,62.166,96.953,62.166z M154.037,216.204c-15.242,15.241-35.563,23.637-57.084,23.637
		c-21.592,0-41.914-8.396-57.155-23.637c-15.242-15.242-23.639-35.565-23.639-57.156c0-21.592,8.397-41.844,23.639-57.085
		C55.039,86.721,75.36,78.254,96.953,78.254s41.842,8.396,57.084,23.709c15.242,15.241,23.709,35.563,23.709,57.085
		C177.746,180.639,169.279,200.962,154.037,216.204z"/>
	<path d="M208.794,114.381c14.184-2.893,44.878-6.985,38.033-57.155c-10.372,13.619-32.883,29.777-43.396,23.003
		C254.589,50.946,245.416,6.774,244.004,0c-16.158,26.955-50.099,35.211-73.454,32.812c3.739,24.273-41.632,33.94-18.136,0.353
		c-24.132,1.271-52.145,6.563-69.362,20.322c4.516-0.564,9.173-0.847,13.901-0.847c58.779,0,106.338,47.629,106.338,106.338
		c0,11.008-1.624,21.661-4.8,31.611c18.276-17.005,26.673-40.855,31.118-62.307C205.548,151.568,192.283,117.769,208.794,114.381z"
		/>
</g>
</svg>
