<?xml version="1.0" encoding="utf-8"?>
<!-- Generator: Adobe Illustrator 16.0.3, SVG Export Plug-In . SVG Version: 6.00 Build 0)  -->
<!DOCTYPE svg PUBLIC "-//W3C//DTD SVG 1.1//EN" "http://www.w3.org/Graphics/SVG/1.1/DTD/svg11.dtd">
<svg version="1.1" id="Слой_1" xmlns="http://www.w3.org/2000/svg" xmlns:xlink="http://www.w3.org/1999/xlink" x="0px" y="0px"
	 width="223.876px" height="256px" viewBox="0 0 223.876 256" enable-background="new 0 0 223.876 256" xml:space="preserve">
<g>
	<path d="M195.429,0c1.623,0.423,3.243,0.776,4.795,1.199c22.498,6.347,31.102,33.498,16.292,51.552
		c-25.882,31.524-51.765,63.048-77.717,94.572c-13.964,16.925-39.705,16.925-53.668,0c-7.828-9.521-15.585-19.112-23.484-28.562
		c-3.667-4.443-8.392-6.981-14.316-6.841c-4.796,0.141-9.662,0-14.457,0c-6.982,0.071-12.201,3.173-15.163,9.521
		c-2.892,6.206-1.975,12.13,2.397,17.49c25.529,31.382,51.059,62.766,76.659,94.149c7.334,9.026,22.215,9.238,30.325,0.14
		c6.77-7.688,13.046-15.798,19.534-23.694c18.688-22.992,37.448-45.981,56.066-68.974c1.835-2.325,3.386-4.937,4.725-7.545
		c2.047-4.161,6.276-6.065,10.366-4.443c4.162,1.692,6.278,6.277,4.304,10.507c-1.692,3.669-3.597,7.406-6.136,10.51
		c-25.39,31.101-50.918,61.989-76.377,93.09c-5.783,7.124-13.047,11.426-22.074,12.907c-0.281,0.069-0.565,0.281-0.846,0.423
		c-2.821,0-5.642,0-8.463,0c-2.045-0.495-4.02-0.918-5.994-1.481c-6.629-1.976-12.201-5.571-16.644-10.931
		c-26.023-31.665-52.117-63.188-77.999-94.995c-8.322-10.155-9.732-21.792-4.231-33.71c5.501-11.919,15.304-18.195,28.421-18.76
		c7.052-0.282,14.175-0.211,21.227,0.423c8.11,0.775,14.74,4.937,19.958,11.213c7.758,9.451,15.445,18.971,23.203,28.421
		c8.251,10.084,22.708,10.508,31.453,0.846c3.738-4.16,7.122-8.604,10.649-12.905c21.862-26.87,43.724-53.739,65.586-80.538
		c4.585-5.572,5.783-11.636,2.681-18.125c-3.104-6.488-8.604-9.379-15.798-9.379c-52.539,0-105.079,0-157.619,0
		c-6.982,0-12.271,3.173-15.233,9.45c-2.962,6.206-2.045,12.13,2.328,17.49c6.206,7.757,12.624,15.656,19.041,23.555
		c3.174,3.878,2.75,8.815-0.917,11.707c-3.596,2.82-8.392,2.045-11.495-1.763C20.39,68.549,13.832,60.65,7.343,52.751
		C-8.313,33.499,2.407,4.796,26.808,0.494C27.372,0.423,27.937,0.211,28.5,0C84.143,0,139.785,0,195.429,0z"/>
	<path d="M195.922,107.971c0-4.372,3.526-7.969,7.898-7.969c4.443-0.071,8.11,3.525,8.11,7.969c0,4.373-3.525,7.898-7.898,7.969
		C199.589,116.011,195.922,112.414,195.922,107.971z"/>
</g>
</svg>
