<?xml version="1.0" encoding="utf-8"?>
<!-- Generator: Adobe Illustrator 16.0.3, SVG Export Plug-In . SVG Version: 6.00 Build 0)  -->
<!DOCTYPE svg PUBLIC "-//W3C//DTD SVG 1.1//EN" "http://www.w3.org/Graphics/SVG/1.1/DTD/svg11.dtd">
<svg version="1.1" id="Слой_1" xmlns="http://www.w3.org/2000/svg" xmlns:xlink="http://www.w3.org/1999/xlink" x="0px" y="0px"
	 width="256px" height="256px" viewBox="0 0 256 256" enable-background="new 0 0 256 256" xml:space="preserve">
<g>
	<path d="M247.346,202.256c-5.807-6.089-11.826-11.965-17.848-17.839c-3.654-3.583-8.6-3.583-11.826-0.144
		c-3.152,3.367-2.795,8.024,0.717,11.535c5.52,5.445,10.967,10.961,16.414,16.406c3.584,3.583,5.377,7.881,4.875,12.896
		c-0.646,6.663-4.158,11.392-10.395,13.756c-6.379,2.364-12.184,0.932-17.057-3.797c-7.455-7.309-14.766-14.688-22.076-22.138
		c-1.434-1.506-2.725-3.153-3.943-4.872c-2.436-3.584-2.508-7.38,0-10.963c1.648-2.292,3.514-4.442,5.449-6.52
		c25.945-27.655,36.408-60.254,30.461-97.796c-2.867-17.912-10.105-34.032-21.145-48.504C183.555,21.565,160.764,7.523,132.74,2.006
		c-4.515-0.932-9.175-1.361-13.762-2.006c-4.659,0-9.317,0-13.976,0c-4.516,0.645-9.031,1.146-13.547,2.006
		C66.37,6.663,45.298,18.7,28.311,37.686C13.546,54.379,4.587,73.795,1.219,95.791c-0.501,3.08-0.861,6.233-1.219,9.314
		c0,4.513,0,9.027,0,13.469c0.358,3.153,0.646,6.233,1.147,9.314c6.737,39.907,28.311,68.709,64.721,86.118
		c14.334,6.878,29.601,9.816,45.513,10.031c3.798,0,6.737-1.791,7.956-4.872c2.222-5.446-1.648-10.961-7.741-11.033
		c-9.82-0.071-19.423-1.506-28.741-4.514C36.912,188.858,9.317,143.22,17.417,95.647c7.454-43.991,45.585-77.808,89.951-79.456
		c27.594-1.075,51.533,7.953,71.531,27.083c27.809,26.509,36.982,69.854,22.361,105.247c-6.164,14.975-16.057,27.298-27.164,38.832
		c-4.803,5.016-6.738,11.178-5.734,18.127c1.146,7.595,5.52,13.47,10.752,18.771c7.453,7.594,14.979,15.188,22.648,22.64
		c12.4,12.181,32.252,12.108,44.652,0C258.742,234.712,259.314,214.866,247.346,202.256z"/>
	<path d="M78.125,57.818c1.075-0.645,2.149-1.29,3.082-2.078c3.154-2.722,3.655-7.236,1.291-10.604
		c-2.437-3.295-6.881-4.37-10.465-2.221c-25.802,15.834-38.99,38.976-39.994,65.198c0,18.127,3.727,31.381,10.68,43.705
		c1.648,2.937,4.802,4.585,7.884,4.154c3.369-0.502,5.662-2.364,6.666-5.588c0.86-2.722-0.072-5.229-1.362-7.594
		C39.563,112.842,49.24,75.945,78.125,57.818z"/>
	<path d="M104.07,40.05c-0.072,4.371,3.512,7.953,7.884,8.024c4.301,0,8.027-3.582,8.027-7.881c0.072-4.371-3.583-7.953-7.884-8.024
		C107.725,32.098,104.07,35.68,104.07,40.05z"/>
	<path d="M144.135,208.132c-4.299-0.071-7.955,3.438-8.098,7.809c-0.072,4.442,3.512,8.097,7.955,8.168
		c4.301,0,7.955-3.582,7.955-7.882C152.02,211.785,148.508,208.204,144.135,208.132z"/>
</g>
</svg>
