<?xml version="1.0" encoding="utf-8"?>
<!-- Generator: Adobe Illustrator 16.0.3, SVG Export Plug-In . SVG Version: 6.00 Build 0)  -->
<!DOCTYPE svg PUBLIC "-//W3C//DTD SVG 1.1//EN" "http://www.w3.org/Graphics/SVG/1.1/DTD/svg11.dtd">
<svg version="1.1" id="Слой_1" xmlns="http://www.w3.org/2000/svg" xmlns:xlink="http://www.w3.org/1999/xlink" x="0px" y="0px"
	 width="256px" height="256px" viewBox="0 0 256 256" enable-background="new 0 0 256 256" xml:space="preserve">
<g>
	<path d="M127.965,0C57.281,0,0,57.351,0,128.036C0,198.72,57.281,256,127.965,256C198.649,256,256,198.72,256,128.036
		C256,57.351,198.649,0,127.965,0z M127.965,241.327c-62.571,0-113.362-50.721-113.362-113.362
		c0-62.571,50.72-113.362,113.362-113.362c62.643,0,113.362,50.721,113.362,113.362S190.607,241.327,127.965,241.327z"/>
	<g>
		<path d="M127.965,106.167c8.395,0,15.167-6.772,15.167-15.167c0-8.395-6.772-15.167-15.167-15.167S112.798,82.605,112.798,91
			C112.869,99.395,119.641,106.167,127.965,106.167z"/>
		<path d="M127.965,21.939c-58.551,0-106.026,47.475-106.026,106.026S69.414,233.99,127.965,233.99S233.99,186.516,233.99,127.965
			C234.061,69.414,186.586,21.939,127.965,21.939z M127.965,60.244h0.071c17,0,30.757,13.827,30.757,30.757
			c0,17.001-13.757,30.757-30.757,30.757c-17.001,0-30.757-13.756-30.757-30.757C97.208,74,110.964,60.244,127.965,60.244z
			 M164.576,129.587c-0.07,3.598-3.457,6.208-9.24,9.946c-6.561,4.233-15.52,5.785-21.375,6.421l4.867,4.938l18.13,18.13
			c2.751,2.75,2.751,7.195,0,10.017l-0.848,0.847c-2.75,2.751-7.194,2.751-9.944,0c-4.586-4.585-11.287-11.286-18.13-18.131
			l-18.06,18.061c-1.411,1.34-3.174,2.045-5.008,2.045c-1.834,0-3.598-0.705-5.009-2.045l-0.847-0.847
			c-2.751-2.751-2.751-7.196,0-10.018c4.585-4.585,11.287-11.287,18.13-18.13l4.867-4.866c-5.855-0.565-14.885-2.188-21.516-6.421
			c-7.76-4.938-11.146-7.9-8.113-13.967c1.764-3.527,6.561-6.419,12.98-1.34c8.677,6.842,22.503,6.842,22.503,6.842
			s13.896,0,22.503-6.842c6.419-5.008,11.218-2.116,12.98,1.34C164.225,127.048,164.576,128.389,164.576,129.587L164.576,129.587z"
			/>
	</g>
</g>
</svg>
