<?xml version="1.0" encoding="utf-8"?>
<!-- Generator: Adobe Illustrator 16.0.3, SVG Export Plug-In . SVG Version: 6.00 Build 0)  -->
<!DOCTYPE svg PUBLIC "-//W3C//DTD SVG 1.1//EN" "http://www.w3.org/Graphics/SVG/1.1/DTD/svg11.dtd">
<svg version="1.1" id="Слой_1" xmlns="http://www.w3.org/2000/svg" xmlns:xlink="http://www.w3.org/1999/xlink" x="0px" y="0px"
	 width="256px" height="256px" viewBox="0 0 256 256" enable-background="new 0 0 256 256" xml:space="preserve">
<g>
	<path d="M128,21.945C69.433,21.945,21.945,69.433,21.945,128c0,58.566,47.488,106.055,106.055,106.055
		c58.565,0,106.055-47.488,106.055-106.055C234.126,69.433,186.565,21.945,128,21.945z M133.574,165.257
		c-1.481,2.963-3.74,5.573-6.703,7.762c-3.175,2.258-6.985,3.951-11.431,5.222c-4.445,1.27-9.879,1.835-16.441,1.835
		c-10.654,0-18.628-1.552-23.92-4.658c-5.292-3.104-7.903-7.69-7.903-13.688c0-4.87,1.905-8.68,5.715-11.503
		c3.811-2.822,8.679-4.304,14.536-4.587v-0.987c-1.411-0.423-2.894-0.987-4.445-1.623c-1.552-0.635-2.823-1.41-3.952-2.257
		c-1.27-0.989-2.258-2.188-3.034-3.529s-1.129-3.034-1.129-5.01c0-2.54,0.917-4.869,2.681-6.985
		c1.764-2.117,4.516-3.952,8.115-5.433v-1.059c-4.587-2.117-8.115-4.869-10.655-8.256c-2.541-3.387-3.811-7.268-3.811-11.643
		c0-6.633,2.47-12.137,7.48-16.441c4.939-4.304,11.36-6.421,19.122-6.421c2.117,0,4.304,0.212,6.421,0.635
		c2.117,0.423,4.305,0.987,6.421,1.623h24.556v6.844h-16.582v0.423c1.764,2.046,3.104,4.304,3.951,6.774s1.27,4.939,1.27,7.268
		c0,6.209-2.54,11.431-7.55,15.735s-10.866,6.421-17.5,6.421h-8.679c-1.129,0.353-2.258,1.059-3.388,2.047
		c-1.199,0.987-1.764,2.399-1.764,4.092c0,1.764,0.494,3.104,1.482,4.022c0.988,0.918,2.188,1.552,3.669,1.905
		c1.411,0.353,2.963,0.635,4.798,0.706c1.835,0.07,3.74,0.141,5.716,0.211c2.117,0.071,4.939,0.213,8.608,0.423
		c3.669,0.213,6.209,0.354,7.762,0.424c2.188,0.071,4.375,0.636,6.633,1.553c2.188,0.987,4.234,2.257,6.069,3.952
		c1.903,1.834,3.387,3.88,4.515,6.139c1.059,2.328,1.624,5.15,1.624,8.538C135.762,159.118,135.056,162.293,133.574,165.257z
		 M188.896,127.083h-19.334v19.333h-5.434v-19.333h-19.334v-5.363h19.334v-19.333h5.434v19.333h19.334V127.083z"/>
	<path d="M128,0C57.297,0,0,57.297,0,128c0,70.704,57.297,128,128,128s128-57.296,128-128C256.07,57.297,198.703,0,128,0z
		 M128,241.394c-62.589,0-113.393-50.734-113.393-113.394C14.607,65.34,65.411,14.607,128,14.607S241.394,65.34,241.394,128
		C241.394,190.659,190.659,241.394,128,241.394z"/>
	<path d="M97.588,116.781c4.092,0,7.268-1.624,9.455-4.939c2.188-3.316,3.316-7.479,3.316-12.56c0-5.575-1.129-10.02-3.387-13.336
		c-2.258-3.316-5.433-4.939-9.525-4.939c-2.258,0-4.164,0.494-5.787,1.411c-1.623,0.917-2.893,2.258-3.881,3.952
		c-0.988,1.553-1.623,3.458-2.046,5.645s-0.635,4.516-0.635,6.845c0,5.292,1.129,9.597,3.458,12.913
		C90.884,115.157,93.918,116.781,97.588,116.781z"/>
	<path d="M116.569,148.322c-1.341-0.213-4.093-0.423-8.185-0.636c-4.164-0.211-8.962-0.354-14.395-0.354
		c-5.151,0.989-8.82,2.683-10.938,5.011c-2.188,2.329-3.246,5.362-3.246,9.103c0,1.693,0.353,3.246,1.059,4.799
		c0.706,1.552,1.976,2.963,3.74,4.233c1.693,1.27,3.881,2.258,6.704,3.034c2.822,0.775,6.209,1.199,10.302,1.199
		c6.986,0,12.49-1.34,16.512-4.021c4.021-2.681,6.068-6.774,6.068-12.277c0-2.682-0.635-4.87-1.835-6.563
		C120.944,150.086,119.109,148.887,116.569,148.322z"/>
</g>
</svg>
