<?xml version="1.0" encoding="utf-8"?>
<!-- Generator: Adobe Illustrator 16.0.3, SVG Export Plug-In . SVG Version: 6.00 Build 0)  -->
<!DOCTYPE svg PUBLIC "-//W3C//DTD SVG 1.1//EN" "http://www.w3.org/Graphics/SVG/1.1/DTD/svg11.dtd">
<svg version="1.1" id="Слой_1" xmlns="http://www.w3.org/2000/svg" xmlns:xlink="http://www.w3.org/1999/xlink" x="0px" y="0px"
	 width="256px" height="256px" viewBox="0 0 256 256" enable-background="new 0 0 256 256" xml:space="preserve">
<g>
	<path d="M128.07,0C57.367,0,0,57.297,0,128c0,70.704,57.296,128,128,128c70.704,0,128-57.296,128-128
		C256,57.297,198.772,0,128.07,0z M128.07,241.394c-62.66,0-113.394-50.734-113.394-113.394c0-62.66,50.734-113.393,113.394-113.393
		c62.589,0,113.394,50.733,113.394,113.393C241.464,190.659,190.659,241.394,128.07,241.394z"/>
	<path d="M128.07,21.945C69.503,21.945,22.016,69.433,22.016,128c0,58.566,47.488,106.055,106.055,106.055
		c58.565,0,106.055-47.488,106.055-106.055C234.125,69.433,186.636,21.945,128.07,21.945z M167.585,162.576
		c-1.977,4.021-4.656,7.338-8.044,9.949c-4.022,3.175-8.396,5.361-13.196,6.703c-4.797,1.34-10.865,1.976-18.274,1.976H85.521
		V74.867h37.539c7.833,0,13.759,0.282,17.782,0.917c4.022,0.635,7.833,1.834,11.36,3.74c3.81,2.046,6.633,4.798,8.539,8.255
		c1.904,3.458,2.821,7.409,2.821,11.854c0,5.222-1.271,9.808-3.881,13.83c-2.61,4.022-6.21,6.986-10.725,8.962v0.564
		c6.562,1.412,11.854,4.164,15.805,8.468c3.953,4.233,5.928,10.02,5.928,17.217C170.619,153.896,169.562,158.554,167.585,162.576z"
		/>
	<path d="M125.036,116.71c1.835-0.07,3.74-0.564,5.645-1.482c2.117-0.988,3.599-2.399,4.445-4.163c0.776-1.764,1.2-3.811,1.2-6.139
		c0-1.693-0.424-3.458-1.342-5.292c-0.847-1.834-2.257-3.104-4.092-3.951c-1.765-0.776-3.81-1.2-6.28-1.27
		c-2.399-0.071-5.998-0.142-10.726-0.142h-1.835v22.51h3.317C120.026,116.852,123.202,116.781,125.036,116.71z"/>
	<path d="M135.056,136.186c-1.623-0.636-3.881-0.988-6.703-1.06c-2.822-0.07-6.633-0.14-11.361-0.14h-4.939v26.743h1.412
		c6.985,0,11.784-0.071,14.395-0.143c2.683-0.07,5.363-0.775,8.114-1.904c2.399-1.06,4.235-2.611,5.292-4.587
		c1.13-2.046,1.693-4.305,1.693-6.916c0-3.315-0.634-5.855-1.975-7.69C139.713,138.584,137.737,137.173,135.056,136.186z"/>
</g>
</svg>
