<?xml version="1.0" encoding="utf-8"?>
<!-- Generator: Adobe Illustrator 16.0.3, SVG Export Plug-In . SVG Version: 6.00 Build 0)  -->
<!DOCTYPE svg PUBLIC "-//W3C//DTD SVG 1.1//EN" "http://www.w3.org/Graphics/SVG/1.1/DTD/svg11.dtd">
<svg version="1.1" id="Слой_1" xmlns="http://www.w3.org/2000/svg" xmlns:xlink="http://www.w3.org/1999/xlink" x="0px" y="0px"
	 width="256px" height="256px" viewBox="0 0 256 256" enable-background="new 0 0 256 256" xml:space="preserve">
<g>
	<path d="M128,0C57.296,0,0,57.297,0,128s57.296,128,128,128c70.704,0,128-57.297,128-128S198.704,0,128,0z M128,241.395
		C65.412,241.395,14.606,190.66,14.606,128S65.412,14.607,128,14.607c62.59,0,113.395,50.734,113.395,113.394
		S190.661,241.395,128,241.395z"/>
	<path d="M128,21.945C69.434,21.945,21.945,69.434,21.945,128S69.434,234.056,128,234.056S234.056,186.567,234.056,128
		S186.567,21.945,128,21.945z M101.469,178.241H76.066v-76.419h25.403V178.241z M88.768,91.379h-0.142
		c-8.538,0-14.042-5.857-14.042-13.195c0-7.479,5.716-13.195,14.395-13.195c8.679,0,14.042,5.716,14.183,13.195
		C103.163,85.522,97.658,91.379,88.768,91.379z M193.059,178.241L193.059,178.241h-25.401v-40.856
		c0-10.231-3.67-17.287-12.844-17.287c-6.984,0-11.147,4.728-13.054,9.313c-0.634,1.624-0.847,3.882-0.847,6.21v42.69h-25.402
		c0,0,0.353-69.222,0-76.419h25.402v10.796c3.387-5.222,9.385-12.631,22.934-12.631c16.724,0,29.212,10.938,29.212,34.364V178.241z"
		/>
</g>
</svg>
