<?xml version="1.0" encoding="utf-8"?>
<!-- Generator: Adobe Illustrator 16.0.3, SVG Export Plug-In . SVG Version: 6.00 Build 0)  -->
<!DOCTYPE svg PUBLIC "-//W3C//DTD SVG 1.1//EN" "http://www.w3.org/Graphics/SVG/1.1/DTD/svg11.dtd">
<svg version="1.1" id="Слой_1" xmlns="http://www.w3.org/2000/svg" xmlns:xlink="http://www.w3.org/1999/xlink" x="0px" y="0px"
	 width="256px" height="256px" viewBox="0 0 256 256" enable-background="new 0 0 256 256" xml:space="preserve">
<g>
	<path d="M128,0C57.297,0,0,57.297,0,128c0,70.704,57.297,128,128,128c70.705,0,128-57.296,128-128C256,57.297,198.704,0,128,0z
		 M128,241.394c-62.588,0-113.393-50.734-113.393-113.394C14.607,65.411,65.411,14.607,128,14.607
		c62.589,0,113.394,50.733,113.394,113.393C241.394,190.659,190.589,241.394,128,241.394z"/>
	<path d="M128,21.945C69.433,21.945,21.945,69.433,21.945,128c0,58.566,47.488,106.055,106.054,106.055
		c58.567,0,106.055-47.488,106.055-106.055C234.055,69.433,186.566,21.945,128,21.945z M156.083,127.577h-18.346
		c0,29.353,0,65.482,0,65.482H110.5c0,0,0-35.775,0-65.482H97.517v-23.145H110.5V89.473c0-10.726,5.081-27.449,27.519-27.449
		l20.181,0.07v22.438c0,0-12.277,0-14.605,0c-2.399,0-5.786,1.2-5.786,6.28v13.619h20.745L156.083,127.577z"/>
</g>
</svg>
