<?xml version="1.0" encoding="utf-8"?>
<!-- Generator: Adobe Illustrator 16.0.3, SVG Export Plug-In . SVG Version: 6.00 Build 0)  -->
<!DOCTYPE svg PUBLIC "-//W3C//DTD SVG 1.1//EN" "http://www.w3.org/Graphics/SVG/1.1/DTD/svg11.dtd">
<svg version="1.1" id="Слой_1" xmlns="http://www.w3.org/2000/svg" xmlns:xlink="http://www.w3.org/1999/xlink" x="0px" y="0px"
	 width="256px" height="256px" viewBox="0 0 256 256" enable-background="new 0 0 256 256" xml:space="preserve">
<g>
	<path d="M128,0C57.297,0,0,57.297,0,128c0,70.704,57.297,128,128,128c70.703,0,128-57.296,128-128C256,57.297,198.703,0,128,0z
		 M128,241.394c-62.589,0-113.394-50.734-113.394-113.394C14.607,65.34,65.411,14.607,128,14.607
		c62.588,0,113.393,50.733,113.393,113.393C241.394,190.659,190.659,241.394,128,241.394z"/>
	<path d="M128,21.945C69.434,21.945,21.945,69.433,21.945,128c0,58.566,47.488,106.055,106.055,106.055
		c58.566,0,106.054-47.488,106.054-106.055C234.055,69.433,186.566,21.945,128,21.945z M179.722,101.54
		c0.07,1.128,0.07,2.328,0.07,3.458c0,35.21-26.813,75.854-75.854,75.854c-15.03,0-29.072-4.444-40.855-11.994
		c2.117,0.28,4.233,0.352,6.351,0.352c12.489,0,23.991-4.233,33.093-11.432c-11.713-0.21-21.521-7.902-24.908-18.486
		c1.623,0.282,3.316,0.493,5.01,0.493c2.399,0,4.798-0.353,7.057-0.917c-12.208-2.47-21.38-13.195-21.38-26.178v-0.353
		c3.598,1.975,7.691,3.175,12.066,3.316c-7.127-4.798-11.854-12.913-11.854-22.227c0-4.869,1.341-9.455,3.599-13.407
		c13.195,16.159,32.812,26.743,54.968,27.872c-0.494-1.976-0.705-3.951-0.705-6.068c0-14.747,11.924-26.672,26.672-26.672
		c7.691,0,14.605,3.246,19.476,8.397c6.068-1.199,11.783-3.387,16.934-6.492c-1.976,6.209-6.209,11.431-11.713,14.748
		c5.362-0.635,10.515-2.046,15.313-4.164C189.389,93.072,184.872,97.729,179.722,101.54z"/>
</g>
</svg>
