<?xml version="1.0" encoding="utf-8"?>
<!-- Generator: Adobe Illustrator 16.0.3, SVG Export Plug-In . SVG Version: 6.00 Build 0)  -->
<!DOCTYPE svg PUBLIC "-//W3C//DTD SVG 1.1//EN" "http://www.w3.org/Graphics/SVG/1.1/DTD/svg11.dtd">
<svg version="1.1" id="Слой_1" xmlns="http://www.w3.org/2000/svg" xmlns:xlink="http://www.w3.org/1999/xlink" x="0px" y="0px"
	 width="256px" height="256px" viewBox="0 0 256 256" enable-background="new 0 0 256 256" xml:space="preserve">
<g>
	<path d="M127.999,0C57.296,0,0,57.296,0,127.999C0,198.703,57.296,256,127.999,256C198.703,256,256,198.703,256,127.999
		C256,57.296,198.703,0,127.999,0z M127.999,241.394c-62.588,0-113.393-50.734-113.393-113.395
		c0-62.659,50.804-113.393,113.393-113.393c62.59,0,113.395,50.734,113.395,113.393
		C241.394,190.659,190.589,241.394,127.999,241.394z"/>
	<g>
		<path d="M151.85,139.925h-40.432c-3.81,0-6.844,3.033-6.844,6.844c0,3.74,3.105,6.845,6.844,6.845h40.432
			c3.811,0,6.845-3.104,6.845-6.845C158.694,142.958,155.66,139.925,151.85,139.925z"/>
		<path d="M111.417,112.546h19.899c3.81,0,6.845-3.105,6.845-6.844c0-3.74-3.105-6.845-6.845-6.845h-19.899
			c-3.81,0-6.844,3.105-6.844,6.845C104.573,109.441,107.607,112.546,111.417,112.546z"/>
		<path d="M127.999,21.945c-58.566,0-106.054,47.488-106.054,106.054c0,58.566,47.488,106.056,106.054,106.056
			c58.566,0,106.056-47.489,106.056-106.056C234.055,69.433,186.565,21.945,127.999,21.945z M188.049,147.263
			c-0.071,19.688-16.16,35.846-35.847,35.846h-41.208c-19.757,0-35.846-16.158-35.846-35.846V105.42
			c0-19.758,16.159-35.917,35.846-35.917h25.05c9.244,1.129,22.721,9.032,27.731,19.616c1.34,2.964,2.116,3.387,3.175,12.208
			c0.635,4.516,0.918,7.833,2.964,9.738c2.821,2.611,13.406,0.847,15.452,2.469l1.623,1.27l0.918,1.976l0.352,1.552L188.049,147.263
			z"/>
	</g>
</g>
</svg>
