<?xml version="1.0" encoding="utf-8"?>
<!-- Generator: Adobe Illustrator 16.0.3, SVG Export Plug-In . SVG Version: 6.00 Build 0)  -->
<!DOCTYPE svg PUBLIC "-//W3C//DTD SVG 1.1//EN" "http://www.w3.org/Graphics/SVG/1.1/DTD/svg11.dtd">
<svg version="1.1" id="Слой_1" xmlns="http://www.w3.org/2000/svg" xmlns:xlink="http://www.w3.org/1999/xlink" x="0px" y="0px"
	 width="256.001px" height="256px" viewBox="0 0 256.001 256" enable-background="new 0 0 256.001 256" xml:space="preserve">
<g>
	<polygon points="160.813,102.386 152.626,135.902 169.562,135.902 161.377,102.386 	"/>
	<path d="M128,21.945C69.434,21.945,21.945,69.434,21.945,128c0,58.566,47.489,106.054,106.055,106.054
		c58.567,0,106.055-47.488,106.055-106.054C234.055,69.434,186.567,21.945,128,21.945z M121.155,140.137
		c0,16.23-10.443,28.508-31.118,28.508c-20.816,0-31.118-11.572-31.118-28.508V87.356h18.981v52.216
		c0,10.09,3.669,14.959,12.137,14.959c8.467,0,12.137-4.938,12.137-14.959V87.356h18.981V140.137z M176.759,166.738l-4.163-17.076
		h-23.003l-4.093,17.076h-20.041l24.415-79.312h23.003l24.274,79.312H176.759z"/>
	<path d="M128,0C57.297,0,0,57.297,0,128c0,70.703,57.297,128,128,128s128.001-57.297,128.001-128C256.001,57.297,198.703,0,128,0z
		 M128,241.395C65.411,241.395,14.606,190.66,14.606,128C14.606,65.411,65.411,14.607,128,14.607S241.394,65.341,241.394,128
		S190.589,241.395,128,241.395z"/>
</g>
</svg>
