<?xml version="1.0" encoding="utf-8"?>
<!-- Generator: Adobe Illustrator 18.0.0, SVG Export Plug-In . SVG Version: 6.00 Build 0)  -->
<!DOCTYPE svg PUBLIC "-//W3C//DTD SVG 1.1//EN" "http://www.w3.org/Graphics/SVG/1.1/DTD/svg11.dtd">
<svg version="1.1" id="Layer_1" xmlns="http://www.w3.org/2000/svg" xmlns:xlink="http://www.w3.org/1999/xlink" x="0px" y="0px"
	 viewBox="0 0 16 16" enable-background="new 0 0 16 16" xml:space="preserve">
<circle fill="#2880A6" cx="8" cy="8" r="8"/>
<path fill="#FFFFFF" d="M9.4,11.2c0.7-0.3,2.4-1.5,2.3-4.1c-0.1-4.4-3.4-4.5-4-4.5c-0.6,0-4,0.1-4,4.5c0,0.7,0.1,1.4,0.3,1.9
	c1.2,3.2,4.3,2.6,4.4,2.5c0.3,2.6,2.8,2,3.8,2v-1.2C12,12.3,9.4,13.3,9.4,11.2z M7.6,10.5C6.7,10.5,4.9,10,4.7,7
	c0-1.1,0.4-3.5,2.8-3.5c2.5,0,2.8,2.4,2.8,3.5C10.4,8.2,9.9,10.5,7.6,10.5z"/>
</svg>
