<?xml version="1.0" encoding="utf-8"?>
<!-- Generator: Adobe Illustrator 16.0.3, SVG Export Plug-In . SVG Version: 6.00 Build 0)  -->
<!DOCTYPE svg PUBLIC "-//W3C//DTD SVG 1.1//EN" "http://www.w3.org/Graphics/SVG/1.1/DTD/svg11.dtd">
<svg version="1.1" id="Слой_1" xmlns="http://www.w3.org/2000/svg" xmlns:xlink="http://www.w3.org/1999/xlink" x="0px" y="0px"
	 width="236.409px" height="256px" viewBox="0 0 236.409 256" enable-background="new 0 0 236.409 256" xml:space="preserve">
<g>
	<path d="M117.796,256c-25.612,0-51.306,0-76.877,0c-23.989,0-40.915-16.927-40.915-40.833c0-7.063,0.082-14.167,0-21.229
		c-0.122-7.835,2.192-14.897,7.469-20.62c4.099-4.384,8.768-8.321,13.557-11.975c3.734-2.882,9.254-1.704,12.055,1.989
		c2.882,3.896,2.476,8.971-1.218,12.218c-2.476,2.192-5.155,4.1-7.469,6.332c-3.328,3.166-4.952,7.144-4.789,11.853
		c0.203,7.631,0,15.18,0.081,22.771c0.082,11.081,8.605,19.768,19.686,19.808c52.482,0.081,105.046,0.081,157.529,0
		c11.081,0,19.686-8.687,19.768-19.768c0.081-7.671-0.082-15.383,0.081-23.054c0.081-4.953-1.706-8.971-5.074-12.421
		c-5.925-6.048-13.475-9.66-21.228-12.542c-17.373-6.495-35.396-9.175-53.823-10.432c-10.025-0.65-20.173-0.365-29.995-1.989
		c-24.476-4.1-44.162-25.45-46.759-50.209c-0.853-8.524-0.568-17.21-0.649-25.815c-0.081-11.486-0.081-23.014,0-34.501
		C59.266,19.809,79.154,0,104.848,0c9.011,0,18.063,0,27.073,0c24.476-0.081,44.649,19.28,45.217,43.877
		c0.407,18.997,0.203,37.952,0,56.947c-0.081,7.753-2.11,15.222-5.438,22.203c-2.273,4.79-7.347,6.777-12.136,4.993
		c-4.79-1.746-7.916-6.901-6.05-11.65c3.086-7.955,4.101-15.951,3.735-24.638c-0.568-15.383,0.284-30.767,0.284-46.15
		c-0.081-13.314-10.147-24.557-23.34-25.896c-6.29-0.568-12.704-0.203-19.077-0.163c-4.992,0.082-10.107-0.203-15.018,0.65
		c-11.975,1.989-21.107,12.704-21.31,24.841c-0.203,14.247-0.122,28.494,0,42.741c0.081,6.697-0.122,13.597,1.258,20.092
		c3.815,17.575,19.767,29.833,37.749,29.914c25.043,0.122,49.682,3.166,73.427,11.649c10.879,3.896,21.146,8.89,30.117,16.235
		c7.632,6.292,13.679,13.761,14.693,23.989c0.569,6.007,0.365,12.055,0.203,18.143c-0.082,5.643,0.122,11.365-0.975,16.846
		c-3.814,18.631-19.768,31.173-38.925,31.173C170.156,256,143.977,256,117.796,256L117.796,256z"/>
	<path d="M63.933,152.576c0.081,5.278-4.384,9.824-9.66,9.864c-5.521,0.081-9.945-4.425-9.945-9.944
		c0.082-5.236,4.303-9.58,9.539-9.661C59.347,142.714,63.852,147.098,63.933,152.576z"/>
</g>
</svg>
