<?xml version="1.0" encoding="utf-8"?>
<!-- Generator: Adobe Illustrator 18.0.0, SVG Export Plug-In . SVG Version: 6.00 Build 0)  -->
<!DOCTYPE svg PUBLIC "-//W3C//DTD SVG 1.1//EN" "http://www.w3.org/Graphics/SVG/1.1/DTD/svg11.dtd">
<svg class="left-arrow-svg" version="1.1" id="Слой_1" xmlns="http://www.w3.org/2000/svg" xmlns:xlink="http://www.w3.org/1999/xlink" x="0px" y="0px"
	 viewBox="0 0 265.3 370" enable-background="new 0 0 265.3 370" xml:space="preserve">
<path class="right-arrow-path" fill-rule="evenodd" clip-rule="evenodd" d="M29.7,58c-0.3-10.8,4.9-20.4,15.5-25.3c10.3-4.8,19.9-2.9,28.6,4.2
	c50.5,41.2,101.1,82.4,151.7,123.6c7.6,6.2,11.4,15.5,11.3,24.9c0.1,9.4-3.7,18.7-11.3,24.9C175,251.4,124.4,292.6,73.9,333.8
	c-8.8,7.1-18.4,9-28.6,4.2c-10.6-4.9-15.8-14.5-15.5-25.3c0-14.2-25.8-13.4-25.8,2.2c0,18.7,10.8,37.5,30.2,46.5
	c19.4,9.1,38.3,6.7,54.9-6.9c43.8-35.7,149.3-121.7,157.5-129.9c10.9-10.8,16.2-25.1,16.2-39.3c0-14.2-5.3-28.4-16.2-39.3
	C238.4,138,132.8,51.9,89.1,16.2C72.4,2.7,53.5,0.3,34.1,9.4C14.8,18.4,4,37.2,4,55.9C4,71.4,29.7,72.3,29.7,58z"/>
</svg>
