<?xml version="1.0" encoding="utf-8"?>
<!-- Generator: Adobe Illustrator 18.0.0, SVG Export Plug-In . SVG Version: 6.00 Build 0)  -->
<!DOCTYPE svg PUBLIC "-//W3C//DTD SVG 1.1//EN" "http://www.w3.org/Graphics/SVG/1.1/DTD/svg11.dtd">
<svg class="left-arrow-svg" version="1.1" id="Слой_1" xmlns="http://www.w3.org/2000/svg" xmlns:xlink="http://www.w3.org/1999/xlink" x="0px" y="0px"
	 viewBox="0 0 268.7 371" enable-background="new 0 0 268.7 371" xml:space="preserve">
<path class="left-arrow-path" fill-rule="evenodd" clip-rule="evenodd" d="M238.2,313.2c0.3,10.8-4.9,20.4-15.5,25.3c-10.3,4.8-19.9,2.9-28.6-4.2
	c-50.5-41.2-101.1-82.4-151.7-123.6c-7.6-6.2-11.4-15.5-11.3-24.9c-0.1-9.4,3.7-18.7,11.3-24.9C92.9,119.8,143.5,78.7,194,37.4
	c8.8-7.1,18.4-9,28.6-4.2c10.6,4.9,15.8,14.5,15.5,25.3c0,14.2,25.8,13.4,25.8-2.2c0-18.7-10.8-37.5-30.2-46.5
	c-19.4-9.1-38.3-6.7-54.9,6.9C135,52.4,29.5,138.5,21.3,146.6c-10.9,10.8-16.2,25.1-16.2,39.3c0,14.2,5.3,28.4,16.2,39.3
	c8.2,8.1,113.7,94.2,157.5,129.9c16.6,13.6,35.5,16,54.9,6.9c19.4-9.1,30.2-27.8,30.2-46.5C263.9,299.8,238.2,299,238.2,313.2z"/>
</svg>
