<?xml version="1.0" encoding="utf-8"?>
<!-- Generator: Adobe Illustrator 18.0.0, SVG Export Plug-In . SVG Version: 6.00 Build 0)  -->
<!DOCTYPE svg PUBLIC "-//W3C//DTD SVG 1.1//EN" "http://www.w3.org/Graphics/SVG/1.1/DTD/svg11.dtd">
<svg version="1.1" id="Слой_1" xmlns="http://www.w3.org/2000/svg" xmlns:xlink="http://www.w3.org/1999/xlink" x="0px" y="0px"
	 viewBox="0 0 369.3 372.7" enable-background="new 0 0 369.3 372.7" xml:space="preserve">
<g opacity="0.3">
	<path d="M184.7,3.8C84.5,3.8,3.3,85,3.3,185.2s81.2,181.4,181.4,181.4c100.2,0,181.4-81.2,181.4-181.4S284.9,3.8,184.7,3.8z
		 M184.7,345.9C96,345.9,24,274,24,185.2S96,24.5,184.7,24.5c88.7,0,160.7,71.9,160.7,160.7S273.4,345.9,184.7,345.9z"/>
	<g>
		<path d="M218.5,202.1h-57.3c-5.4,0-9.7,4.3-9.7,9.7c0,5.3,4.4,9.7,9.7,9.7h57.3c5.4,0,9.7-4.4,9.7-9.7
			C228.2,206.4,223.9,202.1,218.5,202.1z"/>
		<path d="M161.2,163.3h28.2c5.4,0,9.7-4.4,9.7-9.7c0-5.3-4.4-9.7-9.7-9.7h-28.2c-5.4,0-9.7,4.4-9.7,9.7
			C151.5,158.9,155.8,163.3,161.2,163.3z"/>
		<path d="M184.7,34.9c-83,0-150.3,67.3-150.3,150.3c0,83,67.3,150.3,150.3,150.3c83,0,150.3-67.3,150.3-150.3
			C335,102.2,267.7,34.9,184.7,34.9z M269.8,212.5c-0.1,27.9-22.9,50.8-50.8,50.8h-58.4c-28,0-50.8-22.9-50.8-50.8v-59.3
			c0-28,22.9-50.9,50.8-50.9h35.5c13.1,1.6,32.2,12.8,39.3,27.8c1.9,4.2,3,4.8,4.5,17.3c0.9,6.4,1.3,11.1,4.2,13.8
			c4,3.7,19,1.2,21.9,3.5l2.3,1.8l1.3,2.8l0.5,2.2L269.8,212.5z"/>
	</g>
</g>
</svg>
