<?xml version="1.0" encoding="utf-8"?>
<!-- Generator: Adobe Illustrator 18.0.0, SVG Export Plug-In . SVG Version: 6.00 Build 0)  -->
<!DOCTYPE svg PUBLIC "-//W3C//DTD SVG 1.1//EN" "http://www.w3.org/Graphics/SVG/1.1/DTD/svg11.dtd">
<svg version="1.1" id="Layer_1" xmlns="http://www.w3.org/2000/svg" xmlns:xlink="http://www.w3.org/1999/xlink" x="0px" y="0px"
	 viewBox="0 0 512 512" enable-background="new 0 0 512 512" xml:space="preserve">
<circle id="call-svg-border" fill="#417B64" cx="257.4" cy="255.8" r="220.5"/>
<path fill="#FFFFFF" d="M452.7,255.8c0,107.9-87.5,195.3-195.3,195.3C149.5,451.1,62,363.6,62,255.8c0-107.9,87.5-195.3,195.3-195.3
	C365.3,60.4,452.7,147.9,452.7,255.8z"/>
<circle id="call-svg-bg" fill="#417B64" cx="257.4" cy="255.8" r="182.7"/>
<g>
	<path fill="#FFFFFF" d="M267,273.6c-18.8,18.8-40.6,36.8-49.2,28.2c-12.3-12.3-19.9-23.1-47.1-1.2c-27.2,21.8-6.3,36.4,5.6,48.3
		c13.8,13.8,65.1,0.7,115.9-50c50.7-50.8,63.8-102.1,50-115.9c-11.9-11.9-26.5-32.8-48.3-5.6c-21.8,27.2-11.1,34.8,1.2,47.1
		C303.7,233,285.8,254.8,267,273.6z"/>
</g>
</svg>
