<?xml version="1.0" encoding="utf-8"?>
<!-- Generator: Adobe Illustrator 18.0.0, SVG Export Plug-In . SVG Version: 6.00 Build 0)  -->
<!DOCTYPE svg PUBLIC "-//W3C//DTD SVG 1.1//EN" "http://www.w3.org/Graphics/SVG/1.1/DTD/svg11.dtd">
<svg version="1.1" id="Слой_1" xmlns="http://www.w3.org/2000/svg" xmlns:xlink="http://www.w3.org/1999/xlink" x="0px" y="0px"
	 viewBox="0 0 375.7 374.7" enable-background="new 0 0 375.7 374.7" xml:space="preserve">
<g>
	<path  class="round" fill-rule="evenodd" clip-rule="evenodd" d="M369.9,198.5c-0.9,7-1.6,14-2.9,21c-7.5,41.2-26.8,76-57.9,104.1
		c-5,4.5-11.8,4.3-16.2-0.4c-4.4-4.8-4.2-11.6,1-16.4c12.9-11.8,24-25.1,32.5-40.4c17.8-32,25-66.3,18.7-102.4
		c-11-62.7-46.6-106-106.9-126.4c-55-18.6-106.2-8-151.2,28.5C54,93,35.7,128.7,30.7,171c-9.5,79.7,45.6,155.8,124.2,172.1
		c27.3,5.6,54.2,4.4,80.8-3.6c2.9-0.9,6.3-1.3,9.3-0.8c5.4,0.9,8.7,5.6,8.7,11c0,5.3-3.6,9.6-8.8,11c-14.6,3.9-29.2,7.5-44.4,8.2
		c-0.5,0-0.9,0.3-1.3,0.5c-7.1,0-14.2,0-21.3,0c-1-0.2-2.1-0.4-3.1-0.6c-8.5-1.2-17.1-2-25.5-3.8C78.3,350,21.8,291,9.9,219.5
		C8.8,212.8,8,206,7.1,199.2c0-7.3,0-14.6,0-22c0.2-1.1,0.5-2.3,0.6-3.4c1.2-15.2,4-30.2,9.3-44.5C40.8,64.6,86.6,24.9,153.8,10
		c7.9-1.8,16.1-2.4,24.1-3.5c7.1,0,14.2,0,21.3,0c1.2,0.2,2.3,0.4,3.5,0.6c9.2,1.4,18.5,2.3,27.5,4.4
		c71.2,16.8,124.6,73.8,137.1,145.8c1.1,6.6,1.8,13.3,2.7,19.9C369.9,184.3,369.9,191.4,369.9,198.5z"/>
	<path class="clock-arrow" fill-rule="evenodd" clip-rule="evenodd" d="M220.7,222.1c-10.3-0.1-17.9-3.7-24.3-10c-10.3-10.4-20.7-20.7-31-31.1
		c-6.6-6.6-13.4-5.6-17.7,2.6c-12.3,23.4-24.5,46.8-36.7,70.2c-2.5,4.7-2.3,8.1,0.6,11.1c2.9,3,6.6,3.3,11.3,0.8
		c19.5-10.3,39-20.5,58.6-30.8c5.8-3.1,12.6-1,15.4,4.7c2.8,5.5,0.6,12.1-5.2,15c-21.7,10.9-43.4,21.8-65.2,32.5
		c-19.2,9.4-41-4.8-39.8-26.1c0.2-4,1.6-8.1,3.4-11.8c12.7-25.8,25.6-51.5,38.5-77.3c9.9-19.8,35.5-24.2,51.4-8.7
		c10.7,10.4,21.1,21,31.6,31.5c7,6.9,13.6,6,18.1-2.7c12.3-23.5,24.6-47,36.9-70.5c3-5.7,0.6-11.7-5.2-12.7c-2-0.4-4.5,0.2-6.4,1.2
		c-19.5,10.1-38.9,20.3-58.3,30.5c-6.6,3.5-13.3,1.8-16.4-4.2c-3-5.9-0.4-12.2,6.2-15.4c21.3-10.6,42.6-21.3,63.9-31.9
		c15.8-7.9,34-0.1,39.1,16.5c2.1,6.7,1.7,13.3-1.5,19.6c-13.3,26.8-26.4,53.8-40.2,80.4C242,216.5,231.9,221.8,220.7,222.1z"/>
	<path class="dot dot-1" fill-rule="evenodd" clip-rule="evenodd" d="M199.8,74.5c-6.2,0-11.2-5-11.3-11.2c0-6.3,5.1-11.5,11.4-11.5
		c6.1,0,11.2,5.1,11.3,11.2C211.3,69.4,206.1,74.5,199.8,74.5z"/>
	<path class="dot dot-2" fill-rule="evenodd" clip-rule="evenodd" d="M64,187.9c-6.4,0.1-11.5-4.9-11.5-11.3c0-6.1,5-11.3,11.1-11.4
		c6.3-0.1,11.5,5,11.5,11.4C75.2,182.8,70.2,187.9,64,187.9z"/>
	<path class="dot dot-3" fill-rule="evenodd" clip-rule="evenodd" d="M313.4,210.7c-6.2,0.1-11.3-4.8-11.4-11c-0.1-6.4,4.9-11.6,11.2-11.7
		c6.2-0.1,11.5,5.2,11.5,11.4C324.6,205.6,319.6,210.6,313.4,210.7z"/>
	<path class="dot dot-4" fill-rule="evenodd" clip-rule="evenodd" d="M177.3,324.1c-6.2,0-11.3-4.8-11.4-11c-0.1-6.3,4.9-11.6,11.2-11.6
		c6.2-0.1,11.5,5.2,11.4,11.5C188.5,319.1,183.5,324.1,177.3,324.1z"/>
</g>
</svg>
