<?xml version="1.0" encoding="utf-8"?>
<!-- Generator: Adobe Illustrator 18.0.0, SVG Export Plug-In . SVG Version: 6.00 Build 0)  -->
<!DOCTYPE svg PUBLIC "-//W3C//DTD SVG 1.1//EN" "http://www.w3.org/Graphics/SVG/1.1/DTD/svg11.dtd">
<svg version="1.1" id="Слой_1" xmlns="http://www.w3.org/2000/svg" xmlns:xlink="http://www.w3.org/1999/xlink" x="0px" y="0px"
	 viewBox="0 0 369.3 372.7" enable-background="new 0 0 369.3 372.7" xml:space="preserve">
<g opacity="0.3">
	<path d="M184.5,4.8C84.3,4.8,3.1,86,3.1,186.2s81.2,181.4,181.4,181.4c100.2,0,181.4-81.2,181.4-181.4S284.7,4.8,184.5,4.8z
		 M184.5,346.9c-88.7,0-160.7-71.9-160.7-160.7c0-88.7,72-160.7,160.7-160.7c88.7,0,160.7,71.9,160.7,160.7
		C345.2,275,273.2,346.9,184.5,346.9z"/>
	<path d="M184.5,35.9c-83,0-150.3,67.3-150.3,150.3c0,83,67.3,150.3,150.3,150.3c83,0,150.3-67.3,150.3-150.3
		C334.8,103.2,267.5,35.9,184.5,35.9z M224.3,185.6h-26c0,41.6,0,92.8,0,92.8h-38.6c0,0,0-50.7,0-92.8h-18.4v-32.8h18.4v-21.2
		c0-15.2,7.2-38.9,39-38.9l28.6,0.1v31.8c0,0-17.4,0-20.7,0c-3.4,0-8.2,1.7-8.2,8.9v19.3h29.4L224.3,185.6z"/>
</g>
</svg>
