<?xml version="1.0" encoding="utf-8"?>
<!-- Generator: Adobe Illustrator 18.0.0, SVG Export Plug-In . SVG Version: 6.00 Build 0)  -->
<!DOCTYPE svg PUBLIC "-//W3C//DTD SVG 1.1//EN" "http://www.w3.org/Graphics/SVG/1.1/DTD/svg11.dtd">
<svg class="social-svg" version="1.1" id="Слой_1" xmlns="http://www.w3.org/2000/svg" xmlns:xlink="http://www.w3.org/1999/xlink" x="0px" y="0px"
	 viewBox="0 0 369.3 372.7" enable-background="new 0 0 369.3 372.7" xml:space="preserve">
<g class="social-svg-g" opacity="0.3">
	<path class="social-svg-g-path" d="M184.8,35.9c-83,0-150.3,67.3-150.3,150.3c0,83,67.3,150.3,150.3,150.3s150.3-67.3,150.3-150.3
		C335.2,103.2,267.8,35.9,184.8,35.9z M192.7,239c-2.1,4.2-5.3,7.9-9.5,11c-4.5,3.2-9.9,5.6-16.2,7.4c-6.3,1.8-14,2.6-23.3,2.6
		c-15.1,0-26.4-2.2-33.9-6.6c-7.5-4.4-11.2-10.9-11.2-19.4c0-6.9,2.7-12.3,8.1-16.3c5.4-4,12.3-6.1,20.6-6.5v-1.4
		c-2-0.6-4.1-1.4-6.3-2.3c-2.2-0.9-4-2-5.6-3.2c-1.8-1.4-3.2-3.1-4.3-5c-1.1-1.9-1.6-4.3-1.6-7.1c0-3.6,1.3-6.9,3.8-9.9
		c2.5-3,6.4-5.6,11.5-7.7v-1.5c-6.5-3-11.5-6.9-15.1-11.7c-3.6-4.8-5.4-10.3-5.4-16.5c0-9.4,3.5-17.2,10.6-23.3
		c7-6.1,16.1-9.1,27.1-9.1c3,0,6.1,0.3,9.1,0.9c3,0.6,6.1,1.4,9.1,2.3h34.8v9.7h-23.5v0.6c2.5,2.9,4.4,6.1,5.6,9.6
		c1.2,3.5,1.8,7,1.8,10.3c0,8.8-3.6,16.2-10.7,22.3c-7.1,6.1-15.4,9.1-24.8,9.1h-12.3c-1.6,0.5-3.2,1.5-4.8,2.9
		c-1.7,1.4-2.5,3.4-2.5,5.8c0,2.5,0.7,4.4,2.1,5.7c1.4,1.3,3.1,2.2,5.2,2.7c2,0.5,4.2,0.9,6.8,1c2.6,0.1,5.3,0.2,8.1,0.3
		c3,0.1,7,0.3,12.2,0.6c5.2,0.3,8.8,0.5,11,0.6c3.1,0.1,6.2,0.9,9.4,2.2c3.1,1.4,6,3.2,8.6,5.6c2.7,2.6,4.8,5.5,6.4,8.7
		c1.5,3.3,2.3,7.3,2.3,12.1C195.8,230.3,194.8,234.8,192.7,239z M271.1,184.9h-27.4v27.4H236v-27.4h-27.4v-7.6H236v-27.4h7.7v27.4
		h27.4V184.9z"/>
	<path class="social-svg-g-path" d="M184.8,4.8C84.6,4.8,3.4,86,3.4,186.2c0,100.2,81.2,181.4,181.4,181.4s181.4-81.2,181.4-181.4C366.3,86,285,4.8,184.8,4.8z
		 M184.8,346.9c-88.7,0-160.7-71.9-160.7-160.7S96.1,25.5,184.8,25.5s160.7,71.9,160.7,160.7S273.6,346.9,184.8,346.9z"/>
	<path class="social-svg-g-path" d="M141.7,170.3c5.8,0,10.3-2.3,13.4-7c3.1-4.7,4.7-10.6,4.7-17.8c0-7.9-1.6-14.2-4.8-18.9c-3.2-4.7-7.7-7-13.5-7
		c-3.2,0-5.9,0.7-8.2,2c-2.3,1.3-4.1,3.2-5.5,5.6c-1.4,2.2-2.3,4.9-2.9,8c-0.6,3.1-0.9,6.4-0.9,9.7c0,7.5,1.6,13.6,4.9,18.3
		C132.2,168,136.5,170.3,141.7,170.3z"/>
	<path class="social-svg-g-path" d="M168.6,215c-1.9-0.3-5.8-0.6-11.6-0.9c-5.9-0.3-12.7-0.5-20.4-0.5c-7.3,1.4-12.5,3.8-15.5,7.1c-3.1,3.3-4.6,7.6-4.6,12.9
		c0,2.4,0.5,4.6,1.5,6.8c1,2.2,2.8,4.2,5.3,6c2.4,1.8,5.5,3.2,9.5,4.3c4,1.1,8.8,1.7,14.6,1.7c9.9,0,17.7-1.9,23.4-5.7
		c5.7-3.8,8.6-9.6,8.6-17.4c0-3.8-0.9-6.9-2.6-9.3C174.8,217.5,172.2,215.8,168.6,215z"/>
</g>
</svg>
