<?xml version="1.0" encoding="utf-8"?>
<!-- Generator: Adobe Illustrator 18.0.0, SVG Export Plug-In . SVG Version: 6.00 Build 0)  -->
<!DOCTYPE svg PUBLIC "-//W3C//DTD SVG 1.1//EN" "http://www.w3.org/Graphics/SVG/1.1/DTD/svg11.dtd">
<svg class="social-svg" version="1.1" id="Слой_1" xmlns="http://www.w3.org/2000/svg" xmlns:xlink="http://www.w3.org/1999/xlink" x="0px" y="0px"
	 viewBox="0 0 369.3 372.7" enable-background="new 0 0 369.3 372.7" xml:space="preserve">
<g class="social-svg-g" opacity="0.3">
	<path class="social-svg-g-path" d="M184.6,4.8C84.4,4.8,3.2,86,3.2,186.2s81.2,181.4,181.4,181.4S366,286.4,366,186.2S284.8,4.8,184.6,4.8z M184.6,346.9
		c-88.7,0-160.7-71.9-160.7-160.7S95.9,25.5,184.6,25.5s160.7,71.9,160.7,160.7S273.4,346.9,184.6,346.9z"/>
	<path class="social-svg-g-path" d="M184.6,35.9c-83,0-150.3,67.3-150.3,150.3c0,83,67.3,150.3,150.3,150.3c83,0,150.3-67.3,150.3-150.3
		C334.9,103.2,267.6,35.9,184.6,35.9z M147,257.4h-36V149.1h36V257.4z M129,134.3h-0.2c-12.1,0-19.9-8.3-19.9-18.7
		c0-10.6,8.1-18.7,20.4-18.7c12.3,0,19.9,8.1,20.1,18.7C149.4,126,141.6,134.3,129,134.3z M276.8,257.4L276.8,257.4h-36v-57.9
		c0-14.5-5.2-24.5-18.2-24.5c-9.9,0-15.8,6.7-18.5,13.2c-0.9,2.3-1.2,5.5-1.2,8.8v60.5h-36c0,0,0.5-98.1,0-108.3h36v15.3
		c4.8-7.4,13.3-17.9,32.5-17.9c23.7,0,41.4,15.5,41.4,48.7V257.4z"/>
</g>
</svg>
