<?xml version="1.0" encoding="utf-8"?>
<!-- Generator: Adobe Illustrator 18.0.0, SVG Export Plug-In . SVG Version: 6.00 Build 0)  -->
<!DOCTYPE svg PUBLIC "-//W3C//DTD SVG 1.1//EN" "http://www.w3.org/Graphics/SVG/1.1/DTD/svg11.dtd">
<svg version="1.1" id="Слой_1" xmlns="http://www.w3.org/2000/svg" xmlns:xlink="http://www.w3.org/1999/xlink" x="0px" y="0px"
	 viewBox="0 0 370.5 370.5" enable-background="new 0 0 370.5 370.5" xml:space="preserve">
<g opacity="0.3">
	<polygon points="232,148.9 220.4,196.4 244.4,196.4 232.8,148.9 	"/>
	<path d="M185.5,34.9c-83,0-150.3,67.3-150.3,150.3c0,83,67.3,150.3,150.3,150.3c83,0,150.3-67.3,150.3-150.3
		C335.8,102.2,268.5,34.9,185.5,34.9z M175.8,202.4c0,23-14.8,40.4-44.1,40.4c-29.5,0-44.1-16.4-44.1-40.4v-74.8h26.9v74
		c0,14.3,5.2,21.2,17.2,21.2c12,0,17.2-7,17.2-21.2v-74h26.9V202.4z M254.6,240.1l-5.9-24.2h-32.6l-5.8,24.2h-28.4l34.6-112.4h32.6
		l34.4,112.4H254.6z"/>
	<path d="M185.5,3.8C85.3,3.8,4.1,85,4.1,185.2s81.2,181.4,181.4,181.4c100.2,0,181.4-81.2,181.4-181.4S285.7,3.8,185.5,3.8z
		 M185.5,345.9c-88.7,0-160.7-71.9-160.7-160.7c0-88.7,72-160.7,160.7-160.7c88.7,0,160.7,71.9,160.7,160.7
		C346.2,274,274.2,345.9,185.5,345.9z"/>
</g>
</svg>
