<?xml version="1.0" encoding="utf-8"?>
<!-- Generator: Adobe Illustrator 18.0.0, SVG Export Plug-In . SVG Version: 6.00 Build 0)  -->
<!DOCTYPE svg PUBLIC "-//W3C//DTD SVG 1.1//EN" "http://www.w3.org/Graphics/SVG/1.1/DTD/svg11.dtd">
<svg version="1.1" id="Слой_1" xmlns="http://www.w3.org/2000/svg" xmlns:xlink="http://www.w3.org/1999/xlink" x="0px" y="0px"
	 viewBox="0 0 516 67.3" enable-background="new 0 0 516 67.3" xml:space="preserve">
<g id="Logo">
	<path d="M30.9,53.8c-0.8,0.2-1.5,0.3-2.1,0.3c-1.9,0-3.2-0.5-3.9-1.4c-0.7-0.9-1.1-2.2-1.2-3.8c2.7-1.1,4.9-3,6.5-5.6
		c1.6-2.7,2.4-6,2.4-9.9c0-2.6-0.3-5-1-7.1c-0.7-2.1-1.7-3.8-3-5.3c-1.3-1.4-2.8-2.5-4.7-3.2c-1.8-0.8-3.9-1.1-6.2-1.1
		c-2.2,0-4.3,0.4-6.1,1.1c-1.9,0.7-3.4,1.8-4.7,3.2c-1.3,1.5-2.3,3.3-3,5.3c-0.7,2.1-1,4.4-1,7c0,2.7,0.3,5,1,7.1
		c0.7,2.1,1.7,3.8,3,5.2c1.3,1.4,2.9,2.5,4.7,3.3c1.8,0.7,3.9,1.1,6.2,1.1c0.3,0,0.6,0,0.9,0c0.3,0,0.7-0.1,1-0.1
		c0.1,2.6,1,4.5,2.5,5.9c1.5,1.4,3.5,2.1,6,2.1c0.9,0,1.7,0,2.6-0.1c0.8-0.1,1.7-0.2,2.6-0.5v-3.9h-0.6
		C32.3,53.4,31.7,53.6,30.9,53.8z M17.7,46.3c-3.2,0-5.7-1.1-7.6-3.4c-1.9-2.2-2.8-5.5-2.8-9.7c0-4.2,0.9-7.4,2.8-9.6
		c1.9-2.3,4.4-3.4,7.7-3.4c3.2,0,5.8,1.1,7.6,3.4c1.9,2.3,2.8,5.5,2.8,9.6c0,4.2-0.9,7.4-2.8,9.7C23.4,45.2,20.9,46.3,17.7,46.3z
		 M54.9,43.2c-1.1,0.8-2.2,1.5-3.5,2.1c-1.2,0.5-2.4,0.8-3.4,0.8c-1.2,0-2.1-0.1-2.7-0.4c-0.6-0.3-1.1-0.7-1.5-1.4
		c-0.4-0.6-0.6-1.4-0.7-2.2c-0.1-0.9-0.2-1.9-0.2-3.1V25.3h-4.1v15.6c0,3,0.7,5.3,2.1,6.8c1.4,1.5,3.4,2.3,5.9,2.3
		c1.5,0,2.9-0.3,4.1-0.9c1.3-0.6,2.6-1.4,3.9-2.5v2.7H59V25.3h-4.1V43.2z M82.9,26.5c-0.9-0.7-2-1.2-3.3-1.4
		c-1.3-0.3-2.7-0.4-4.4-0.4c-1.5,0-2.9,0.1-4.4,0.4c-1.5,0.3-2.6,0.5-3.4,0.7v4.1h0.2c1.4-0.5,2.7-0.9,4.1-1.2
		c1.3-0.3,2.5-0.4,3.6-0.4c0.9,0,1.7,0.1,2.5,0.2c0.8,0.1,1.5,0.3,2.1,0.7c0.6,0.3,1.1,0.8,1.4,1.4c0.3,0.6,0.5,1.4,0.5,2.3v0.6
		c-2.4,0.1-4.6,0.3-6.6,0.5c-2.1,0.2-3.8,0.7-5.3,1.3c-1.5,0.6-2.6,1.5-3.4,2.7c-0.8,1.1-1.2,2.6-1.2,4.4c0,2.2,0.8,4.1,2.3,5.5
		C69,49.3,70.8,50,73,50c1.2,0,2.2-0.1,3.1-0.3c0.9-0.2,1.7-0.5,2.3-0.8c0.6-0.3,1.2-0.6,1.8-1c0.6-0.4,1.1-0.8,1.5-1v2.6h4V33
		c0-1.6-0.2-2.9-0.7-3.9C84.5,28.1,83.8,27.2,82.9,26.5z M81.6,43.4c-1,0.8-2.1,1.4-3.3,2c-1.2,0.6-2.5,0.8-3.9,0.8
		c-1.7,0-3-0.3-3.8-1c-0.8-0.7-1.3-1.7-1.3-3.1c0-1.2,0.4-2.2,1.1-2.9c0.7-0.7,1.7-1.2,2.8-1.5c1-0.3,2.3-0.5,4-0.6
		c1.7-0.1,3.1-0.3,4.4-0.3V43.4z M93.5,49.3h4.1V15.8h-4.1V49.3z M105.4,21.2h4.6V17h-4.6V21.2z M105.6,49.3h4.1V25.3h-4.1V49.3z
		 M121.8,18.4h-4.1v6.9H115v3.4h2.7v12.8c0,2.9,0.6,5,1.9,6.4c1.3,1.3,3.1,2,5.6,2c0.7,0,1.5-0.1,2.4-0.2c0.9-0.1,1.7-0.3,2.5-0.5
		v-3.6H130c-0.3,0.1-0.8,0.3-1.6,0.5c-0.7,0.2-1.4,0.3-2.1,0.3c-1.1,0-2-0.1-2.5-0.4c-0.6-0.3-1-0.7-1.3-1.3c-0.3-0.6-0.5-1.3-0.6-2
		c-0.1-0.7-0.1-1.7-0.1-3v-11h8.4v-3.4h-8.4V18.4z M144.2,43.1l-7.4-17.8h-4.4l9.6,22.9l-4.5,10h4.3l14-32.9h-4.2L144.2,43.1z
		 M169.5,17.3l-11.7,32.1h4.3l3.1-8.9h13.9l3.1,8.9h4.5l-11.7-32.1H169.5z M166.5,36.7l5.6-15.8l5.6,15.8H166.5z M202.7,36
		c-0.6-0.1-1.4-0.3-2.3-0.5c-0.9-0.2-1.8-0.3-2.5-0.5c-1.3-0.3-2.3-0.7-2.9-1.2c-0.6-0.5-0.9-1.3-0.9-2.2c0-1.1,0.5-2,1.5-2.5
		c1-0.6,2.3-0.9,3.7-0.9c1.4,0,2.9,0.3,4.4,0.8c1.5,0.5,2.7,1.2,3.8,1.9h0.2v-4.3c-1-0.5-2.2-0.9-3.7-1.3c-1.5-0.3-2.9-0.5-4.4-0.5
		c-1.5,0-2.9,0.2-4.2,0.6c-1.2,0.4-2.3,0.9-3.1,1.6c-0.8,0.7-1.5,1.5-1.9,2.3c-0.4,0.9-0.6,1.8-0.6,2.8c0,1.6,0.4,2.9,1.3,4
		c0.9,1.1,2.4,1.9,4.5,2.5c0.8,0.2,1.6,0.4,2.5,0.6c0.9,0.2,1.7,0.3,2.3,0.5c1.5,0.3,2.6,0.8,3.1,1.3c0.5,0.5,0.8,1.2,0.8,2.2
		c0,1.2-0.5,2.1-1.5,2.7c-1,0.6-2.4,0.9-4.2,0.9c-1.4,0-2.9-0.3-4.5-0.9c-1.6-0.6-3-1.3-4.3-2.3h-0.2v4.5c1,0.5,2.3,1,3.7,1.4
		c1.5,0.4,3.1,0.6,4.9,0.6c3.1,0,5.6-0.7,7.4-2.1c1.8-1.4,2.7-3.2,2.7-5.4c0-1.8-0.5-3.2-1.5-4.2C206,37.1,204.6,36.4,202.7,36z
		 M225.7,36c-0.6-0.1-1.4-0.3-2.3-0.5c-0.9-0.2-1.8-0.3-2.5-0.5c-1.3-0.3-2.3-0.7-2.9-1.2c-0.6-0.5-0.9-1.3-0.9-2.2
		c0-1.1,0.5-2,1.5-2.5c1-0.6,2.3-0.9,3.7-0.9c1.4,0,2.9,0.3,4.4,0.8c1.5,0.5,2.7,1.2,3.8,1.9h0.2v-4.3c-1-0.5-2.2-0.9-3.7-1.3
		c-1.5-0.3-2.9-0.5-4.4-0.5c-1.5,0-2.9,0.2-4.2,0.6c-1.2,0.4-2.3,0.9-3.1,1.6c-0.8,0.7-1.5,1.5-1.9,2.3c-0.4,0.9-0.6,1.8-0.6,2.8
		c0,1.6,0.4,2.9,1.3,4c0.9,1.1,2.4,1.9,4.5,2.5c0.8,0.2,1.6,0.4,2.5,0.6c0.9,0.2,1.7,0.3,2.3,0.5c1.5,0.3,2.6,0.8,3.1,1.3
		c0.5,0.5,0.8,1.2,0.8,2.2c0,1.2-0.5,2.1-1.5,2.7c-1,0.6-2.4,0.9-4.2,0.9c-1.4,0-2.9-0.3-4.5-0.9c-1.6-0.6-3-1.3-4.3-2.3h-0.2v4.5
		c1,0.5,2.3,1,3.7,1.4c1.5,0.4,3.1,0.6,4.9,0.6c3.1,0,5.6-0.7,7.4-2.1c1.8-1.4,2.7-3.2,2.7-5.4c0-1.8-0.5-3.2-1.5-4.2
		C229,37.1,227.6,36.4,225.7,36z M253.3,43.2c-1.1,0.8-2.2,1.5-3.5,2.1c-1.2,0.5-2.4,0.8-3.4,0.8c-1.2,0-2.1-0.1-2.7-0.4
		c-0.6-0.3-1.1-0.7-1.5-1.4c-0.4-0.6-0.6-1.4-0.7-2.2c-0.1-0.9-0.2-1.9-0.2-3.1V25.3h-4v15.6c0,3,0.7,5.3,2.1,6.8
		c1.4,1.5,3.4,2.3,5.9,2.3c1.5,0,2.9-0.3,4.1-0.9c1.3-0.6,2.6-1.4,3.9-2.5v2.7h4.1V25.3h-4.1V43.2z M277.3,25.3
		c-1.3,0-2.5,0.3-3.8,0.8c-1.2,0.5-2.6,1.5-4.3,2.7v-3.6h-4.1v24.1h4.1V32.2c1.1-0.9,2.2-1.6,3.4-2.1c1.2-0.6,2.4-0.8,3.6-0.8
		c0.8,0,1.4,0,2,0.1c0.6,0.1,1.2,0.2,1.8,0.3h0.2v-4.2c-0.6-0.1-1.1-0.2-1.4-0.2C278.6,25.3,278,25.3,277.3,25.3z M300,26.5
		c-0.9-0.7-2-1.2-3.3-1.4c-1.3-0.3-2.7-0.4-4.4-0.4c-1.5,0-2.9,0.1-4.4,0.4c-1.5,0.3-2.6,0.5-3.4,0.7v4.1h0.2
		c1.4-0.5,2.7-0.9,4.1-1.2c1.3-0.3,2.5-0.4,3.6-0.4c0.9,0,1.7,0.1,2.5,0.2c0.8,0.1,1.5,0.3,2.1,0.7c0.6,0.3,1.1,0.8,1.4,1.4
		c0.3,0.6,0.5,1.4,0.5,2.3v0.6c-2.4,0.1-4.6,0.3-6.6,0.5c-2.1,0.2-3.8,0.7-5.3,1.3c-1.5,0.6-2.6,1.5-3.3,2.7
		c-0.8,1.1-1.2,2.6-1.2,4.4c0,2.2,0.8,4.1,2.3,5.5c1.5,1.4,3.3,2.2,5.5,2.2c1.2,0,2.2-0.1,3.1-0.3c0.9-0.2,1.7-0.5,2.3-0.8
		c0.6-0.3,1.2-0.6,1.8-1c0.6-0.4,1.1-0.8,1.5-1v2.6h4V33c0-1.6-0.2-2.9-0.7-3.9C301.6,28.1,300.9,27.2,300,26.5z M298.8,43.4
		c-1,0.8-2.1,1.4-3.3,2c-1.2,0.6-2.5,0.8-3.9,0.8c-1.7,0-3-0.3-3.8-1c-0.8-0.7-1.3-1.7-1.3-3.1c0-1.2,0.4-2.2,1.1-2.9
		c0.7-0.7,1.7-1.2,2.8-1.5c1-0.3,2.3-0.5,4-0.6c1.7-0.1,3.1-0.3,4.4-0.3V43.4z M322.7,24.6c-1.4,0-2.8,0.3-4.2,0.9
		c-1.4,0.6-2.7,1.4-3.9,2.5v-2.7h-4v24.1h4v-18c1.1-0.8,2.3-1.5,3.5-2.1c1.2-0.5,2.4-0.8,3.5-0.8c1.1,0,2,0.1,2.6,0.4
		c0.7,0.3,1.2,0.7,1.6,1.3c0.3,0.5,0.6,1.3,0.7,2.3c0.1,1,0.2,2,0.2,3.1v13.7h4.1V33.7c0-2.9-0.7-5.2-2-6.8
		C327.3,25.4,325.3,24.6,322.7,24.6z M348.6,24.7c-3.5,0-6.4,1.1-8.6,3.4c-2.2,2.2-3.2,5.3-3.2,9.3c0,2.1,0.3,4,0.9,5.5
		c0.6,1.6,1.4,2.9,2.4,3.9c1,1,2.3,1.8,3.7,2.3c1.5,0.5,3,0.8,4.8,0.8c1.4,0,2.7-0.2,3.9-0.5c1.2-0.4,2.5-0.9,3.8-1.5v-4.5h-0.2
		c-0.3,0.2-0.7,0.5-1.2,0.9c-0.5,0.3-1.1,0.7-1.7,1c-0.7,0.3-1.4,0.6-2.3,0.8c-0.8,0.2-1.7,0.3-2.5,0.3c-2.4,0-4.2-0.8-5.5-2.3
		c-1.3-1.6-2-3.8-2-6.7c0-3,0.7-5.3,2-6.8c1.3-1.5,3.1-2.3,5.4-2.3c1.3,0,2.5,0.3,3.8,0.8c1.3,0.5,2.6,1.3,3.8,2.2h0.2v-4.5
		c-1.1-0.6-2.3-1-3.7-1.4C351.4,24.9,350,24.7,348.6,24.7z M381.7,35.5c0-3.5-0.9-6.2-2.6-8.1c-1.8-1.9-4.3-2.8-7.5-2.8
		c-3.5,0-6.3,1.2-8.5,3.5c-2.1,2.3-3.2,5.4-3.2,9.4c0,4,1.1,7.1,3.4,9.2c2.2,2.2,5.4,3.2,9.4,3.2c1.6,0,3.1-0.2,4.5-0.6
		c1.4-0.4,2.8-0.9,4.2-1.4v-4.4H381c-0.7,0.6-1.9,1.3-3.5,1.9c-1.7,0.7-3.3,1-4.9,1c-1.2,0-2.4-0.2-3.4-0.5c-1-0.3-1.9-0.9-2.7-1.6
		c-0.8-0.7-1.4-1.6-1.8-2.7c-0.4-1.1-0.7-2.4-0.7-3.9h17.7V35.5z M363.9,34.6c0.2-1.9,0.9-3.5,2.2-4.8c1.3-1.3,3-1.9,5.2-1.9
		c2.2,0,3.8,0.6,4.8,1.7c1.1,1.2,1.6,2.8,1.6,4.9H363.9z"/>
	<path d="M392.1,26c0.2-0.7,0.4-1.3,0.6-1.9c0.2-0.6,0.4-1.1,0.5-1.6c0.1-0.4,0.2-0.7,0.2-1c0.1-0.2,0.1-0.4,0.2-0.5
		c0.3-0.4,0.5-0.9,0.7-1.3c0.2-0.5,0.4-1,0.6-1.6c0.5-0.7,0.8-1.2,1.2-1.8c0.3-0.5,0.6-1,0.8-1.3c0.2-0.3,0.4-0.6,0.6-0.8
		c0.1-0.2,0.3-0.4,0.4-0.5c0.7-0.9,1.3-1.6,1.8-2.1c0.5-0.6,0.9-1,1.2-1.2c0.6-0.5,1.2-0.9,1.9-1.1c0.7-0.3,1.4-0.4,2.2-0.4
		c1.5,0,2.7,0.6,3.7,1.8c1,1.2,1.8,3,2.4,5.4c0.1,0.6,0.3,1.4,0.5,2.3c0,0.5,0.1,0.9,0.3,1.2c0.2,0.3,0.5,0.4,1,0.4
		c0.7,0,1.6-0.6,2.8-1.7c1.2-1.1,1.8-2.1,1.8-2.9c0-0.4-0.2-1.1-0.6-2.1c-0.4-1-0.7-1.6-0.9-2c-0.3-1-0.6-1.6-0.7-1.9
		C415,9,414.6,8.5,414,7.7c-0.6-0.7-1-1.3-1.4-1.7c-0.4-0.4-0.6-0.6-0.8-0.7c-0.5-0.2-1-0.4-1.5-0.6c-0.5-0.2-1-0.4-1.5-0.5
		l-0.5,0.2l-1-0.3l-3,0.4c-0.6,0.2-1.1,0.4-1.6,0.6c-0.4,0.2-0.8,0.4-1.2,0.6c-0.7,0.4-1.3,0.7-1.9,1.1c-0.6,0.4-1.1,0.7-1.6,1.1
		c-0.2,0.2-0.5,0.5-1.1,1c-0.6,0.5-1.3,1.2-2.1,2c-2.5,2.4-4.5,5.2-6,8.4c-1.5,3.2-2.6,6.8-3.1,10.9l-0.7,4.9c0.1,0.7,0.1,1.4,0.1,2
		c0,0.6-0.2,1.2-0.4,1.7c0.3,1.2,0.6,2.2,0.8,3c0.2,0.8,0.4,1.3,0.5,1.6c0.3,0.8,0.8,1.6,1.2,2.2c0.5,0.6,1,1.1,1.5,1.6
		c0.6,0.5,1.2,0.8,1.8,1c0.5,0.2,1.1,0.4,1.5,0.4c0.3-0.1,0.7-0.1,1.1-0.2l1.4,0.3c0.9-0.1,1.9-0.4,2.7-0.8c0.9-0.4,1.8-0.8,2.7-1.4
		c0.4-0.3,1-0.7,1.8-1.3c0.8-0.6,1.7-1.4,2.8-2.4c0.5-0.5,1.1-1,1.9-1.5c0.2,0,0.3,0,0.3,0.1c0.1,0.1,0.1,0.2,0.1,0.3
		c-0.1,0.3-0.1,0.6-0.2,0.9l0.4,2.1c-0.3,1.4-0.6,2.5-0.8,3.5c-0.2,0.9-0.3,1.6-0.3,2.1c0,0.8-0.1,1.6-0.1,2.2
		c-0.1,0.6-0.1,1.1-0.2,1.4c-0.2,0.7-0.3,1.3-0.4,1.8c-0.1,0.5-0.1,0.8-0.1,1c0,0.6,0.1,1,0.2,1.3c0.2,0.3,0.4,0.4,0.7,0.4
		c0.4,0,0.7-0.1,0.9-0.4c0.2-0.3,0.4-0.6,0.5-1.1c0.5-0.2,1-0.3,1.3-0.5c0.3-0.2,0.5-0.3,0.7-0.4c0.2-0.2,0.4-0.5,0.5-0.8
		c0.1-0.3,0.2-0.7,0.3-1.2c0.1-0.7,0.2-1.3,0.4-1.8c0.1-0.5,0.2-0.8,0.4-1c0.4-0.8,0.7-2,0.9-3.6c0.3-1.6,0.6-2.8,0.9-3.6
		c0.3-0.6,0.5-1.2,0.7-2c0.2-0.8,0.3-1.6,0.3-2.6c0.1-0.8,0.2-1.5,0.3-2c0.1-0.6,0.2-1.1,0.2-1.5c0-0.3,0.1-0.6,0.3-1.1
		c0.2-0.5,0.2-0.8,0.2-1.1c0-0.8-0.2-1.4-0.7-1.8c-0.4-0.4-1.1-0.6-2-0.6c-0.7,0-1.3,0.1-1.8,0.4c-0.6,0.3-1.1,0.7-1.5,1.3
		c-0.4,0.5-0.7,1.1-1.1,1.6c-0.4,0.6-0.7,1.1-1.2,1.7c-0.4,0.4-0.7,0.7-1,1.1c-0.3,0.3-0.6,0.6-0.8,0.7c-1,1.1-1.8,1.9-2.4,2.5
		c-0.6,0.6-1,1-1.2,1.2c-0.7,0.5-1.4,1-2.2,1.3c-0.8,0.3-1.6,0.5-2.5,0.5c-0.6,0-1.2-0.1-1.7-0.3c-0.5-0.2-0.9-0.4-1.2-0.8
		c-0.2-0.2-0.4-0.6-0.7-1c-0.2-0.5-0.5-1.1-0.8-1.7c-0.4-0.9-0.6-1.9-0.8-2.8c-0.2-0.9-0.2-1.9-0.2-2.8c0-0.4,0.1-1.3,0.2-2.7
		C391.5,30.2,391.7,28.4,392.1,26z M488,39.8c-0.2,0.1-0.4,0.1-0.6,0.1c-0.6,0-1-0.2-1.3-0.6c-0.3-0.4-0.4-1-0.4-1.8
		c0-0.2-0.1-0.6-0.1-1c-0.1-0.5-0.1-0.8-0.1-1c0-0.6,0-1.1-0.1-1.5c0-0.4-0.1-0.6-0.2-0.8c-0.1-0.3-0.4-0.5-0.7-0.6
		c-0.3-0.1-0.8-0.2-1.4-0.2c-0.6,0-1.2,0.3-1.7,0.8c-0.5,0.5-1,1.3-1.4,2.3c-0.2,0.2-0.4,0.5-0.6,0.7c-0.2,0.2-0.4,0.4-0.5,0.6
		c-0.4,0.6-0.8,1.2-1.2,1.8c-0.7,0.8-1.3,1.5-1.8,2.2c-0.5,0.6-0.9,1.1-1.3,1.5c-0.4,0.2-0.8,0.5-1.1,0.6c-0.3,0.2-0.6,0.3-0.8,0.5
		c-0.2,0.1-0.4-0.2-0.5-0.8c-0.1-0.6-0.2-1.5-0.2-2.7c0-0.7,0.1-1.4,0.2-2.2c0.1-0.8,0.3-1.6,0.5-2.6c0.2-0.7,0.4-1.5,0.7-2.3
		c0.2-0.8,0.4-1.5,0.6-2.3c0.2-0.5,0.4-0.9,0.5-1.3c0.1-0.3,0.2-0.5,0.2-0.8c0.1-0.2,0.1-0.4,0.1-0.6c0-0.4-0.1-0.7-0.3-0.9
		c-0.2-0.2-0.4-0.3-0.8-0.3c-0.2,0-0.5,0.1-1,0.3c-0.5,0.2-1.2,0.5-2,0.9c-0.5,0.7-1,1.4-1.5,2.1c-0.5,0.7-0.9,1.4-1.4,2
		c-0.6,0.7-1.1,1.3-1.7,2c-0.5,0.7-1,1.3-1.5,2c-0.6,0.7-1.1,1.3-1.6,1.9s-0.9,1-1.3,1.3c0,0.1,0,0.2-0.1,0.3
		c-0.1,0.1-0.1,0.2-0.2,0.2c0,0,0,0,0,0c-0.2,0.2-0.5,0.4-0.6,0.5c-0.2,0.1-0.4,0.2-0.5,0.2c-0.2,0-0.3-0.1-0.4-0.2
		c-0.1-0.1-0.2-0.3-0.3-0.6c0.2-0.2,0.5-0.5,0.7-0.9c0.3-0.4,0.5-1,0.7-1.6c0.2-0.6,0.3-1.1,0.4-1.6c0.1-0.5,0.1-0.9,0.1-1.3
		c0-2-0.4-3.4-1.2-4.4c-0.8-1-2-1.5-3.6-1.5c-0.2,0-0.5,0.1-1,0.3c-0.5,0.2-1.3,0.4-2.3,0.8l-0.2-0.3c0.2-0.5,0.5-1,0.7-1.5
		c0-0.2-0.2-0.4-0.4-0.5c-0.3-0.1-0.6-0.2-1.1-0.2c-0.4,0-0.8,0.1-1.2,0.3c-0.4,0.2-0.7,0.4-1.1,0.7c-0.3,0.3-0.6,0.6-0.9,1
		c-0.3,0.3-0.6,0.7-0.9,1c-0.3,0.2-0.5,0.5-0.9,0.7c-0.3,0.3-0.6,0.5-0.9,0.8c-0.4,0.3-0.7,0.6-0.9,0.9c-0.3,0.3-0.4,0.6-0.5,0.8
		c-0.9,0.8-1.7,1.5-2.4,2.1c-0.6,0.6-1.1,1.1-1.4,1.4l-2.5,1.7c-0.2,0.3-0.4,0.6-0.6,0.8c-0.2,0.3-0.3,0.5-0.5,0.6c0,0,0,0,0,0
		c-0.3,0.3-0.6,0.5-0.9,0.6c-0.2,0.1-0.9,0.7-2.1,1.9c-0.5,0.4-0.9,0.8-1.3,1c-0.4,0.3-0.7,0.4-1,0.4c-0.1,0-0.2,0-0.3-0.1
		c-0.1-0.1-0.1-0.2-0.1-0.3c0-0.8,0.3-2.1,1-3.7c0.7-1.6,1-2.9,1-3.7c0-1.7-0.2-3.1-0.7-4.2c-0.4-1.2-1.1-2.1-2-2.7
		c-0.1-0.1-0.3-0.2-0.5-0.4c-0.5-0.5-1-0.9-1.5-1.4c-0.5-0.4-1.1-0.7-1.9-0.7c-0.7,0-1.6,0.4-2.7,1.1c-1.1,0.7-1.8,1.4-2.1,1.9
		l0.3,1.6c-0.5,1-1.2,2.2-2.2,3.4c-1,1.2-2.3,2.5-3.9,3.8c-0.3,0.5-0.7,1-1,1.4c0.3,0.5,0.5,1,0.7,1.5c0.2,0.5,0.4,1,0.6,1.5
		c0.2-0.2,0.3-0.4,0.4-0.6c0.1-0.2,0.2-0.3,0.2-0.4c0.7-0.5,1.3-0.9,1.7-1.3c0.4-0.4,0.8-0.8,0.9-1.1c0.3-0.2,0.7-0.5,1.2-1
		c0.5-0.5,1.1-1.1,1.7-1.9c0.6-0.7,1.2-1.3,1.7-1.8c0.6-0.5,1.1-0.9,1.6-1.1c0.7,0.1,1.3,0.4,1.6,1c0.4,0.6,0.5,1.5,0.5,2.7
		c0,0.9-0.1,2-0.4,3.2c-0.2,1.2-0.6,2.5-1.1,3.8c-0.1,0.3-0.2,0.6-0.4,0.9c-0.2,0.3-0.3,0.6-0.4,0.9c-0.2,0.4-0.3,0.7-0.4,1
		c-0.1,0.3-0.1,0.6-0.1,0.8c0,0.6,0.2,1.1,0.7,1.3c0.5,0.3,1.1,0.4,2.1,0.4c0.6-0.2,1.1-0.4,1.5-0.7c1.7-1,3.1-1.9,4.3-2.7
		c1.2-0.8,2.2-1.4,2.9-2c0.3-0.3,0.6-0.6,0.9-0.8c0.3-0.2,0.5-0.4,0.7-0.6c0,0,0,0,0,0c0.2-0.2,0.3-0.4,0.4-0.6
		c0.1-0.2,0.2-0.3,0.2-0.4c0.8-0.6,1.4-1.1,1.8-1.4c0.4-0.3,0.7-0.5,0.8-0.5c0.2,0,0.3,0,0.4,0.1c0.1,0.1,0.1,0.2,0.1,0.4
		c0,0.2-0.1,0.7-0.4,1.5s-0.4,1.6-0.4,2.1c0,1.3,0.5,2.5,1.5,3.5c1,1,2.1,1.6,3.4,1.6c0.2,0,0.5,0,0.8-0.1c0.3-0.1,0.5-0.1,0.6-0.1
		c0.4,0,0.8-0.1,1.2-0.2c0.4-0.1,0.9-0.3,1.5-0.6c0.9-0.4,1.8-0.9,2.6-1.5c0.8-0.6,1.4-1.3,2-2c0.2,0.4,0.5,0.8,0.8,1
		c0.3,0.2,0.7,0.4,1.2,0.4c0.4,0,0.9-0.1,1.3-0.3c0.5-0.2,0.9-0.5,1.4-0.9c0.4-0.3,0.8-0.6,1.2-0.9c0.4-0.3,0.8-0.7,1.1-1
		c0,0,0,0,0,0c0.3-0.3,0.5-0.6,0.6-0.8c0.2-0.2,0.3-0.4,0.3-0.6l1.9-1.9l0.2-0.1c0.2,0,0.3,0.2,0.3,0.5c0.1,0.3,0.1,0.8,0.2,1.4
		c0,0.1,0,0.5,0,1.1c0.1,0.6,0.2,1.5,0.4,2.7c0.2,1.2,0.6,2.1,1.2,2.7c0.6,0.6,1.4,0.9,2.4,0.9c0.7,0,1.4-0.2,2.2-0.6
		c0.8-0.4,1.5-1.1,2.3-2c0.6-0.7,1.2-1.4,1.8-2c0.6-0.7,1.2-1.4,1.8-2.1c0.3-0.3,0.6-0.6,0.8-0.9c0.2-0.3,0.5-0.6,0.7-0.8
		c0.2,0.3,0.4,0.5,0.5,0.8c0.1,0.3,0.2,0.5,0.3,0.8c0.3,1.1,0.8,2,1.5,2.5c0.7,0.6,1.6,0.9,2.7,0.9c0.4,0,1-0.2,1.9-0.6
		c0.8-0.4,1.9-1,3.2-1.8l-1.3-3C488.5,39.7,488.3,39.7,488,39.8z M438.5,41c-0.1-0.2-0.2-0.4-0.3-0.6
		C438.3,40.6,438.5,40.8,438.5,41c0.2,0.3,0.3,0.6,0.4,0.8C438.7,41.5,438.6,41.2,438.5,41z M456.4,38.2c-0.1,0.4-0.2,0.8-0.3,1.1
		c-0.1,0.3-0.3,0.5-0.4,0.6c-0.3,0.4-0.6,0.8-1,1.2c-0.7,1.1-1.5,1.9-2.4,2.5c-0.8,0.6-1.8,0.8-2.8,0.8c-0.6,0-1.1-0.2-1.4-0.5
		c-0.3-0.3-0.5-0.8-0.5-1.4c0-0.3,0.1-0.7,0.2-1.2c0.1-0.5,0.3-1.1,0.5-1.7c0.2-0.8,0.5-1.3,0.7-1.8c0.2-0.4,0.5-0.6,0.7-0.6
		c0.3-0.1,0.7-0.2,0.9-0.3c0.3-0.1,0.5-0.3,0.8-0.6c0.4-0.6,0.7-1.1,1-1.6c0.2-0.3,0.4-0.6,0.6-0.8c0.2-0.2,0.4-0.3,0.5-0.3
		c0.7,0.1,1.2,0.2,1.6,0.2c0.4,0.1,0.6,0.1,0.7,0.2c0.2,0.1,0.3,0.3,0.5,0.7c0.2,0.4,0.4,0.9,0.6,1.6L456.4,38.2z M511.7,39.6
		c-0.3,0-0.6-0.2-0.9-0.6c-0.3-0.4-0.6-0.9-0.9-1.5c-0.5-1.1-0.9-1.9-1.2-2.5c-0.3-0.6-0.5-1-0.6-1.2c-0.4-0.6-0.9-1.1-1.4-1.4
		c-0.5-0.3-1.1-0.5-1.7-0.5c-0.3,0-0.6,0.1-1,0.3c-0.4,0.2-0.9,0.6-1.4,1.1c-0.5,1.2-1,2.3-1.4,3.2c-0.4,0.9-0.8,1.7-1.2,2.3
		c-0.9,2.6-1.6,4.9-2.3,6.9c-0.7,2-1.2,3.6-1.7,4.9c0,0.3,0,0.6,0,1c-0.1,0.4-0.2,0.9-0.3,1.5c-0.1,0.7-0.2,1.2-0.4,1.5
		c-0.1,0.3-0.3,0.6-0.4,0.6l-0.1-0.3c0-0.2,0-0.8,0.2-1.6c0.2-0.8,0.4-1.9,0.8-3.3c0.1-0.7,0.3-1.4,0.3-1.9c0.1-0.5,0.1-1,0.2-1.4
		c0.6-2.8,1.2-5.2,1.7-7.1c0.5-1.9,0.9-3.4,1.3-4.4c1.5-4.3,2.6-7.7,3.4-10.1c0.8-2.4,1.1-3.8,1.1-4.2c0-0.8-0.1-1.4-0.3-1.7
		c-0.2-0.4-0.5-0.6-1-0.6c-0.3,0-0.6,0.1-0.9,0.4c-0.3,0.3-0.6,0.7-0.9,1.2c-0.3,0.7-0.6,1.3-0.9,1.9c-0.2,0.6-0.4,1-0.6,1.4
		c-0.7,1.5-1.4,3.1-2.4,4.7c-0.9,1.6-2,3.3-3.1,5c-0.2,0.4-0.4,0.8-0.5,1c-0.1,0.3-0.2,0.5-0.3,0.7c-1,1-1.8,1.9-2.5,2.7
		c-0.7,0.8-1.3,1.5-1.7,2c0.3,0.7,1.2,2.7,1.3,3c0.8-1,1.4-1.7,1.9-2.2c0.5-0.5,0.9-0.8,1.1-0.8c0,0.6,0,1.3,0,2.1
		c-0.1,0.8-0.2,1.6-0.4,2.5c-0.2,0.8-0.3,1.6-0.5,2.3c-0.2,0.8-0.3,1.5-0.4,2.3c-0.4,2.6-0.8,5-1,7.2c-0.2,2.2-0.3,4.3-0.3,6.2
		c0,1.2,0.2,2.2,0.5,2.8c0.3,0.6,0.8,0.9,1.5,0.9c0.3,0,0.6-0.2,1-0.7c0.4-0.4,0.9-1.1,1.4-2c0.3-0.7,0.5-1.3,0.6-1.8
		c0.1-0.5,0.2-0.9,0.3-1.2c0.1-0.5,0.4-1.2,0.8-2.2c0.5-1,0.7-1.7,0.8-2.2c0.4-1.4,0.7-2.6,1-3.6c0.3-1,0.6-1.9,0.9-2.5
		c0.2-0.8,0.3-1.6,0.5-2.4c0.2-0.5,0.4-1,0.6-1.4c0.2-0.4,0.4-0.8,0.5-1.1c0.5-1.5,1.1-2.8,1.6-3.7c0.5-1,1-1.6,1.5-1.9
		c0.5,0.2,1.1,0.7,1.9,1.6c0.8,0.9,1.4,1.5,2,1.6l2.2,0.8c0.9-0.2,1.5-0.3,2-0.4c0.5-0.1,0.8-0.2,0.9-0.2L511.7,39.6z"/>
</g>
</svg>
