<?xml version="1.0" encoding="utf-8"?>
<!-- Generator: Adobe Illustrator 18.0.0, SVG Export Plug-In . SVG Version: 6.00 Build 0)  -->
<!DOCTYPE svg PUBLIC "-//W3C//DTD SVG 1.1//EN" "http://www.w3.org/Graphics/SVG/1.1/DTD/svg11.dtd">
<svg version="1.1" id="Слой_1" xmlns="http://www.w3.org/2000/svg" xmlns:xlink="http://www.w3.org/1999/xlink" x="0px" y="0px"
	 viewBox="0 0 377 306" enable-background="new 0 0 377 306" xml:space="preserve">
<g opacity="0.3">
	<path fill-rule="evenodd" clip-rule="evenodd" d="M370.6,43.9c-0.6,2.6-1,5.3-1.7,7.9c-2.2,8.3-6.4,15.4-12.8,21.2
		c-45.5,41.7-91,83.5-136.6,125.2c-17.6,16.1-44.7,15.7-62-1.2c-22.4-22-44.5-44.4-66.7-66.6c-13.7-13.7-27.4-27.3-41.1-41.1
		c-3.6-3.6-7.4-5.6-12.3-3.4c-5,2.2-7.1,6.2-7,11.6c0,40.4,0,80.8,0,121.2c0,11.8,0,23.6,0,35.4c0,13.9,9.7,23.6,23.6,23.6
		c90.1,0,180.2,0,270.3,0c13.7,0,23.4-9.8,23.5-23.5c0-44.8,0-89.5,0-134.3c0-9.5,8.9-15.5,16.6-10.8c2.5,1.5,4.1,4.6,6.1,7
		c0,48.2,0,96.4,0,144.6c-0.2,0.6-0.6,1.3-0.7,1.9c-3.8,21.9-22.4,37.7-44.8,37.7c-90.8,0-181.5,0-272.3,0
		c-20.2,0-37.8-13.5-43.4-32.9c-0.6-2.2-1.2-4.5-1.7-6.8c0-56.5,0-112.9,0-169.4c0.6-2,1.2-4,1.9-6C16.1,65,44.5,51.6,66.3,73.7
		c35.1,35.4,70.4,70.5,105.7,105.7c10.2,10.2,23,10.4,33.7,0.7c44.2-40.5,88.4-81.1,132.7-121.6c6-5.5,10-11.5,9.5-20
		c-0.4-5.9-2.8-8.8-8.8-9.8c-2.9-0.5-5.9-0.6-8.8-0.6c-80.5,0-161.1,0-241.6,0c-7.5,0-12.6-4.2-12.9-10.7
		c-0.3-6.7,4.7-11.9,11.6-11.9c15.1-0.1,30.2,0,45.3,0c64.2,0,128.5,0,192.7,0c8.4,0,16.7,0.9,24.7,4c11.3,4.5,18.6,12.2,19.8,24.8
		c0.1,0.8,0.4,1.6,0.6,2.3C370.6,39.1,370.6,41.5,370.6,43.9z"/>
	<path fill-rule="evenodd" clip-rule="evenodd" d="M41.9,5.6c6.2,0.1,11.2,5.1,11.2,11.3c0,6.3-5.1,11.4-11.4,11.4
		c-6.3-0.1-11.4-5.3-11.2-11.6C30.6,10.5,35.7,5.5,41.9,5.6z"/>
	<path fill-rule="evenodd" clip-rule="evenodd" d="M303.1,245.8c-1.5-0.7-4.3-1.4-6.1-3.2c-11.2-10.8-22.2-21.8-33-33
		c-4.2-4.3-3.8-11.1,0.4-15.4c4.2-4.2,11.1-4.8,15.3-0.6c11.2,10.9,22.3,22,33.3,33.3c3.3,3.4,3.8,7.7,1.8,12.1
		C312.7,243.5,309,245.4,303.1,245.8z"/>
	<path fill-rule="evenodd" clip-rule="evenodd" d="M117.3,203.8c-0.7,1.4-1.6,4.5-3.6,6.5c-10.4,10.8-21,21.3-31.7,31.8
		c-4.8,4.7-11.6,4.8-16.2,0.3c-4.5-4.5-4.6-11.4,0.1-16.2c10.6-10.7,21.3-21.4,32-32c3.5-3.5,7.8-4.2,12.4-2.3
		C114.8,193.7,116.9,197.3,117.3,203.8z"/>
</g>
</svg>
