<?xml version="1.0" encoding="utf-8"?>
<!-- Generator: Adobe Illustrator 18.0.0, SVG Export Plug-In . SVG Version: 6.00 Build 0)  -->
<!DOCTYPE svg PUBLIC "-//W3C//DTD SVG 1.1//EN" "http://www.w3.org/Graphics/SVG/1.1/DTD/svg11.dtd">
<svg version="1.1" id="Слой_1" xmlns="http://www.w3.org/2000/svg" xmlns:xlink="http://www.w3.org/1999/xlink" x="0px" y="0px"
	 viewBox="0 0 369.3 372.7" enable-background="new 0 0 369.3 372.7" xml:space="preserve">
<g opacity="0.3">
	<path d="M184.5,5.1C84.3,5.1,3.1,86.4,3.1,186.6C3.1,286.8,84.3,368,184.5,368C284.7,368,366,286.8,366,186.6
		C366,86.4,284.7,5.1,184.5,5.1z M184.5,347.2c-88.7,0-160.7-71.9-160.7-160.7c0-88.7,71.9-160.7,160.7-160.7
		s160.7,71.9,160.7,160.7C345.2,275.3,273.3,347.2,184.5,347.2z"/>
	<g>
		<path d="M184.5,155.6c11.9,0,21.5-9.6,21.5-21.5c0-11.9-9.6-21.5-21.5-21.5c-11.9,0-21.5,9.6-21.5,21.5
			C163.1,146,172.7,155.6,184.5,155.6z"/>
		<path d="M184.5,36.2c-83,0-150.3,67.3-150.3,150.3c0,83,67.3,150.3,150.3,150.3c83,0,150.3-67.3,150.3-150.3
			C334.9,103.5,267.6,36.2,184.5,36.2z M184.5,90.5h0.1c24.1,0,43.6,19.6,43.6,43.6c0,24.1-19.5,43.6-43.6,43.6
			s-43.6-19.5-43.6-43.6C140.9,110,160.4,90.5,184.5,90.5z M236.4,188.8c-0.1,5.1-4.9,8.8-13.1,14.1c-9.3,6-22,8.2-30.3,9.1l6.9,7
			l25.7,25.7c3.9,3.9,3.9,10.2,0,14.2l-1.2,1.2c-3.9,3.9-10.2,3.9-14.1,0c-6.5-6.5-16-16-25.7-25.7L159,260c-2,1.9-4.5,2.9-7.1,2.9
			c-2.6,0-5.1-1-7.1-2.9l-1.2-1.2c-3.9-3.9-3.9-10.2,0-14.2c6.5-6.5,16-16,25.7-25.7l6.9-6.9c-8.3-0.8-21.1-3.1-30.5-9.1
			c-11-7-15.8-11.2-11.5-19.8c2.5-5,9.3-9.1,18.4-1.9c12.3,9.7,31.9,9.7,31.9,9.7s19.7,0,31.9-9.7c9.1-7.1,15.9-3,18.4,1.9
			C235.9,185.2,236.4,187.1,236.4,188.8L236.4,188.8z"/>
	</g>
</g>
</svg>
