<?xml version="1.0" encoding="utf-8"?>
<!-- Generator: Adobe Illustrator 18.0.0, SVG Export Plug-In . SVG Version: 6.00 Build 0)  -->
<!DOCTYPE svg PUBLIC "-//W3C//DTD SVG 1.1//EN" "http://www.w3.org/Graphics/SVG/1.1/DTD/svg11.dtd">
<svg version="1.1" id="Слой_1" xmlns="http://www.w3.org/2000/svg" xmlns:xlink="http://www.w3.org/1999/xlink" x="0px" y="0px"
	 viewBox="0 0 370.5 303.5" enable-background="new 0 0 370.5 303.5" xml:space="preserve">
<g>
	<path fill-rule="evenodd" clip-rule="evenodd" d="M4.1,221.7c2.8-14.1,12-23.4,23.2-31.2c5.1-3.6,11.4-2.9,14.8,1.7
		c3.6,4.7,2.7,10.7-2.1,14.8c-1.4,1.1-2.8,2.1-4.2,3.2c-6.2,4.9-9.8,10.8-9.2,19.2c0.5,8,0.1,16.1,0.1,24.1
		c0.1,12.8,9.9,22.8,22.6,22.8c60.6,0.1,121.2,0.1,181.7,0c12.3,0,22.3-10,22.5-22.3c0.1-9.4,0-18.9,0-28.3c0-5.2-2.3-9.3-5.8-12.9
		c-6.8-7-15.5-11.1-24.5-14.5c-20-7.5-40.8-10.6-62-12c-11.5-0.8-23.2-0.4-34.6-2.3c-28.2-4.7-51.1-29.4-53.9-57.8
		c-1.1-11.5-0.7-23.1-0.8-34.7c-0.1-11.6-0.1-23.2,0-34.7C72.3,27.6,95.5,3.3,125,4.1c10.3,0.3,20.5,0.1,30.8,0
		c28.3-0.1,51.5,22,52.1,50.4c0.5,22,0.2,43.9,0,65.9c-0.1,8.8-2.4,17.3-6.2,25.3c-2.6,5.7-8.6,8-14.2,5.9
		c-5.5-2.1-8.8-8.1-6.7-13.5c3.5-9.1,4.6-18.2,4.2-28c-0.7-17.3,0.3-34.7,0.3-52c0-15.9-10.5-28.5-26.1-30.9
		c-5.2-0.8-10.6-0.4-15.9-0.4c-8,0.1-16.1-0.4-24,0.7c-14,2.1-24.5,14.6-24.7,28.7c-0.2,16.3-0.2,32.6,0,48.9
		c0.1,7.7-0.2,15.7,1.4,23.1c4.4,20.4,22.8,34.5,43.7,34.6c28.7,0.2,57,3.6,84.2,13.4c12.5,4.5,24.4,10.2,34.7,18.7
		c8.7,7.1,15.6,15.6,16.9,27.2c0.6,5.7,0.5,11.6,0.3,17.3c-0.2,7.9,0.3,16-1.2,23.6c-4.3,21.3-22.7,35.7-44.5,35.7
		c-43.1,0-86.2,0-129.3,0c-17,0-34,0-51,0c-22.9-0.1-41.2-15.4-45.3-38c-0.1-0.8-0.5-1.6-0.7-2.3C4.1,246.2,4.1,234,4.1,221.7z"/>
	<path fill-rule="evenodd" clip-rule="evenodd" d="M366.9,201.8c-0.5,2.1-1,4.1-1.5,6.2c-4.8,19.5-22.6,33.7-42.8,34.2
		c-4.1,0.1-8.3,0.1-12.4,0c-6.4-0.1-11.3-5-11.4-11.2c0-6.3,4.9-11.2,11.5-11.4c5.3-0.2,10.7,0.2,15.9-0.7
		c10.5-1.9,17.8-11,17.9-21.6c0.1-11.2,0.1-22.4,0-33.7c0-5.8-3.1-10.2-7.8-12.7c-5.6-3-11.8-5.5-18-7c-22.6-5.6-45.1-5.2-67.4,1.7
		c-5.6,1.7-10.8,3.8-15.6,7.2c-4.6,3.3-10.9,1.8-14.1-2.8c-3.3-4.8-2.3-11.2,2.7-14.3c7.3-4.5,14.9-8.5,22.7-12.8
		c-0.3-0.3-1-1.2-1.7-2c-9.4-10.7-14.1-23.3-14.3-37.5c-0.1-11.2,0-22.4,0-33.7c0.1-25.4,20-45.5,45.4-45.5c9.8,0,19.7-0.5,29.3,0.7
		c21.3,2.5,37.9,21.1,38.5,42.5c0.3,12,0.2,24.1,0.1,36.1c0,6.4-5.1,11.3-11.3,11.2c-6.2,0-11.1-4.8-11.2-11.3
		c-0.1-10.9-0.1-21.7,0-32.6c0-14.4-9.6-24.1-23.9-24.1c-7.2,0-14.4-0.1-21.6,0c-12.8,0.1-22.6,9.9-22.6,22.8
		c-0.1,11.3-0.1,22.7,0,34c0.1,18.7,14.9,33.7,33.7,34c18.9,0.2,37.1,3.3,54,12.1c8.3,4.3,15.8,9.7,20.7,17.8
		c2.2,3.7,3.4,7.9,5,11.9C366.9,173.5,366.9,187.7,366.9,201.8z"/>
	<path fill-rule="evenodd" clip-rule="evenodd" d="M66.4,168.6c6.3,0,11.4,5.2,11.3,11.5c-0.1,6.1-5.3,11.2-11.4,11
		c-6.2-0.1-11.1-5.2-11.1-11.4C55.2,173.7,60.3,168.6,66.4,168.6z"/>
</g>
</svg>
