<?xml version="1.0" encoding="utf-8"?>
<!-- Generator: Adobe Illustrator 18.0.0, SVG Export Plug-In . SVG Version: 6.00 Build 0)  -->
<!DOCTYPE svg PUBLIC "-//W3C//DTD SVG 1.1//EN" "http://www.w3.org/Graphics/SVG/1.1/DTD/svg11.dtd">
<svg version="1.1" id="Слой_1" xmlns="http://www.w3.org/2000/svg" xmlns:xlink="http://www.w3.org/1999/xlink" x="0px" y="0px"
	 viewBox="0 0 357.3 367.3" enable-background="new 0 0 357.3 367.3" xml:space="preserve">
<g>
	<path d="M196.3,181.1l-47.5,32c-2-0.7-4.1-1-6.3-1c-4.2,0-7.9,1.3-11.1,3.5l-52.9-39.9c-2.5-1.9-6.1-1.4-8,1.1
		c-1.9,2.5-1.4,6.1,1.1,8l52.9,39.9c-0.7,2-1.1,4.1-1.1,6.4c0,10.5,8.5,19.1,19.1,19.1c10.2,0,18.5-8.1,19.1-18.1l47.5-32.1
		c5.3-3.5,6.6-10.6,3.1-15.9C208.6,178.9,201.5,177.5,196.3,181.1z" class="clock-arrow" />
	<path d="M141.8,90C65.9,90,4.4,151.5,4.4,227.3c0,75.9,61.5,137.4,137.4,137.4c75.9,0,137.4-61.5,137.4-137.4
		C279.2,151.5,217.7,90,141.8,90z M222.7,308.3c-21.6,21.6-50.4,33.5-80.9,33.5c-30.6,0-59.4-11.9-81-33.5
		c-21.6-21.6-33.5-50.4-33.5-81c0-30.6,11.9-59.3,33.5-80.9c21.6-21.6,50.4-33.6,81-33.6c30.6,0,59.3,11.9,80.9,33.6
		c21.6,21.6,33.6,50.4,33.6,80.9C256.3,257.9,244.3,286.7,222.7,308.3z" class="clock-round" />
	<path d="M300.3,164c20.1-4.1,63.6-9.9,53.9-81c-14.7,19.3-46.6,42.2-61.5,32.6c72.5-41.5,59.5-104.1,57.5-113.7
		c-22.9,38.2-71,49.9-104.1,46.5c5.3,34.4-59,48.1-25.7,0.5c-34.2,1.8-73.9,9.3-98.3,28.8c6.4-0.8,13-1.2,19.7-1.2
		c83.3,0,150.7,67.5,150.7,150.7c0,15.6-2.3,30.7-6.8,44.8c25.9-24.1,37.8-57.9,44.1-88.3C295.7,216.7,276.9,168.8,300.3,164z" class="clock-fire" />
</g>
</svg>
