<?xml version="1.0" encoding="utf-8"?>
<!-- Generator: Adobe Illustrator 18.0.0, SVG Export Plug-In . SVG Version: 6.00 Build 0)  -->
<!DOCTYPE svg PUBLIC "-//W3C//DTD SVG 1.1//EN" "http://www.w3.org/Graphics/SVG/1.1/DTD/svg11.dtd">
<svg version="1.1" id="Слой_1" xmlns="http://www.w3.org/2000/svg" xmlns:xlink="http://www.w3.org/1999/xlink" x="0px" y="0px"
	 viewBox="0 0 323.3 371" enable-background="new 0 0 323.3 371" xml:space="preserve">
<g>
	<path fill-rule="evenodd" clip-rule="evenodd" d="M281.4,4.8c2.3,0.6,4.6,1.1,6.8,1.7c31.9,9,44.1,47.5,23.1,73.1
		c-36.7,44.7-73.4,89.4-110.2,134.1c-19.8,24-56.3,24-76.1,0c-11.1-13.5-22.1-27.1-33.3-40.5c-5.2-6.3-11.9-9.9-20.3-9.7
		c-6.8,0.2-13.7,0-20.5,0c-9.9,0.1-17.3,4.5-21.5,13.5c-4.1,8.8-2.8,17.2,3.4,24.8c36.2,44.5,72.4,89,108.7,133.5
		c10.4,12.8,31.5,13.1,43,0.2c9.6-10.9,18.5-22.4,27.7-33.6c26.5-32.6,53.1-65.2,79.5-97.8c2.6-3.3,4.8-7,6.7-10.7
		c2.9-5.9,8.9-8.6,14.7-6.3c5.9,2.4,8.9,8.9,6.1,14.9c-2.4,5.2-5.1,10.5-8.7,14.9c-36,44.1-72.2,87.9-108.3,132
		c-8.2,10.1-18.5,16.2-31.3,18.3c-0.4,0.1-0.8,0.4-1.2,0.6c-4,0-8,0-12,0c-2.9-0.7-5.7-1.3-8.5-2.1c-9.4-2.8-17.3-7.9-23.6-15.5
		c-36.9-44.9-73.9-89.6-110.6-134.7c-11.8-14.4-13.8-30.9-6-47.8c7.8-16.9,21.7-25.8,40.3-26.6c10-0.4,20.1-0.3,30.1,0.6
		c11.5,1.1,20.9,7,28.3,15.9c11,13.4,21.9,26.9,32.9,40.3c11.7,14.3,32.2,14.9,44.6,1.2c5.3-5.9,10.1-12.2,15.1-18.3
		c31-38.1,62-76.2,93-114.2c6.5-7.9,8.2-16.5,3.8-25.7c-4.4-9.2-12.2-13.3-22.4-13.3c-74.5,0-149,0-223.5,0
		c-9.9,0-17.4,4.5-21.6,13.4c-4.2,8.8-2.9,17.2,3.3,24.8C41.7,76.8,50.8,88,59.9,99.2c4.5,5.5,3.9,12.5-1.3,16.6
		c-5.1,4-11.9,2.9-16.3-2.5C33.2,102,23.9,90.8,14.7,79.6C-7.5,52.3,7.7,11.6,42.3,5.5c0.8-0.1,1.6-0.4,2.4-0.7
		C123.6,4.8,202.5,4.8,281.4,4.8z"/>
	<path fill-rule="evenodd" clip-rule="evenodd" d="M282.1,157.9c0-6.2,5-11.3,11.2-11.3c6.3-0.1,11.5,5,11.5,11.3
		c0,6.2-5,11.2-11.2,11.3C287.3,169.3,282.1,164.2,282.1,157.9z"/>
</g>
</svg>
