<?xml version="1.0" encoding="utf-8"?>
<!-- Generator: Adobe Illustrator 18.0.0, SVG Export Plug-In . SVG Version: 6.00 Build 0)  -->
<!DOCTYPE svg PUBLIC "-//W3C//DTD SVG 1.1//EN" "http://www.w3.org/Graphics/SVG/1.1/DTD/svg11.dtd">
<svg version="1.1" id="Слой_1" xmlns="http://www.w3.org/2000/svg" xmlns:xlink="http://www.w3.org/1999/xlink" x="0px" y="0px"
	 viewBox="0 0 364.1 364.4" enable-background="new 0 0 364.1 364.4" xml:space="preserve">
<g opacity="0.3">
	<path fill-rule="evenodd" clip-rule="evenodd" d="M349,285.6c-8.1-8.5-16.5-16.7-24.9-24.9c-5.1-5-12-5-16.5-0.2
		c-4.4,4.7-3.9,11.2,1,16.1c7.7,7.6,15.3,15.3,22.9,22.9c5,5,7.5,11,6.8,18c-0.9,9.3-5.8,15.9-14.5,19.2c-8.9,3.3-17,1.3-23.8-5.3
		c-10.4-10.2-20.6-20.5-30.8-30.9c-2-2.1-3.8-4.4-5.5-6.8c-3.4-5-3.5-10.3,0-15.3c2.3-3.2,4.9-6.2,7.6-9.1
		c36.2-38.6,50.8-84.1,42.5-136.5c-4-25-14.1-47.5-29.5-67.7c-24.3-31.7-56.1-51.3-95.2-59c-6.3-1.3-12.8-1.9-19.2-2.8
		c-6.5,0-13,0-19.5,0c-6.3,0.9-12.6,1.6-18.9,2.8c-35,6.5-64.4,23.3-88.1,49.8C22.8,79.2,10.3,106.3,5.6,137
		c-0.7,4.3-1.2,8.7-1.7,13c0,6.3,0,12.6,0,18.8c0.5,4.4,0.9,8.7,1.6,13C14.9,237.5,45,277.7,95.8,302c20,9.6,41.3,13.7,63.5,14
		c5.3,0,9.4-2.5,11.1-6.8c3.1-7.6-2.3-15.3-10.8-15.4c-13.7-0.1-27.1-2.1-40.1-6.3c-64.1-20.6-102.6-84.3-91.3-150.7
		C38.6,75.4,91.8,28.2,153.7,25.9c38.5-1.5,71.9,11.1,99.8,37.8c38.8,37,51.6,97.5,31.2,146.9c-8.6,20.9-22.4,38.1-37.9,54.2
		c-6.7,7-9.4,15.6-8,25.3c1.6,10.6,7.7,18.8,15,26.2c10.4,10.6,20.9,21.2,31.6,31.6c17.3,17,45,16.9,62.3,0
		C364.9,330.9,365.7,303.2,349,285.6z"/>
	<path fill-rule="evenodd" clip-rule="evenodd" d="M112.9,84c1.5-0.9,3-1.8,4.3-2.9c4.4-3.8,5.1-10.1,1.8-14.8
		c-3.4-4.6-9.6-6.1-14.6-3.1c-36,22.1-54.4,54.4-55.8,91c0,25.3,5.2,43.8,14.9,61c2.3,4.1,6.7,6.4,11,5.8c4.7-0.7,7.9-3.3,9.3-7.8
		c1.2-3.8-0.1-7.3-1.9-10.6C59.1,160.8,72.6,109.3,112.9,84z"/>
	<path fill-rule="evenodd" clip-rule="evenodd" d="M149.1,59.2c-0.1,6.1,4.9,11.1,11,11.2c6,0,11.2-5,11.2-11
		c0.1-6.1-5-11.1-11-11.2C154.2,48.1,149.1,53.1,149.1,59.2z"/>
	<path fill-rule="evenodd" clip-rule="evenodd" d="M205,293.8c-6-0.1-11.1,4.8-11.3,10.9c-0.1,6.2,4.9,11.3,11.1,11.4
		c6,0,11.1-5,11.1-11C216,298.9,211.1,293.9,205,293.8z"/>
</g>
</svg>
