<?xml version="1.0" encoding="utf-8"?>
<!-- Generator: Adobe Illustrator 18.0.0, SVG Export Plug-In . SVG Version: 6.00 Build 0)  -->
<!DOCTYPE svg PUBLIC "-//W3C//DTD SVG 1.1//EN" "http://www.w3.org/Graphics/SVG/1.1/DTD/svg11.dtd">
<svg version="1.1" id="Слой_1" xmlns="http://www.w3.org/2000/svg" xmlns:xlink="http://www.w3.org/1999/xlink" x="0px" y="0px"
	 viewBox="0 0 369.3 372.7" enable-background="new 0 0 369.3 372.7" xml:space="preserve">
<g opacity="0.3">
	<path fill-rule="evenodd" clip-rule="evenodd" d="M4.6,281.3c0.8-5,1.5-10,2.5-14.9c4.9-24.8,15-47.6,27.5-69.4
		c26-45.3,60.2-83.8,99.7-117.7c26.3-22.5,54.6-41.9,86.2-56.3c18.5-8.4,37.7-14.9,58.1-16.8c0.6,0,1.1-0.4,1.6-0.6
		c5.4,0,10.9,0,16.3,0c1.1,0.2,2.3,0.5,3.4,0.7c11.3,1.5,22.1,4.8,30.6,12.6c9,8.2,17.5,16.9,25.9,25.7c4.9,5.1,7.8,11.4,9.6,18.3
		c0.5,1.9,0.9,3.9,1.4,5.8c0,3.5,0,7.1,0,10.6c-0.3,1.4-0.7,2.7-1,4.1c-2,8.9-6.1,16.5-12.6,23c-10.5,10.5-21,21.1-31.6,31.5
		c-17.8,17.6-44.3,17.6-63.5,1.7c-18.4-15.3-44.2-14.1-61.2,2.7c-14.1,13.9-28.1,28-42.1,42.1c-0.8,0.8-1.6,1.7-2.5,2.5
		c-4.8,4.2-11.3,4-15.7-0.4c-4.2-4.2-4.6-11.3-0.3-15.7c16-16.1,31.5-32.7,48.3-47.8c24.8-22.4,62.5-22.1,88-0.7
		c11.3,9.5,23.5,9,34.1-1.5c9.7-9.7,19.4-19.4,29.1-29.1c11.1-11.1,11.2-24.2,0.1-35.1c-5.6-5.6-11-11.4-17.2-16.3
		c-11.9-9.4-25.9-11.3-40.5-10.1c-25.9,2.2-49,12.3-71.3,24.8c-31.7,17.9-59.6,40.7-85.3,66.3c-26.4,26.3-49.9,54.8-68.3,87.3
		c-10.7,18.9-19.4,38.6-23.4,60c-2.6,14.4-3.2,28.8,3.2,42.4c2.5,5.3,6.3,10.2,10.1,14.8c3.8,4.6,8.4,8.6,12.7,12.9
		c9.6,9.5,23.3,9.7,32.9,0.2c10.5-10.4,20.9-20.8,31.3-31.3c9.2-9.3,9.6-22.3,1-32.2c-5-5.7-4.9-12.5,0.1-16.9
		c5-4.4,11.9-3.6,16.9,2c16.2,17.7,15.8,45.1-1.3,62.6c-10.7,11-21.6,21.8-32.6,32.6c-6.9,6.8-15.2,11-24.9,12.5
		c-0.6,0.1-1.1,0.4-1.6,0.6c-3.5,0-7.1,0-10.6,0c-0.4-0.2-0.9-0.5-1.3-0.5c-10.6-1.5-19.3-6.4-26.8-14c-5.9-6-11.8-11.9-17.8-17.8
		c-7.5-7.4-12.4-16.3-14.9-26.4c-1-4-1.6-8.1-2.3-12.1C4.6,292.1,4.6,286.7,4.6,281.3z"/>
	<path fill-rule="evenodd" clip-rule="evenodd" d="M121.3,221.8c-6.3,0-11.3-4.8-11.4-11c-0.1-6.3,5-11.6,11.3-11.6
		c6.2-0.1,11.5,5.3,11.4,11.5C132.5,216.9,127.5,221.8,121.3,221.8z"/>
</g>
</svg>
