<?xml version="1.0" encoding="utf-8"?>
<!-- Generator: Adobe Illustrator 18.0.0, SVG Export Plug-In . SVG Version: 6.00 Build 0)  -->
<!DOCTYPE svg PUBLIC "-//W3C//DTD SVG 1.1//EN" "http://www.w3.org/Graphics/SVG/1.1/DTD/svg11.dtd">
<svg version="1.1" id="Слой_1" xmlns="http://www.w3.org/2000/svg" xmlns:xlink="http://www.w3.org/1999/xlink" x="0px" y="0px"
	 viewBox="0 0 369.3 372.7" enable-background="new 0 0 369.3 372.7" xml:space="preserve">
<g opacity="0.3">
	<path d="M185.4,4.8C85.2,4.8,4,86,4,186.2c0,100.2,81.2,181.4,181.4,181.4c100.2,0,181.4-81.2,181.4-181.4
		C366.8,86,285.6,4.8,185.4,4.8z M185.4,346.9c-88.7,0-160.7-71.9-160.7-160.7S96.7,25.5,185.4,25.5s160.7,71.9,160.7,160.7
		S274.2,346.9,185.4,346.9z"/>
	<path d="M185.4,35.9c-83,0-150.3,67.3-150.3,150.3c0,83,67.3,150.3,150.3,150.3c83,0,150.3-67.3,150.3-150.3
		C335.7,103.2,268.4,35.9,185.4,35.9z M258.7,148.7c0.1,1.6,0.1,3.3,0.1,4.9c0,49.9-38,107.5-107.5,107.5c-21.3,0-41.2-6.3-57.9-17
		c3,0.4,6,0.5,9,0.5c17.7,0,34-6,46.9-16.2c-16.6-0.3-30.5-11.2-35.3-26.2c2.3,0.4,4.7,0.7,7.1,0.7c3.4,0,6.8-0.5,10-1.3
		c-17.3-3.5-30.3-18.7-30.3-37.1V164c5.1,2.8,10.9,4.5,17.1,4.7c-10.1-6.8-16.8-18.3-16.8-31.5c0-6.9,1.9-13.4,5.1-19
		c18.7,22.9,46.5,37.9,77.9,39.5c-0.7-2.8-1-5.6-1-8.6c0-20.9,16.9-37.8,37.8-37.8c10.9,0,20.7,4.6,27.6,11.9
		c8.6-1.7,16.7-4.8,24-9.2c-2.8,8.8-8.8,16.2-16.6,20.9c7.6-0.9,14.9-2.9,21.7-5.9C272.4,136.7,266,143.3,258.7,148.7z"/>
</g>
</svg>
