<?xml version="1.0" encoding="utf-8"?>
<!-- Generator: Adobe Illustrator 18.0.0, SVG Export Plug-In . SVG Version: 6.00 Build 0)  -->
<!DOCTYPE svg PUBLIC "-//W3C//DTD SVG 1.1//EN" "http://www.w3.org/Graphics/SVG/1.1/DTD/svg11.dtd">
<svg version="1.1" id="Слой_1" xmlns="http://www.w3.org/2000/svg" xmlns:xlink="http://www.w3.org/1999/xlink" x="0px" y="0px"
	 viewBox="0 0 592.5 643.6" enable-background="new 0 0 592.5 643.6" xml:space="preserve">
<g opacity="0.3">
	<path class="social-svg-g-path" d="M295.9,636.6c-63.1,0-126.4,0-189.4,0C47.4,636.6,5.7,594.9,5.7,536c0-17.4,0.2-34.9,0-52.3c-0.3-19.3,5.4-36.7,18.4-50.8
		c10.1-10.8,21.6-20.5,33.4-29.5c9.2-7.1,22.8-4.2,29.7,4.9c7.1,9.6,6.1,22.1-3,30.1c-6.1,5.4-12.7,10.1-18.4,15.6
		c-8.2,7.8-12.2,17.6-11.8,29.2c0.5,18.8,0,37.4,0.2,56.1c0.2,27.3,21.2,48.7,48.5,48.8c129.3,0.2,258.8,0.2,388.1,0
		c27.3,0,48.5-21.4,48.7-48.7c0.2-18.9-0.2-37.9,0.2-56.8c0.2-12.2-4.2-22.1-12.5-30.6c-14.6-14.9-33.2-23.8-52.3-30.9
		c-42.8-16-87.2-22.6-132.6-25.7c-24.7-1.6-49.7-0.9-73.9-4.9c-60.3-10.1-108.8-62.7-115.2-123.7c-2.1-21-1.4-42.4-1.6-63.6
		c-0.2-28.3-0.2-56.7,0-85C151.7,54.7,200.7,5.9,264,5.9c22.2,0,44.5,0,66.7,0C391,5.7,440.7,53.4,442.1,114
		c1,46.8,0.5,93.5,0,140.3c-0.2,19.1-5.2,37.5-13.4,54.7c-5.6,11.8-18.1,16.7-29.9,12.3c-11.8-4.3-19.5-17-14.9-28.7
		c7.6-19.6,10.1-39.3,9.2-60.7c-1.4-37.9,0.7-75.8,0.7-113.7c-0.2-32.8-25-60.5-57.5-63.8C320.8,53,305,53.9,289.3,54
		c-12.3,0.2-24.9-0.5-37,1.6c-29.5,4.9-52,31.3-52.5,61.2c-0.5,35.1-0.3,70.2,0,105.3c0.2,16.5-0.3,33.5,3.1,49.5
		c9.4,43.3,48.7,73.5,93,73.7c61.7,0.3,122.4,7.8,180.9,28.7c26.8,9.6,52.1,21.9,74.2,40c18.8,15.5,33.7,33.9,36.2,59.1
		c1.4,14.8,0.9,29.7,0.5,44.7c-0.2,13.9,0.3,28-2.4,41.5c-9.4,45.9-48.7,76.8-95.9,76.8C424.9,636.6,360.4,636.6,295.9,636.6
		L295.9,636.6z"/>
	<path class="social-svg-g-path" d="M163.2,381.8c0.2,13-10.8,24.2-23.8,24.3c-13.6,0.2-24.5-10.9-24.5-24.5c0.2-12.9,10.6-23.6,23.5-23.8
		C151.9,357.5,163,368.3,163.2,381.8z"/>
</g>
</svg>
