<?xml version="1.0" encoding="utf-8"?>
<!-- Generator: Adobe Illustrator 18.0.0, SVG Export Plug-In . SVG Version: 6.00 Build 0)  -->
<!DOCTYPE svg PUBLIC "-//W3C//DTD SVG 1.1//EN" "http://www.w3.org/Graphics/SVG/1.1/DTD/svg11.dtd">
<svg version="1.1" id="Слой_1" xmlns="http://www.w3.org/2000/svg" xmlns:xlink="http://www.w3.org/1999/xlink" x="0px" y="0px"
	 viewBox="0 0 369.3 372.7" enable-background="new 0 0 369.3 372.7" xml:space="preserve">
<g opacity="0.3">
	<path d="M184.8,4.8C84.6,4.8,3.3,86,3.3,186.2s81.2,181.4,181.4,181.4s181.4-81.2,181.4-181.4S285,4.8,184.8,4.8z M184.8,346.9
		C96,346.9,24.1,275,24.1,186.2S96,25.5,184.8,25.5c88.7,0,160.7,71.9,160.7,160.7S273.5,346.9,184.8,346.9z"/>
	<path d="M184.8,35.9c-83,0-150.3,67.3-150.3,150.3c0,83,67.3,150.3,150.3,150.3c83,0,150.3-67.3,150.3-150.3
		C335.1,103.2,267.8,35.9,184.8,35.9z M240.8,235.2c-2.8,5.7-6.6,10.4-11.4,14.1c-5.7,4.5-11.9,7.6-18.7,9.5
		c-6.8,1.9-15.4,2.8-25.9,2.8h-60.3V110.9h53.2c11.1,0,19.5,0.4,25.2,1.3c5.7,0.9,11.1,2.6,16.1,5.3c5.4,2.9,9.4,6.8,12.1,11.7
		c2.7,4.9,4,10.5,4,16.8c0,7.4-1.8,13.9-5.5,19.6c-3.7,5.7-8.8,9.9-15.2,12.7v0.8c9.3,2,16.8,5.9,22.4,12c5.6,6,8.4,14.2,8.4,24.4
		C245.1,222.9,243.6,229.5,240.8,235.2z"/>
	<path d="M180.5,170.2c2.6-0.1,5.3-0.8,8-2.1c3-1.4,5.1-3.4,6.3-5.9c1.1-2.5,1.7-5.4,1.7-8.7c0-2.4-0.6-4.9-1.9-7.5
		c-1.2-2.6-3.2-4.4-5.8-5.6c-2.5-1.1-5.4-1.7-8.9-1.8c-3.4-0.1-8.5-0.2-15.2-0.2h-2.6v31.9h4.7C173.4,170.4,177.9,170.3,180.5,170.2
		z"/>
	<path d="M194.7,197.8c-2.3-0.9-5.5-1.4-9.5-1.5c-4-0.1-9.4-0.2-16.1-0.2h-7V234h2c9.9,0,16.7-0.1,20.4-0.2
		c3.8-0.1,7.6-1.1,11.5-2.7c3.4-1.5,6-3.7,7.5-6.5c1.6-2.9,2.4-6.1,2.4-9.8c0-4.7-0.9-8.3-2.8-10.9
		C201.3,201.2,198.5,199.2,194.7,197.8z"/>
</g>
</svg>
